<svg width="30" height="29" viewBox="0 0 30 29" fill="none" xmlns="http://www.w3.org/2000/svg">
<path d="M19.7404 9.20624C18.879 8.4971 17.8703 7.98939 16.7878 7.72015C15.7054 7.45092 14.5766 7.42695 13.4837 7.64999C12.0286 7.9442 10.6935 8.66443 9.64793 9.71932C8.60236 10.7742 7.89342 12.1162 7.61105 13.575C7.40485 14.6688 7.44232 15.7947 7.72079 16.8723C7.99926 17.95 8.51187 18.9528 9.22206 19.8094C9.88115 20.5538 10.2589 21.5058 10.2898 22.5V25.3125C10.2898 26.0584 10.5859 26.7738 11.1128 27.3013C11.6398 27.8287 12.3545 28.125 13.0997 28.125H16.8462C17.5914 28.125 18.3062 27.8287 18.8331 27.3013C19.3601 26.7738 19.6561 26.0584 19.6561 25.3125V22.6781C19.6875 21.5805 20.0904 20.526 20.7988 19.6875C22.0399 18.1507 22.625 16.1858 22.4268 14.2196C22.2286 12.2535 21.2632 10.4451 19.7404 9.18749V9.20624ZM17.7828 25.3125C17.7828 25.5612 17.6842 25.7996 17.5085 25.9754C17.3329 26.1512 17.0946 26.25 16.8462 26.25H13.0997C12.8513 26.25 12.6131 26.1512 12.4374 25.9754C12.2618 25.7996 12.1631 25.5612 12.1631 25.3125V24.375H17.7828V25.3125ZM19.347 18.525C18.4052 19.6431 17.8558 21.0394 17.7828 22.5H15.9096V19.6875C15.9096 19.4389 15.8109 19.2004 15.6353 19.0246C15.4596 18.8488 15.2214 18.75 14.973 18.75C14.7246 18.75 14.4863 18.8488 14.3107 19.0246C14.135 19.2004 14.0363 19.4389 14.0363 19.6875V22.5H12.1631C12.1384 21.0639 11.6076 19.6826 10.6645 18.6C10.0422 17.8538 9.62377 16.9588 9.44995 16.0025C9.27613 15.0462 9.35286 14.0611 9.67266 13.1433C9.99246 12.2255 10.5444 11.4063 11.2747 10.7656C12.005 10.1249 12.8887 9.68455 13.8396 9.48749C14.6569 9.31906 15.5014 9.33491 16.3117 9.53387C17.1221 9.73283 17.8781 10.1099 18.5247 10.6378C19.1713 11.1656 19.6924 11.8309 20.0501 12.5855C20.4078 13.34 20.5932 14.1648 20.5927 15C20.5997 16.2842 20.1592 17.5308 19.347 18.525Z" fill="#DD8D43"/>
<rect x="14.0625" width="1.875" height="5.62501" rx="0.937501" fill="#DD8D43"/>
<rect x="25.54" y="3.75" width="1.875" height="5.62501" rx="0.937501" transform="rotate(45 25.54 3.75)" fill="#DD8D43"/>
<rect width="1.875" height="5.62501" rx="0.937501" transform="matrix(-0.707107 0.707107 0.707107 0.707107 4.13818 3.75)" fill="#DD8D43"/>
<rect width="1.875" height="5.62501" rx="0.937501" transform="matrix(0 -1 -1 0 5.625 15.9375)" fill="#DD8D43"/>
<rect width="1.875" height="5.62501" rx="0.937501" transform="matrix(0 -1 -1 0 30 15.9375)" fill="#DD8D43"/>
</svg>
