<svg width="40" height="40" viewBox="0 0 40 40" fill="none" xmlns="http://www.w3.org/2000/svg">
<path d="M12.0004 10.4C11.1172 10.4005 10.4009 9.68498 10.4004 8.80182C10.4004 8.80122 10.4004 8.80061 10.4004 8.8V5.6C10.4004 4.71635 11.1167 4 12.0004 4C12.884 4 13.6004 4.71635 13.6004 5.6V8.8C13.6009 9.68315 12.8854 10.3995 12.0022 10.4C12.0016 10.4 12.001 10.4 12.0004 10.4ZM28.0004 10.4C27.1172 10.4005 26.4009 9.68498 26.4004 8.80182C26.4004 8.80122 26.4004 8.80061 26.4004 8.8V5.6C26.4004 4.71635 27.1167 4 28.0004 4C28.884 4 29.6004 4.71635 29.6004 5.6V8.8C29.6009 9.68315 28.8854 10.3995 28.0022 10.4C28.0016 10.4 28.001 10.4 28.0004 10.4Z" fill="#8BB9E3"/>
<path d="M31.2 7.20068H29.6V8.79992C29.6 9.68356 28.8836 10.3999 28 10.3999C27.1164 10.3999 26.4 9.68356 26.4 8.79992V7.20068H13.6V8.79992C13.6 9.68356 12.8836 10.3999 12 10.3999C11.1164 10.3999 10.4 9.68356 10.4 8.79992V7.20068H8.8C6.14904 7.20068 4 9.34972 4 12.0007V15.2007H36V12.0007C36 9.34972 33.851 7.20068 31.2 7.20068Z" fill="#00418C"/>
<path d="M12.0004 23.2005C12.884 23.2005 13.6004 22.4841 13.6004 21.6005C13.6004 20.7168 12.884 20.0005 12.0004 20.0005C11.1167 20.0005 10.4004 20.7168 10.4004 21.6005C10.4004 22.4841 11.1167 23.2005 12.0004 23.2005Z" fill="#00418C"/>
<path d="M12.0004 29.6004C12.884 29.6004 13.6004 28.884 13.6004 28.0004C13.6004 27.1167 12.884 26.4004 12.0004 26.4004C11.1167 26.4004 10.4004 27.1167 10.4004 28.0004C10.4004 28.884 11.1167 29.6004 12.0004 29.6004Z" fill="#00418C"/>
<path d="M20.0004 23.2005C20.884 23.2005 21.6004 22.4841 21.6004 21.6005C21.6004 20.7168 20.884 20.0005 20.0004 20.0005C19.1167 20.0005 18.4004 20.7168 18.4004 21.6005C18.4004 22.4841 19.1167 23.2005 20.0004 23.2005Z" fill="#00418C"/>
<path d="M20.0004 29.6004C20.884 29.6004 21.6004 28.884 21.6004 28.0004C21.6004 27.1167 20.884 26.4004 20.0004 26.4004C19.1167 26.4004 18.4004 27.1167 18.4004 28.0004C18.4004 28.884 19.1167 29.6004 20.0004 29.6004Z" fill="#00418C"/>
<path d="M28.0004 23.2005C28.884 23.2005 29.6004 22.4841 29.6004 21.6005C29.6004 20.7168 28.884 20.0005 28.0004 20.0005C27.1167 20.0005 26.4004 20.7168 26.4004 21.6005C26.4004 22.4841 27.1167 23.2005 28.0004 23.2005Z" fill="#00418C"/>
<path d="M28.0004 29.6004C28.884 29.6004 29.6004 28.884 29.6004 28.0004C29.6004 27.1167 28.884 26.4004 28.0004 26.4004C27.1167 26.4004 26.4004 27.1167 26.4004 28.0004C26.4004 28.884 27.1167 29.6004 28.0004 29.6004Z" fill="#00418C"/>
<path d="M4 15.2002V31.2002C4 33.8512 6.14904 36.0002 8.8 36.0002H31.2C33.851 36.0002 36 33.8512 36 31.2002V15.2002H4V15.2002ZM12 29.6002C11.1164 29.6002 10.4 28.8838 10.4 28.0002C10.4 27.1165 11.1164 26.4002 12 26.4002C12.8836 26.4002 13.6 27.1165 13.6 28.0002C13.6 28.8838 12.8836 29.6002 12 29.6002ZM12 23.2002C11.1164 23.2002 10.4 22.4839 10.4 21.6002C10.4 20.7165 11.1164 20.0002 12 20.0002C12.8836 20.0002 13.6 20.7165 13.6 21.6002C13.6 22.4839 12.8836 23.2002 12 23.2002ZM20 29.6002C19.1163 29.6002 18.4 28.8838 18.4 28.0002C18.4 27.1165 19.1163 26.4002 20 26.4002C20.8837 26.4002 21.6 27.1165 21.6 28.0002C21.6 28.8838 20.8837 29.6002 20 29.6002ZM20 23.2002C19.1163 23.2002 18.4 22.4839 18.4 21.6002C18.4 20.7165 19.1163 20.0002 20 20.0002C20.8837 20.0002 21.6 20.7165 21.6 21.6002C21.6 22.4839 20.8837 23.2002 20 23.2002ZM28 29.6002C27.1164 29.6002 26.4 28.8838 26.4 28.0002C26.4 27.1165 27.1164 26.4002 28 26.4002C28.8836 26.4002 29.6 27.1165 29.6 28.0002C29.6 28.8838 28.8836 29.6002 28 29.6002ZM28 23.2002C27.1164 23.2002 26.4 22.4839 26.4 21.6002C26.4 20.7165 27.1164 20.0002 28 20.0002C28.8836 20.0002 29.6 20.7165 29.6 21.6002C29.6 22.4839 28.8836 23.2002 28 23.2002Z" fill="#8BB9E3"/>
</svg>
