<svg width="40" height="40" viewBox="0 0 40 40" fill="none" xmlns="http://www.w3.org/2000/svg">
<path d="M13.0381 11.8328C13.0144 11.7197 12.9661 11.5089 12.9307 11.3644C12.8952 11.2198 12.8745 11.1016 12.8846 11.1016C12.9209 11.1016 14.2554 11.6531 14.4347 11.7422C14.5352 11.7922 14.6347 11.833 14.6558 11.8329C14.6769 11.8329 14.8208 11.8911 14.9757 11.9624C15.1306 12.0338 15.3602 12.1287 15.4858 12.1736C15.6115 12.2184 15.7966 12.2932 15.8972 12.3398C16.2553 12.5059 17.0582 12.8383 17.1014 12.8383C17.1256 12.8383 17.2244 12.8781 17.321 12.9268C17.4177 12.9755 17.6819 13.091 17.9081 13.1835C18.1343 13.276 18.4531 13.4091 18.6165 13.4791C18.7799 13.5492 19.0575 13.6641 19.2335 13.7344C19.4094 13.8048 19.5945 13.8866 19.6448 13.9162C19.6951 13.9457 19.7928 13.9831 19.8619 13.9991C19.931 14.0151 19.9876 14.045 19.9876 14.0655C19.9876 14.1114 19.7114 14.4821 18.4335 16.1517C18.2411 16.4031 17.9377 16.8041 17.7591 17.0429C17.5807 17.2817 17.3818 17.5416 17.3171 17.6204C17.2526 17.6993 17.1997 17.7857 17.1997 17.8124C17.1997 17.8391 17.1735 17.8774 17.1415 17.8975C17.1094 17.9177 17.0502 17.9855 17.0099 18.0484C16.9696 18.1112 16.8878 18.2151 16.8282 18.2793C16.7686 18.3435 16.6928 18.4475 16.6597 18.5103C16.6267 18.5732 16.5445 18.6852 16.4769 18.7593C16.336 18.9138 16.1014 19.2172 16.0343 19.3317C16.0091 19.3746 15.9227 19.489 15.8422 19.586C15.5661 19.9185 15.4765 20.0366 15.4225 20.1393C15.3927 20.1958 15.3519 20.2421 15.3318 20.2421C15.2939 20.2421 15.1742 19.8588 15.0747 19.4194C15.0234 19.193 14.9597 18.9542 14.7483 18.1969C14.6897 17.9867 14.6668 17.957 14.5633 17.957C14.4239 17.957 14.0876 18.0475 14.0256 18.1018C14.0018 18.1227 13.9278 18.1398 13.8614 18.1398C13.795 18.1398 13.6224 18.1804 13.4778 18.2302C13.3333 18.2799 13.1707 18.3282 13.1164 18.3374C13.0622 18.3467 12.9871 18.3674 12.9493 18.3836C12.9116 18.3997 12.8397 18.4203 12.7894 18.4294C12.7391 18.4385 12.6671 18.4577 12.6294 18.4721C12.5917 18.4865 12.4786 18.5116 12.3781 18.5278C12.1679 18.5617 11.4096 18.7913 11.2782 18.8608C11.0965 18.9567 10.5409 19.1909 10.4948 19.1909C10.4684 19.1909 10.4213 19.2218 10.39 19.2595C10.3587 19.2972 10.3028 19.328 10.2656 19.328C10.1717 19.328 9.89198 19.4622 9.72302 19.5882C9.64523 19.6462 9.56978 19.6937 9.55538 19.6937C9.5063 19.6937 8.86006 20.0898 8.37909 20.4147C7.95693 20.6999 7.60466 20.9841 7.24781 21.3275C7.18904 21.3841 7.12505 21.4304 7.10559 21.4304C7.08612 21.4304 7.0305 21.4768 6.98196 21.5337C6.71999 21.8405 6.27988 22.3875 6.18413 22.5252L6.07435 22.6831L6.03427 22.5024C5.94602 22.1045 6.03884 20.7156 6.19158 20.1482C6.26904 19.8605 6.36881 19.4811 6.41324 19.3052C6.49536 18.9802 6.87524 18.125 6.96103 18.072C6.98685 18.056 7.00801 18.0138 7.00801 17.978C7.00801 17.9423 7.09018 17.8047 7.19064 17.6722C7.29105 17.5398 7.37331 17.4057 7.37345 17.3742C7.37354 17.3428 7.39146 17.3171 7.41326 17.3171C7.4479 17.3171 7.62486 17.0875 7.7621 16.8644C7.78724 16.8236 7.94971 16.6568 8.12311 16.4938C8.29655 16.3308 8.58269 16.0591 8.75901 15.8901C9.08698 15.5757 10.3697 14.6806 10.6725 14.5548C10.7651 14.5164 10.8539 14.4638 10.8699 14.4379C10.8859 14.4119 10.9644 14.3613 11.0444 14.3253C11.1244 14.2893 11.3138 14.1901 11.4654 14.1049C11.7572 13.9409 12.9305 13.4775 13.2333 13.4066C13.3807 13.3722 13.4327 13.2436 13.3674 13.0748C13.3414 13.0075 13.2962 12.8305 13.2669 12.6814C13.2376 12.5322 13.1838 12.3266 13.1473 12.2243C13.1109 12.1221 13.0617 11.9459 13.0381 11.8328Z" fill="#00418C"/>
<path d="M25.9868 8.43325C25.9868 8.94255 25.8303 9.41531 25.5628 9.80606C25.6104 9.87132 26.2245 10.0238 26.7253 10.0921C26.9012 10.1162 27.3434 10.1909 27.7079 10.2582C28.0724 10.3255 28.5557 10.4082 28.7819 10.4419C29.0081 10.4757 29.2961 10.5242 29.4217 10.5498C29.5474 10.5753 29.8456 10.6273 30.0844 10.6653C30.3232 10.7033 30.8065 10.7876 31.1584 10.8527C31.5104 10.9177 31.9937 10.9992 32.2325 11.0337C33.0255 11.1483 33.2356 11.2291 33.4783 11.5125C33.687 11.7564 33.7607 12.0264 33.7272 12.4255C33.6865 12.9107 33.5199 13.1384 33.024 13.3861C32.7586 13.5186 31.8842 13.4973 31.1834 13.3411C30.9458 13.2882 30.6168 13.2266 30.4522 13.2043C30.0472 13.1493 29.3541 13.0315 28.9647 12.9514C28.7888 12.9152 28.4906 12.8657 28.302 12.8414C28.1135 12.8171 27.8564 12.7752 27.7307 12.7483C27.5071 12.7004 26.9106 12.601 26.3553 12.5191C26.2021 12.4965 25.8717 12.4369 25.6213 12.3867C25.3707 12.3365 25.0539 12.2821 24.9172 12.2658C24.7805 12.2496 24.5144 12.2043 24.3259 12.1653C24.0109 12.1001 23.6492 12.0403 22.8634 11.9233C22.7 11.899 22.4121 11.8473 22.2236 11.8084C22.0351 11.7696 21.6752 11.7082 21.4238 11.672C21.1724 11.6358 20.8742 11.5851 20.7611 11.5591C20.5592 11.5129 20.1852 11.4501 19.2758 11.3099C19.0244 11.2711 18.7365 11.2174 18.6359 11.1905C18.5354 11.1636 18.2372 11.1131 17.9732 11.0781C17.7093 11.0432 17.3905 10.9934 17.2648 10.9675C17.0257 10.9183 16.4529 10.821 15.7567 10.7115C15.5304 10.6759 15.2528 10.6251 15.1397 10.5985C15.0266 10.572 14.7283 10.5214 14.477 10.4862C13.4956 10.3488 13.3245 10.2932 12.9294 9.98331C12.547 9.68355 12.4257 9.10774 12.6428 8.62366C12.7738 8.33167 12.8519 8.2415 13.1626 8.02427C13.4423 7.82862 13.8027 7.8017 14.477 7.92601C14.6781 7.96312 15.0579 8.025 15.321 8.06353C15.5841 8.1021 15.9131 8.16252 16.0522 8.19776C16.1913 8.233 16.4079 8.27523 16.5336 8.29159C16.6593 8.3079 17.0295 8.37179 17.3563 8.43349C17.683 8.49519 18.1355 8.57705 18.3617 8.61539C18.5879 8.65369 18.9684 8.72457 19.2072 8.77288C19.446 8.82119 19.7751 8.8806 19.9385 8.90492C20.3292 8.96305 20.6951 9.02817 20.9211 9.07973C21.103 9.12126 21.1652 9.13489 21.1813 8.97729C21.1414 8.80237 21.1203 8.62028 21.1203 8.43325C21.1203 7.08941 22.2097 6 23.5535 6C24.8974 6 25.9868 7.08941 25.9868 8.43325Z" fill="#8BB9E3"/>
<path fill-rule="evenodd" clip-rule="evenodd" d="M25.967 14.3643L20.7725 14.3872L20.6663 14.5243C20.6078 14.5997 20.5444 14.682 20.5254 14.7071C20.5063 14.7322 20.4237 14.8374 20.3418 14.9408C20.26 15.0442 20.0798 15.2768 19.9416 15.4578C19.8033 15.6387 19.5257 15.9992 19.3246 16.2588C19.1235 16.5185 18.8253 16.9092 18.6619 17.1271C18.4985 17.345 18.3166 17.5839 18.2577 17.658L18.1506 17.7927L18.2435 17.9502C18.3011 18.0478 18.3568 18.2696 18.3899 18.5326C18.4192 18.7663 18.4607 19.0808 18.482 19.2316C18.5033 19.3825 18.5428 19.7115 18.5697 19.9629C18.5967 20.2143 18.6277 20.4508 18.6386 20.4885C18.6496 20.5262 18.6806 20.8244 18.7076 21.1512C18.7346 21.4779 18.7865 21.9201 18.823 22.1338C18.8595 22.3474 18.9195 22.8616 18.9565 23.2763C18.9934 23.6911 19.0543 24.2566 19.0918 24.5331C19.1887 25.2488 19.2932 26.1632 19.3268 26.5898C19.3426 26.7909 19.3838 27.1096 19.4184 27.2982C19.453 27.4867 19.5023 27.898 19.5282 28.2122C19.5689 28.7092 19.6376 29.2889 19.7996 30.5041C19.8741 31.0627 19.7224 31.4714 19.317 31.8038C19.1057 31.9769 19.0859 31.9832 18.7027 31.9984C18.1592 32.0201 17.8047 31.8241 17.5902 31.3831C17.4751 31.1467 17.2957 30.0727 17.198 29.0349C17.1731 28.7709 17.1318 28.4316 17.1063 28.2808C17.0807 28.1299 17.0297 27.7289 16.9931 27.3896C16.894 26.4734 16.7543 25.3413 16.6743 24.8074C16.6592 24.7068 16.6276 24.4086 16.6039 24.1447C16.5803 23.8807 16.5392 23.5208 16.5126 23.3449C16.4529 22.9507 16.3534 22.1026 16.2612 21.2019C16.2228 20.8276 16.1811 20.5046 16.1684 20.484C16.1369 20.433 16.0114 20.4858 16.0103 20.5505C16.009 20.6357 15.6773 20.8856 15.5195 20.9202C15.4391 20.9379 15.2629 20.9385 15.128 20.9217C14.7245 20.8713 14.4694 20.4535 14.2777 19.5287C14.1635 18.9774 14.0783 18.7892 13.9556 18.8159C13.8922 18.8297 13.7117 18.8667 13.5545 18.8982L13.2686 18.9555L13.2946 19.185C13.3088 19.3112 13.3393 19.507 13.3622 19.6201C13.427 19.9392 13.5835 21.0555 13.6346 21.5625C13.6599 21.8138 13.7112 22.1635 13.7486 22.3394C13.786 22.5154 13.8363 22.8547 13.8604 23.0935C13.8845 23.3323 13.9575 23.8773 14.0227 24.3046C14.0877 24.732 14.1614 25.2667 14.1864 25.4929C14.2114 25.7191 14.2726 26.151 14.3224 26.4527C14.3722 26.7543 14.4325 27.1862 14.4564 27.4124C14.4803 27.6386 14.5528 28.1631 14.6174 28.5778C14.682 28.9926 14.7633 29.5684 14.7979 29.8575C14.8657 30.4231 15.0267 31.5827 15.0993 32.0284C15.1603 32.4034 15.2414 33.1846 15.2377 33.3626C15.2361 33.4429 15.2552 33.5213 15.2802 33.5367C15.3052 33.5521 15.3256 33.6424 15.3256 33.7373C15.3256 33.8322 15.3399 33.924 15.3573 33.9414C15.3747 33.9589 15.3958 34.0181 15.4042 34.0732C15.4265 34.219 15.5397 34.3762 15.802 34.6252C15.8394 34.6607 15.8677 34.6928 15.8934 34.7219C15.9147 34.7461 15.9343 34.7683 15.9556 34.7885C16.181 35.0021 16.6089 35.0019 21.5572 34.9996C22.1202 34.9993 22.7417 34.999 23.4281 34.999C28.092 34.999 30.5133 34.9835 30.5348 34.9533C30.5528 34.9282 30.6442 34.8686 30.7379 34.8209C30.9557 34.7102 31.1927 34.4732 31.3034 34.2555C31.3511 34.1617 31.4038 34.0746 31.4205 34.0618C31.4372 34.0491 31.464 33.8023 31.4801 33.5134C31.5169 32.8499 31.5484 32.5764 31.7819 30.8858C31.8062 30.7099 31.8462 30.3602 31.8708 30.1089C31.8953 29.8575 31.9554 29.3948 32.0043 29.0806C32.0532 28.7664 32.1057 28.3447 32.1209 28.1437C32.1362 27.9426 32.1682 27.6444 32.1921 27.481C32.2762 26.9066 32.4576 25.4894 32.4876 25.173C32.5042 24.997 32.5459 24.6988 32.5803 24.5103C32.6147 24.3218 32.664 23.931 32.6899 23.6419C32.7157 23.3529 32.7583 22.9724 32.7844 22.7964C32.8848 22.119 33.0541 20.7691 33.0824 20.4199C33.0987 20.2188 33.1396 19.9206 33.1733 19.7572C33.207 19.5938 33.2571 19.2031 33.2847 18.8889C33.3345 18.322 33.3597 18.1224 33.498 17.1979C33.6556 16.1445 33.6985 15.3538 33.61 15.1328C33.5053 14.8715 32.9922 14.4825 32.6241 14.3853C32.4459 14.3383 32.1177 14.3373 25.967 14.3643ZM23.7878 17.2874C23.8572 17.3387 23.9303 17.3811 23.9502 17.3815C24.0137 17.3829 24.1755 17.58 24.2871 17.792C24.432 18.0672 24.4555 19.1452 24.4616 25.7872L24.4619 26.0812C24.4663 30.8049 24.4667 31.299 24.2278 31.6082C24.1999 31.6443 24.1687 31.6779 24.1338 31.7155C24.1278 31.722 24.1216 31.7286 24.1154 31.7354C23.8359 32.0381 23.2132 32.1632 22.8209 31.9957C22.6309 31.9145 22.2724 31.5775 22.2724 31.48C22.2724 31.4422 22.2552 31.4114 22.234 31.4114C22.1073 31.4114 22.0934 30.9306 22.0665 25.63C22.0634 25.0013 22.0603 24.4243 22.0576 23.8944C22.0279 18.2023 22.0267 17.9658 22.1442 17.8425C22.1493 17.8371 22.1546 17.832 22.1602 17.8266C22.1721 17.8151 22.1851 17.8026 22.1992 17.7847L22.3638 17.5763C22.4787 17.431 22.7912 17.2062 22.9123 17.1819C23.1611 17.132 23.6587 17.1919 23.7878 17.2874ZM29.9107 17.3498C30.002 17.3901 30.1308 17.4907 30.197 17.5732C30.2338 17.6191 30.2734 17.6683 30.3059 17.7086C30.332 17.7408 30.3534 17.7673 30.3651 17.7815C30.6299 18.1039 30.6387 18.6125 30.4073 20.2143C30.3489 20.6179 30.3395 20.7018 30.2478 21.631C30.2094 22.0206 30.1569 22.4525 30.1312 22.5908C30.1055 22.729 30.0652 23.0478 30.0416 23.2992C29.9738 24.0203 29.8624 25.0085 29.8124 25.3329C29.7871 25.4963 29.7456 25.8562 29.7202 26.1327C29.6947 26.4092 29.643 26.872 29.6053 27.161C29.525 27.7774 29.4249 28.6286 29.3313 29.4919C29.2945 29.8312 29.2437 30.2117 29.2184 30.3374C29.1931 30.4631 29.1548 30.7014 29.1333 30.867C29.0461 31.5402 28.5088 32.0512 27.8885 32.0512C27.5178 32.0512 27.403 32.0042 27.104 31.7303C26.8299 31.4792 26.8119 31.4495 26.7343 31.1204C26.6686 30.8418 26.6619 30.7276 26.6997 30.5331C26.7255 30.4003 26.7692 30.0038 26.7967 29.6518C26.8243 29.2999 26.876 28.868 26.9116 28.6921C26.9472 28.5161 26.9977 28.1357 27.0237 27.8466C27.0722 27.308 27.1877 26.3015 27.257 25.8128C27.2784 25.662 27.3285 25.2095 27.3684 24.8074C27.4082 24.4052 27.4601 23.963 27.4838 23.8248C27.5073 23.6865 27.5479 23.3883 27.5739 23.1621C27.6298 22.6758 27.7407 21.7197 27.8047 21.174C27.8297 20.9603 27.8697 20.6827 27.8935 20.557C27.9173 20.4313 27.9597 20.0303 27.9876 19.6658C28.0447 18.9203 28.183 18.1686 28.307 17.9291C28.6185 17.3277 29.3014 17.0811 29.9107 17.3498Z" fill="#8BB9E3"/>
</svg>
