<svg width="40" height="40" viewBox="0 0 40 40" fill="none" xmlns="http://www.w3.org/2000/svg">
<path d="M19.2011 9.6001C18.991 9.60004 18.7829 9.64139 18.5888 9.72178C18.3946 9.80217 18.2182 9.92002 18.0696 10.0686C17.921 10.2172 17.8032 10.3936 17.7228 10.5877C17.6424 10.7819 17.6011 10.99 17.6011 11.2001V18.2761L14.2449 20.2142C13.8775 20.4265 13.6095 20.7759 13.4998 21.1858C13.39 21.5956 13.4475 22.0322 13.6596 22.3997C13.8717 22.7671 14.2211 23.0353 14.6309 23.1453C15.0406 23.2552 15.4773 23.1979 15.8449 22.986L20.0011 20.586C20.2439 20.445 20.4455 20.2429 20.5859 19.9997C20.7262 19.7565 20.8004 19.4809 20.8011 19.2001V11.2001C20.8012 10.99 20.7598 10.7819 20.6794 10.5877C20.5991 10.3936 20.4812 10.2172 20.3326 10.0686C20.184 9.92002 20.0076 9.80217 19.8135 9.72178C19.6193 9.64139 19.4113 9.60004 19.2011 9.6001V9.6001Z" fill="#00418C"/>
<path d="M19.2007 3.2002C16.0362 3.2002 12.9428 4.13858 10.3116 5.89668C7.68038 7.65478 5.62962 10.1536 4.41862 13.0773C3.20762 16.0009 2.89076 19.2179 3.50813 22.3216C4.12549 25.4253 5.64934 28.2763 7.88698 30.5139C10.1246 32.7515 12.9755 34.2754 16.0792 34.8928C19.1829 35.5101 22.4 35.1933 25.3236 33.9823C28.2472 32.7713 30.7461 30.7205 32.5042 28.0893C34.2623 25.4581 35.2007 22.3647 35.2007 19.2002C35.2007 17.099 34.7868 15.0185 33.9828 13.0773C33.1787 11.1361 32.0001 9.37222 30.5144 7.88649C29.0287 6.40075 27.2648 5.2222 25.3236 4.41812C23.3824 3.61405 21.3018 3.2002 19.2007 3.2002V3.2002ZM20.8007 19.2002C20.8 19.481 20.7258 19.7566 20.5854 19.9998C20.4451 20.243 20.2435 20.4451 20.0007 20.5861L15.8444 22.9861C15.4769 23.198 15.0402 23.2553 14.6304 23.1454C14.2207 23.0354 13.8713 22.7672 13.6592 22.3998C13.4471 22.0323 13.3896 21.5957 13.4993 21.1859C13.6091 20.776 13.8771 20.4266 14.2444 20.2143L17.6007 18.2762V11.2002C17.6007 10.7758 17.7693 10.3689 18.0693 10.0688C18.3694 9.76877 18.7763 9.6002 19.2007 9.6002C19.625 9.6002 20.032 9.76877 20.3321 10.0688C20.6321 10.3689 20.8007 10.7758 20.8007 11.2002V19.2002Z" fill="#8BB9E3"/>
</svg>
