<svg width="40" height="40" viewBox="0 0 40 40" fill="none" xmlns="http://www.w3.org/2000/svg">
<circle cx="20" cy="20" r="16" fill="#8BB9E3"/>
<path fill-rule="evenodd" clip-rule="evenodd" d="M28.733 19.5H26.6029L30.5 24L34.3971 19.5H31.9896C31.8813 16.902 30.9314 14.4043 29.2761 12.3873C27.5149 10.2412 25.064 8.77222 22.3411 8.2306C19.6182 7.68897 16.7917 8.10824 14.3432 9.41696C11.8948 10.7257 9.97588 12.8429 8.91345 15.4078C7.85102 17.9727 7.71081 20.8267 8.51672 23.4834C9.32263 26.1402 11.0248 28.4352 13.3332 29.9777C15.6415 31.5201 18.4133 32.2144 21.1762 31.9422C23.9391 31.6701 26.5222 30.4484 28.4853 28.4853C28.8353 28.1353 28.9024 27.104 28.3166 26.4295C27.7802 25.8119 26.6802 25.7664 26.1852 26.1853C24.7543 27.6162 22.8714 28.5068 20.8574 28.7051C18.8434 28.9035 16.823 28.3974 15.1403 27.2731C13.4576 26.1488 12.2169 24.4758 11.6294 22.5392C11.042 20.6026 11.1442 18.5223 11.9186 16.6526C12.693 14.7829 14.0918 13.2396 15.8766 12.2856C17.6613 11.3317 19.7217 11.026 21.7065 11.4209C23.6913 11.8157 25.4779 12.8865 26.7617 14.4508C27.9395 15.886 28.6274 17.655 28.733 19.5Z" fill="#00418C"/>
<path d="M17.3772 22.253H19.479V16.5687L17.3234 17.1928L17 16.4L20.0719 15H20.9701V22.253H23V23.4H17.3772V22.253Z" fill="#00418C"/>
</svg>
