<svg width="48" height="48" viewBox="0 0 48 48" fill="none" xmlns="http://www.w3.org/2000/svg">
<rect width="48" height="48" rx="8" fill="#3C3357"/>
<rect x="9.13477" y="23.0488" width="29.4147" height="3.55005" transform="rotate(0.508577 9.13477 23.0488)" fill="#197A41"/>
<path d="M12.3301 23.0303L41.7436 23.2914L41.7121 26.8413L12.2986 26.5802L12.3301 23.0303Z" fill="#7FE0A7"/>
<rect x="12.3027" y="26.0732" width="29.4147" height="0.50715" transform="rotate(0.508577 12.3027 26.0732)" fill="#197A41"/>
<path d="M12.3105 25.3125L41.7241 25.5736L41.7263 25.32L12.3128 25.0589L12.3105 25.3125Z" fill="#197A41"/>
<rect x="6.45312" y="26.5361" width="29.4147" height="3.81817" transform="rotate(0.508577 6.45312 26.5361)" fill="#197A41"/>
<rect x="9.25586" y="26.5527" width="29.4147" height="3.55005" transform="rotate(0.508577 9.25586 26.5527)" fill="#7FE0A7"/>
<path d="M9.22852 29.5967L38.642 29.8578L38.6375 30.3649L9.22401 30.1038L9.22852 29.5967Z" fill="#197A41"/>
<path d="M9.23828 28.582L38.6518 28.8431L38.6496 29.0967L9.23603 28.8356L9.23828 28.582Z" fill="#197A41"/>
<rect x="8.06055" y="30.0244" width="29.4147" height="3.50803" transform="rotate(0.508577 8.06055 30.0244)" fill="#197A41"/>
<rect x="11.2539" y="30.1211" width="29.4147" height="3.42983" transform="rotate(0.508577 11.2539 30.1211)" fill="#7FE0A7"/>
<rect x="11.2266" y="33.1641" width="29.4147" height="0.396614" transform="rotate(0.508577 11.2266 33.1641)" fill="#197A41"/>
<path d="M11.2344 32.1504L40.6479 32.4115L40.6457 32.665L11.2321 32.404L11.2344 32.1504Z" fill="#197A41"/>
<mask id="mask0_3118_21124" style="mask-type:alpha" maskUnits="userSpaceOnUse" x="12" y="21" width="30" height="3">
<path d="M14.0309 21.8131L15.0697 21.9608C23.4642 23.1547 31.9997 22.9294 40.3195 21.2944V21.2944L41.7519 22.4661V22.4661C32.4453 23.6076 23.0384 23.6779 13.7158 22.6755L12.3343 22.5269L14.0309 21.8131Z" fill="#76EDC5"/>
</mask>
<g mask="url(#mask0_3118_21124)">
<path d="M14.0309 21.8131L15.0697 21.9608C23.4642 23.1547 31.9997 22.9294 40.3195 21.2944V21.2944L41.7519 22.4661V22.4661C32.4453 23.6076 23.0384 23.6779 13.7158 22.6755L12.3343 22.5269L14.0309 21.8131Z" fill="#7FE0A7"/>
<path d="M12.0814 22.5216L26.2448 23.2757L40.9901 22.5246L40.2321 22.9583L26.2437 23.4009L10.8174 22.83L12.0814 22.5216Z" fill="#197A41"/>
<circle cx="40.4961" cy="20.9989" r="0.760725" transform="rotate(0.508577 40.4961 20.9989)" fill="#197A41"/>
<circle cx="14.1211" cy="21.2714" r="0.760725" transform="rotate(0.508577 14.1211 21.2714)" fill="#197A41"/>
<circle cx="41.2444" cy="22.2729" r="0.506691" transform="rotate(0.508577 41.2444 22.2729)" fill="#197A41"/>
<circle cx="12.842" cy="22.5278" r="0.506691" transform="rotate(0.508577 12.842 22.5278)" fill="#197A41"/>
</g>
<rect x="24.5059" y="22.6318" width="4.56435" height="4.0572" transform="rotate(0.508577 24.5059 22.6318)" fill="url(#paint0_linear_3118_21124)"/>
<rect x="20.9199" y="26.6572" width="4.56435" height="3.55005" transform="rotate(0.508577 20.9199 26.6572)" fill="url(#paint1_linear_3118_21124)"/>
<rect x="23.4238" y="30.2295" width="4.56435" height="3.43983" transform="rotate(0.508577 23.4238 30.2295)" fill="url(#paint2_linear_3118_21124)"/>
<path d="M25.9534 18.319C33.4408 20.319 36.134 19.3382 38.3431 19.321C38.4746 19.32 38.5534 19.1689 38.4752 19.0633L32.8043 11.4002C32.7699 11.3536 32.7145 11.3296 32.6572 11.3382C31.1249 11.5676 26.6764 12.1718 20.6049 10.5501C14.8778 9.02028 11.5192 10.3651 8.26511 12.1917C8.1901 12.2338 8.16335 12.3287 8.20516 12.4038L12.5938 20.2922C12.6402 20.3757 12.7493 20.3989 12.8252 20.3408C15.1007 18.6014 18.3719 16.2939 25.9534 18.319Z" fill="#54D78B"/>
<mask id="mask1_3118_21124" style="mask-type:alpha" maskUnits="userSpaceOnUse" x="8" y="9" width="31" height="12">
<path d="M25.9531 18.3187C33.4407 20.3186 36.1339 19.3378 38.3431 19.3207C38.4746 19.3197 38.5533 19.1686 38.4751 19.063L32.8042 11.4002C32.7697 11.3537 32.7144 11.3297 32.657 11.3383C31.1247 11.5677 26.6761 12.1719 20.6045 10.5502C14.8773 9.02044 11.5187 10.3652 8.2645 12.1916C8.18948 12.2337 8.16273 12.3286 8.20454 12.4038L12.5932 20.2918C12.6397 20.3752 12.7488 20.3984 12.8247 20.3404C15.1003 18.6011 18.3714 16.2937 25.9531 18.3187Z" fill="#67D39D"/>
</mask>
<g mask="url(#mask1_3118_21124)">
<ellipse cx="2.38567" cy="1.90824" rx="2.38567" ry="1.90824" transform="matrix(-0.818702 0.57439 0.574141 0.818636 10.373 9.57031)" fill="#A9EBC5"/>
<path d="M19.0424 14.5485C19.5157 15.8568 21.2036 16.1673 23.2926 16.5067C25.3815 16.8461 27.7282 16.5392 27.176 14.9102C26.3578 13.0455 24.4521 12.318 22.3632 11.9786C20.2743 11.6392 18.5692 13.2402 19.0424 14.5485Z" fill="#A9EBC5"/>
<path opacity="0.4" d="M20.9045 14.4359C21.1646 15.1551 22.0927 15.3259 23.2412 15.5125C24.3897 15.6991 25.6799 15.5303 25.3763 14.6347C24.9264 13.6095 23.8787 13.2096 22.7302 13.023C21.5817 12.8363 20.6443 13.7166 20.9045 14.4359Z" fill="#A9EBC5"/>
<ellipse cx="2.38545" cy="1.90842" rx="2.38545" ry="1.90842" transform="matrix(-0.981163 0.193588 0.193266 0.981066 15.4785 16.1748)" fill="#A9EBC5"/>
<ellipse cx="2.38539" cy="1.90845" rx="2.38539" ry="1.90845" transform="matrix(-0.964787 -0.263029 -0.263259 0.964726 35.0137 10.709)" fill="#A9EBC5"/>
<ellipse cx="2.3854" cy="1.90846" rx="2.3854" ry="1.90846" transform="matrix(-1.00002 -0.00764572 -0.00793708 0.99992 39.2109 16.6709)" fill="#A9EBC5"/>
</g>
<defs>
<linearGradient id="paint0_linear_3118_21124" x1="26.788" y1="22.6318" x2="26.788" y2="26.689" gradientUnits="userSpaceOnUse">
<stop stop-color="#FFF9D8" stop-opacity="0"/>
<stop offset="0.203125" stop-color="#FFF9D8"/>
</linearGradient>
<linearGradient id="paint1_linear_3118_21124" x1="23.2021" y1="26.6572" x2="23.2021" y2="30.2073" gradientUnits="userSpaceOnUse">
<stop stop-color="#FFF9D8" stop-opacity="0"/>
<stop offset="0.130208" stop-color="#FFF9D8"/>
</linearGradient>
<linearGradient id="paint2_linear_3118_21124" x1="25.706" y1="30.2295" x2="25.706" y2="33.6693" gradientUnits="userSpaceOnUse">
<stop stop-color="#FFF9D8" stop-opacity="0"/>
<stop offset="0.114583" stop-color="#FFF9D8"/>
</linearGradient>
</defs>
</svg>
