<svg width="48" height="48" viewBox="0 0 48 48" fill="none" xmlns="http://www.w3.org/2000/svg">
<rect width="48" height="48" rx="8" fill="#3C3357"/>
<path d="M23.9997 16.9732C22.891 16.9732 21.8175 17.1067 20.7937 17.3569C19.9619 17.5603 19.1615 17.8411 18.4007 18.191L16.1758 13.7412C17.2659 13.228 18.4161 12.8186 19.6128 12.526C21.0204 12.1819 22.4903 12 23.9997 12C25.5092 12 26.9791 12.1819 28.3867 12.526C29.5834 12.8186 30.7336 13.228 31.8237 13.7412L29.5988 18.191C28.838 17.8411 28.0376 17.5603 27.2057 17.3569C26.182 17.1067 25.1085 16.9732 23.9997 16.9732Z" fill="#C42742"/>
<path d="M30.4317 18.6103C31.1802 19.0206 31.8839 19.5005 32.5338 20.0409C33.2404 20.6286 33.8829 21.2874 34.4496 22.0055C35.0279 22.7383 35.5271 23.5324 35.9354 24.3754C36.2482 25.0211 36.5079 25.6958 36.7091 26.3941L41.536 25.1874C41.2492 24.1534 40.8711 23.157 40.4111 22.2073C39.8438 21.0361 39.152 19.9365 38.3535 18.9246C37.571 17.9331 36.6857 17.0256 35.7136 16.2172C34.7718 15.434 33.7482 14.7435 32.6569 14.1598L30.4317 18.6103Z" fill="#C42742"/>
<path d="M41.7613 26.0922L36.9341 27.299C37.1116 28.1454 37.2053 29.0236 37.2053 29.9256C37.2053 30.9998 37.0725 32.0402 36.8233 33.0334C36.5615 34.0767 36.1703 35.0713 35.6664 36H41.1074C41.3164 35.4277 41.4969 34.8417 41.6469 34.2437C41.9945 32.8583 42.1784 31.4114 42.1784 29.9256C42.1784 28.6122 42.0347 27.3293 41.7613 26.0922Z" fill="#C42742"/>
<path d="M16.1758 13.7412C15.0845 14.3249 13.2276 15.434 12.2859 16.2172C11.3138 17.0256 10.4284 17.9331 9.64596 18.9246C8.84743 19.9365 8.1557 21.0361 7.58837 22.2073C7.06633 23.285 6.64983 24.4228 6.35256 25.6075C6.00491 26.993 5.82104 28.4398 5.82104 29.9256C5.82104 31.4114 6.00491 32.8583 6.35256 34.2437C6.50261 34.8417 6.68302 35.4277 6.89202 36H12.333C11.8292 35.0713 11.438 34.0767 11.1762 33.0334C10.927 32.0402 10.7942 30.9998 10.7942 29.9256C10.7942 28.8514 10.927 27.811 11.1762 26.8178C11.3894 25.968 11.6884 25.1508 12.0641 24.3754C12.4724 23.5324 12.9715 22.7383 13.5498 22.0055C14.1166 21.2874 14.759 20.6286 15.4657 20.0409C16.1156 19.5005 17.6522 18.6014 18.4007 18.191L16.1758 13.7412Z" fill="#C42742"/>
<path d="M24 16.9732C22.8912 16.9732 21.8177 17.1067 20.794 17.3569C19.9622 17.5603 19.1618 17.8411 18.4009 18.191L16.176 13.7412C17.2662 13.228 18.4163 12.8186 19.613 12.526C21.0206 12.1819 22.4905 12 24 12C25.5095 12 26.9793 12.1819 28.3869 12.526C29.5837 12.8186 31.567 13.6466 32.6572 14.1598L30.432 18.6103C29.6711 18.2603 28.0378 17.5603 27.206 17.3569C26.1822 17.1067 25.1088 16.9732 24 16.9732Z" fill="#FF8933"/>
<path d="M30.432 18.6103C31.1805 19.0207 31.8842 19.5005 32.534 20.0409C33.2407 20.6286 33.8831 21.2874 34.4499 22.0055C35.0282 22.7383 35.5273 23.5324 35.9357 24.3754C36.2485 25.0211 36.5081 25.6958 36.7094 26.3941L41.5362 25.1874C41.2495 24.1534 40.8714 23.157 40.4113 22.2073C39.844 21.0361 39.1523 19.9365 38.3538 18.9246C37.5713 17.9331 36.6859 17.0256 35.7138 16.2172C34.7721 15.434 33.7484 14.7435 32.6572 14.1598L30.432 18.6103Z" fill="#FF8933"/>
<path d="M41.7615 26.0922L36.9343 27.299C37.1119 28.1454 37.2055 29.0236 37.2055 29.9256C37.2055 30.9998 37.0727 32.0402 36.8235 33.0334C36.5617 34.0767 36.1705 35.0713 35.6667 36H41.1077C41.3167 35.4277 41.4971 34.8417 41.6472 34.2437C41.9948 32.8583 42.1787 31.4114 42.1787 29.9256C42.1787 28.6122 42.035 27.3293 41.7615 26.0922Z" fill="#FF8933"/>
<path d="M32.6571 14.1597L30.4319 18.6101C31.1804 19.0205 31.8841 19.5004 32.534 20.0408C33.2407 20.6285 33.8831 21.2873 34.4498 22.0054C35.0282 22.7382 35.5273 23.5323 35.9356 24.3752C36.3833 25.2994 36.7658 26.4958 36.9343 27.2988L41.7615 26.092C41.5193 24.9964 40.9064 23.1785 40.4113 22.2072C39.844 21.036 39.1523 19.9363 38.3537 18.9245C37.5713 17.933 36.6859 17.0254 35.7138 16.217C34.7721 15.4339 33.7484 14.7434 32.6571 14.1597Z" fill="#99E55C"/>
<path d="M41.7615 26.092L36.9343 27.2988C37.1119 28.1452 37.2055 29.0234 37.2055 29.9255C37.2055 30.9997 37.0727 32.0401 36.8235 33.0332C36.5617 34.0765 36.1706 35.0711 35.6667 35.9998H41.1077C41.3167 35.4275 41.4971 34.8416 41.6471 34.2436C41.9948 32.8581 42.1787 31.4113 42.1787 29.9255C42.1787 28.612 42.035 27.3291 41.7615 26.092Z" fill="#99E55C"/>
<path d="M36.8238 26.8173C37.073 27.8105 37.2058 28.8509 37.2058 29.9251C37.2058 30.9992 37.073 32.0396 36.8238 33.0328C36.562 34.0763 36.1707 35.071 35.6667 35.9998H41.1078C41.3169 35.4274 41.4973 34.8413 41.6474 34.2432C41.995 32.8577 42.1789 31.4109 42.1789 29.9251C42.1789 28.4392 41.995 26.9924 41.6474 25.6069L36.8238 26.8173Z" fill="#00B24A"/>
<path d="M13.0454 29.5371C23.2454 27.9209 33.7854 20.8648 37.1854 16.1909" stroke="#3C3357" stroke-width="2.72"/>
<path d="M13.0454 29.5366C22.9998 29 35.4998 19.5 38.4998 14.5" stroke="#58DDC8" stroke-width="1.7"/>
<path d="M41.0973 11.9998L40.2455 17.1361L36.0112 13.4057L41.0973 11.9998Z" fill="#58DDC8"/>
<g opacity="0.65">
<path d="M14.7655 33.7803V36.1603H18.1655V33.7803H14.7655Z" fill="#5A5370"/>
<path d="M19.7522 32.4199V36.1599H23.1522V32.4199H19.7522Z" fill="#8177A1"/>
<path d="M24.7389 30.04V36.16H28.1389V30.04H24.7389Z" fill="#9085B3"/>
<path d="M29.7256 28V36.16H33.1256V28H29.7256Z" fill="#B6A9E3"/>
</g>
</svg>
