<svg width="20" height="19" viewBox="0 0 20 19" fill="none" xmlns="http://www.w3.org/2000/svg">
<path fill-rule="evenodd" clip-rule="evenodd" d="M17.8145 15.6772L10.896 2.89522C10.5672 2.28763 9.69527 2.28763 9.3664 2.89522L2.44793 15.6772C2.1343 16.2567 2.55386 16.9609 3.21275 16.9609H17.0497C17.7086 16.9609 18.1281 16.2567 17.8145 15.6772ZM12.4257 2.06728C11.4391 0.244499 8.82337 0.244501 7.83676 2.06728L0.918297 14.8493C-0.0226137 16.5876 1.23609 18.7002 3.21275 18.7002H17.0497C19.0263 18.7002 20.285 16.5876 19.3441 14.8493L12.4257 2.06728Z" fill="#C5B0FF"/>
<line x1="10.0009" y1="11.6123" x2="10.0009" y2="7.52465" stroke="#C5B0FF" stroke-width="2" stroke-linecap="round"/>
<circle cx="10.1309" cy="14.352" r="0.869665" transform="rotate(-180 10.1309 14.352)" fill="#C5B0FF"/>
</svg>
