<svg width="19" height="29" viewBox="0 0 19 29" fill="none" xmlns="http://www.w3.org/2000/svg">
<g id="Group 11792">
<path id="Path 40768" fill-rule="evenodd" clip-rule="evenodd" d="M9.80069 28.9021C8.73998 28.9021 7.98072 28.2952 7.50741 27.6464L7.47161 27.6102H12.1153L12.0794 27.6464C11.6097 28.3391 10.6677 28.9021 9.80071 28.9021H9.80069Z" fill="#4D4D4D"/>
<g id="Path 40769" style="mix-blend-mode:soft-light">
<path fill-rule="evenodd" clip-rule="evenodd" d="M12.1156 27.6101L12.0798 27.6466C11.6093 28.3392 10.666 28.9022 9.79771 28.9022C9.00366 28.9022 8.37856 28.5629 7.91536 28.121C8.20748 28.2395 8.60446 28.3868 9.03775 28.3346C9.4507 28.285 9.76892 27.9528 9.86895 27.6102L12.1156 27.6101Z" fill="#58595B"/>
</g>
<path id="Path 40770" fill-rule="evenodd" clip-rule="evenodd" d="M18.9633 9.36754C18.9633 11.7729 18.036 13.9615 16.519 15.5957C15.4184 16.7815 14.7071 18.2748 14.4844 19.8771L14.4513 20.1172C14.3921 20.5446 14.0267 20.8625 13.5954 20.8625H6.00629C5.57458 20.8625 5.20925 20.5446 5.14997 20.1172L5.11139 19.8373C5.01849 19.1694 4.83762 18.5218 4.57805 17.9083C4.21975 17.0588 3.71046 16.2739 3.07601 15.5887C1.61914 14.0158 0.707634 11.9313 0.641656 9.6345C0.491097 4.3677 4.84759 0.0353907 10.1147 0.212808C10.9238 0.240167 11.7059 0.372021 12.4487 0.595868C16.2179 1.73183 18.9632 5.22919 18.9632 9.36754H18.9633Z" fill="url(#paint0_linear_2957_2920)"/>
<path id="Path 40771" fill-rule="evenodd" clip-rule="evenodd" d="M7.60248 13.2426H6.1145C5.49476 13.2121 5.13374 12.6843 5.13374 12.0633C5.13374 11.2995 5.65707 10.9781 6.26692 10.9781C6.28238 10.9781 6.29795 10.9784 6.31337 10.979C6.98689 11.0073 7.46243 11.6188 7.51732 12.2108L7.60248 13.2426ZM13.2 13.2426H11.926L12.0108 12.2151C12.066 11.6202 12.4231 11.0073 13.0964 10.979C13.7263 10.9527 14.2499 11.4392 14.2762 12.0633C14.3023 12.6838 13.8197 13.2121 13.1999 13.2426L13.2 13.2426ZM15.116 12.0276C15.0714 10.9676 14.3698 10.3954 13.3098 10.3954C13.2817 10.3954 13.2535 10.396 13.2252 10.3972C12.2193 10.4394 11.4269 10.8086 11.2617 12.1397L11.1708 13.2407L8.327 13.2422L8.23574 12.137C8.13061 11.003 7.51824 10.4394 6.51236 10.3972C5.41374 10.3496 4.52608 10.9368 4.48029 12.0249C4.45822 12.5507 4.64269 13.0543 4.99976 13.4426C5.35684 13.8312 5.65688 13.9283 6.18277 13.9505L7.67177 13.9508L8.24224 20.9964L8.96103 20.9274L8.39629 13.9508L11.1015 13.9493L10.4493 20.9274L11.2866 20.9964L11.8571 13.9508H13.2132L13.2275 13.9505C13.7533 13.9283 14.2396 13.8338 14.5966 13.4453C14.9537 13.0569 15.1382 12.5534 15.116 12.0276L15.116 12.0276Z" fill="url(#paint1_linear_2957_2920)"/>
<g id="Path 40772" style="mix-blend-mode:soft-light">
<path fill-rule="evenodd" clip-rule="evenodd" d="M18.9632 9.36371C18.9632 11.7699 18.036 13.9592 16.5192 15.594C15.4186 16.7801 14.7075 18.2739 14.4849 19.8768L14.4517 20.117C14.3924 20.5445 14.0271 20.8626 13.5958 20.8626H6.00745C5.57579 20.8626 5.21045 20.5445 5.15121 20.117L5.11259 19.837C5.0197 19.1689 4.83894 18.5211 4.57935 17.9073C4.57935 17.9073 4.97676 18.2759 5.06506 18.3642C5.29396 18.5935 5.63172 18.7724 5.9303 18.8952C6.46646 19.1158 7.0989 19.287 7.67864 19.2982C8.41381 19.3127 9.11369 19.1407 9.8165 18.9234C11.2318 18.4859 11.9431 17.1617 12.7464 15.9862C13.3666 15.0786 14.7687 14.1133 15.3218 13.385C17.3361 10.7328 16.7855 8.07314 16.6861 7.32304C16.3672 4.91843 15.0102 2.05763 12.4493 0.589115C16.2181 1.72543 18.9632 5.22403 18.9632 9.3637V9.36371Z" fill="#231F20"/>
</g>
<path id="Path 40773" fill-rule="evenodd" clip-rule="evenodd" d="M13.8241 22.5351C13.8243 22.4832 13.8463 22.4279 13.9006 22.3661C14.0762 22.1662 14.2135 21.993 14.2135 21.7096C14.2135 21.2441 13.8332 20.863 13.3684 20.863H6.24862C5.78381 20.863 5.40358 21.2441 5.40358 21.7096C5.40358 21.9707 5.52663 22.2103 5.7266 22.3743C5.83442 22.4626 5.9719 22.4911 5.8786 22.6342C5.81897 22.726 5.67431 22.7727 5.60124 22.8602C5.47407 23.0121 5.4036 23.2118 5.4036 23.4028C5.4036 23.6874 5.55208 23.9581 5.79013 24.113C5.91243 24.1926 5.99971 24.1945 5.88223 24.3356C5.80791 24.4249 5.68106 24.4592 5.60445 24.5496C5.47574 24.7014 5.4036 24.8967 5.4036 25.096C5.4036 25.4106 5.56757 25.6142 5.7919 25.8075C6.02425 26.0074 5.99395 26.3342 6.11612 26.604C6.2239 26.8417 6.38073 27.0564 6.57457 27.2312L6.59596 27.2503C6.86886 27.4962 7.22303 27.6323 7.59012 27.6323H12.0269C12.394 27.6323 12.7482 27.4962 13.0211 27.2503L13.0424 27.2312C13.2438 27.0497 13.4051 26.8252 13.5131 26.5765C13.6233 26.3225 13.6409 25.9846 13.8413 25.793C14.0519 25.5918 14.2135 25.4106 14.2135 25.096C14.2135 24.9096 14.1505 24.7265 14.0366 24.5793C13.9083 24.413 13.7219 24.2821 13.8795 24.0755C14.0501 23.8519 14.2135 23.7142 14.2135 23.4028C14.2135 23.2163 14.1505 23.0333 14.0366 22.886C13.9368 22.7567 13.8236 22.6542 13.8241 22.5351H13.8241Z" fill="#9457AD"/>
<g id="Path 40774" style="mix-blend-mode:soft-light">
<path fill-rule="evenodd" clip-rule="evenodd" d="M5.60606 24.532C5.61617 24.5283 5.62748 24.5245 5.63949 24.5209C5.62816 24.5244 5.6165 24.5278 5.60606 24.532Z" fill="#00B4FF"/>
</g>
<g id="Path 40775" style="mix-blend-mode:soft-light">
<path fill-rule="evenodd" clip-rule="evenodd" d="M8.52523 27.6323H7.58213C7.21673 27.6323 6.86362 27.4966 6.5916 27.2506L6.57033 27.2316C6.377 27.0566 6.22074 26.8422 6.11329 26.6041C5.99559 26.3427 6.02046 26.0281 5.81114 25.827C5.80449 25.8204 5.79737 25.8141 5.79034 25.8079C5.76251 25.7838 5.73542 25.7594 5.70943 25.7345C5.52885 25.5619 5.40366 25.3713 5.40366 25.0961C5.40366 24.8966 5.47541 24.7015 5.60366 24.5498C5.60754 24.5453 5.61161 24.5408 5.61605 24.5365C5.61688 24.5355 5.61781 24.5347 5.61909 24.5338C5.70943 24.4501 5.92967 24.3821 5.90185 24.2406C5.88632 24.1637 5.80708 24.1267 5.74919 24.0853C5.73191 24.0689 5.71109 24.0552 5.69252 24.0396C5.6904 24.0377 5.68817 24.0359 5.68596 24.0338C5.6842 24.0325 5.68245 24.0311 5.6806 24.0292C5.67487 24.0244 5.6696 24.019 5.66424 24.0132C5.65629 24.0057 5.6488 23.9982 5.64121 23.9901C5.62614 23.9745 5.61208 23.9585 5.5984 23.9417C5.59351 23.9358 5.58907 23.9306 5.58463 23.9248C5.57891 23.9177 5.57363 23.9105 5.56873 23.9034C5.55236 23.8812 5.53682 23.858 5.52314 23.8341C5.5187 23.8273 5.51519 23.8208 5.51113 23.814C5.50633 23.8041 5.50097 23.7944 5.49569 23.7845C5.48997 23.773 5.4846 23.7614 5.47886 23.7495C5.4785 23.7481 5.47803 23.7464 5.47711 23.745C5.47138 23.7326 5.46611 23.7196 5.4612 23.7067C5.45011 23.6778 5.4404 23.6481 5.43198 23.6181C5.42883 23.6048 5.42533 23.5915 5.42274 23.5782C5.41969 23.5649 5.41737 23.552 5.41516 23.5385C5.4148 23.5364 5.41433 23.5341 5.41388 23.5324C5.41166 23.5187 5.40991 23.5048 5.40851 23.4909C5.40676 23.4769 5.40592 23.462 5.405 23.4474C5.40416 23.4322 5.40371 23.4176 5.40371 23.4029C5.40371 23.3788 5.40454 23.3553 5.40676 23.3312C5.40907 23.3071 5.41248 23.2832 5.41647 23.2592C5.4209 23.2353 5.42627 23.211 5.43246 23.1878C5.43911 23.1637 5.44623 23.14 5.45466 23.1168C5.45853 23.1053 5.46297 23.0937 5.46788 23.0827C5.49571 23.0142 5.53241 22.9483 5.57754 22.8891C5.58512 22.8793 5.59261 22.8694 5.60057 22.8602C5.61878 22.8385 5.64126 22.8192 5.66603 22.8009C5.67842 22.792 5.69081 22.7832 5.70458 22.7743C5.74341 22.7481 5.78466 22.7237 5.81913 22.6959C5.84216 22.6775 5.86204 22.6574 5.87711 22.6342C5.92528 22.5599 5.9116 22.5163 5.87222 22.4793C5.86473 22.4723 5.85678 22.466 5.8479 22.4594C5.81248 22.4331 5.7669 22.4083 5.72539 22.3744C5.52632 22.2103 5.40373 21.9704 5.40373 21.7097C5.40373 21.477 5.49841 21.2653 5.65106 21.1118C5.7365 21.0257 5.84078 20.9575 5.95673 20.9148C5.96958 20.9099 5.98235 20.9055 5.99566 20.9015C6.07491 20.8762 6.15895 20.8627 6.24568 20.8627H7.82463C7.8176 20.8627 7.81057 20.8627 7.80345 20.8633C7.34993 20.8749 6.98231 21.251 6.98231 21.7098C6.98231 21.9704 7.10482 22.2103 7.30436 22.3744C7.41189 22.4624 7.54863 22.4915 7.45562 22.6342C7.39598 22.7258 7.25211 22.7726 7.17916 22.8602C7.05313 23.0124 6.98231 23.212 6.98231 23.4029C6.98231 23.575 7.03714 23.7452 7.13488 23.8862C7.18379 23.9568 7.24314 24.0198 7.31074 24.0726C7.34578 24.1001 7.37813 24.1155 7.39793 24.157C7.41929 24.2016 7.42779 24.2521 7.42022 24.301C7.41181 24.3563 7.38157 24.4231 7.33007 24.4493C7.27441 24.4779 7.22531 24.4993 7.18269 24.5498C7.05398 24.7015 6.98233 24.8966 6.98233 25.096C6.98233 25.2602 7.03244 25.4155 7.12611 25.5495C7.17178 25.615 7.21745 25.6638 7.28162 25.7055C7.35587 25.7539 7.41699 25.8023 7.43594 25.8953C7.45323 25.9803 7.42855 26.0672 7.4131 26.1525C7.35217 26.4885 7.4425 26.8492 7.65442 27.1162C7.79644 27.2953 8.39031 27.6322 8.5253 27.6322L8.52523 27.6323Z" fill="#CFACCF"/>
</g>
<g id="Path 40776" style="mix-blend-mode:soft-light">
<path fill-rule="evenodd" clip-rule="evenodd" d="M13.8791 24.0755C13.7212 24.2823 13.9079 24.4129 14.0363 24.5795C14.1504 24.7267 14.2132 24.9098 14.2132 25.0958C14.2132 25.4106 14.0516 25.5919 13.8409 25.7933C13.6404 25.9847 13.6226 26.3224 13.5124 26.5767C13.4043 26.8254 13.2426 27.0498 13.0411 27.2313L13.0195 27.2505C12.7464 27.4964 12.3918 27.6324 12.0247 27.6324C11.7534 27.6324 11.4822 27.6324 11.2109 27.6324C10.8836 27.6324 10.2023 27.6322 9.87516 27.6322C9.87516 27.6322 10.538 27.3727 10.7203 27.1296C10.9035 26.8847 11.0363 26.6017 10.9475 26.1977C10.9038 25.9995 10.7494 25.909 10.9074 25.72C10.9852 25.6269 11.0898 25.5697 11.1561 25.4626C11.3261 25.1879 11.2912 24.8303 11.097 24.5795C10.9683 24.4129 10.7818 24.2823 10.9393 24.0755C11.1104 23.8521 11.2737 23.7143 11.2737 23.4028C11.2737 23.2162 11.2104 23.0332 11.0967 22.8858C10.9969 22.7569 10.8836 22.6542 10.884 22.535C10.8843 22.483 10.9062 22.4278 10.9609 22.3658C11.1362 22.1662 11.2737 21.9933 11.2737 21.7097C11.2737 21.2439 10.8931 20.8628 10.4277 20.8628H13.3677C13.8325 20.8628 14.2132 21.2439 14.2132 21.7097C14.2132 21.9933 14.0761 22.1662 13.9001 22.3658C13.8457 22.4278 13.8238 22.483 13.8238 22.535C13.8228 22.6542 13.9365 22.7569 14.0363 22.8858C14.1504 23.0332 14.2132 23.2162 14.2132 23.4028C14.2132 23.7143 14.0499 23.8521 13.8791 24.0755L13.8791 24.0755Z" fill="#1F2023"/>
</g>
<g id="Ellipse 695" style="mix-blend-mode:soft-light">
<path fill-rule="evenodd" clip-rule="evenodd" d="M3.2046 8.87695C1.93399 7.60634 2.34172 5.13855 4.11529 3.36498C5.88887 1.5914 8.35666 1.18367 9.62727 2.45429C10.8979 3.7249 10.4902 6.19269 8.71658 7.96626C6.94301 9.73983 4.47521 10.1476 3.2046 8.87695Z" fill="#E6E7E8"/>
</g>
<path id="Ellipse 696" fill-rule="evenodd" clip-rule="evenodd" d="M4.57472 4.70534C4.3739 4.46495 4.54958 3.98732 4.96711 3.63852C5.38463 3.28972 5.8859 3.20184 6.08672 3.44223C6.28754 3.68262 6.11186 4.16025 5.69433 4.50905C5.27681 4.85785 4.77554 4.94573 4.57472 4.70534Z" fill="#FEFBD6"/>
<path id="Path 40777" fill-rule="evenodd" clip-rule="evenodd" d="M6.55104 4.6324C6.64216 4.72551 6.582 4.92662 6.41676 5.08168C6.25152 5.23681 6.04365 5.28721 5.95264 5.19418C5.86151 5.10121 5.92167 4.89996 6.08692 4.74494C6.25225 4.58977 6.46002 4.53942 6.55104 4.6324Z" fill="#FEFBD6"/>
<g id="Path 40778" style="mix-blend-mode:soft-light">
<path fill-rule="evenodd" clip-rule="evenodd" d="M13.8176 22.5419C13.8176 22.579 13.8291 22.615 13.8487 22.6504C12.9696 22.7045 11.5134 22.7394 9.86585 22.7394C8.20413 22.7394 6.73727 22.7035 5.86084 22.6491C5.86353 22.6457 5.86613 22.6418 5.86883 22.6379C5.91728 22.5657 5.90346 22.5233 5.864 22.4874C5.8564 22.4805 5.84841 22.4744 5.8395 22.468C5.81685 22.4519 5.79021 22.436 5.76319 22.4182C6.6258 22.3603 8.14092 22.3218 9.86586 22.3218C11.5245 22.3218 12.9891 22.3574 13.8659 22.4118C13.8318 22.4584 13.8176 22.5012 13.8176 22.5419L13.8176 22.5419Z" fill="#231F20"/>
</g>
<g id="Path 40779" style="mix-blend-mode:soft-light">
<path fill-rule="evenodd" clip-rule="evenodd" d="M13.8887 24.3953C13.013 24.4504 11.5421 24.4868 9.87574 24.4868C8.1859 24.4868 6.69767 24.4495 5.82634 24.3929C5.87834 24.3523 5.91475 24.3055 5.90231 24.2449C5.89525 24.2095 5.87343 24.1825 5.84632 24.1606C6.72034 24.105 8.19873 24.0683 9.87576 24.0683C11.5118 24.0683 12.9592 24.1034 13.8404 24.1566C13.8021 24.2462 13.8342 24.3219 13.8888 24.3954L13.8887 24.3953Z" fill="#231F20"/>
</g>
<g id="Path 40780" style="mix-blend-mode:soft-light">
<path fill-rule="evenodd" clip-rule="evenodd" d="M13.8846 25.7496C13.8713 25.7627 13.8575 25.7757 13.8437 25.789C13.7814 25.8491 13.7366 25.924 13.7014 26.0056C12.8105 26.0562 11.4254 26.089 9.86995 26.089C8.24558 26.089 6.80721 26.0536 5.92331 25.9989C5.89394 25.9348 5.85527 25.8752 5.80149 25.8231C5.79481 25.816 5.78765 25.8097 5.78058 25.8034C5.76325 25.7886 5.74674 25.7737 5.73029 25.7581C6.58831 25.6966 8.12149 25.6554 9.86995 25.6554C11.5366 25.6554 13.0075 25.6927 13.8846 25.7496V25.7496Z" fill="#231F20"/>
</g>
<g id="Path 40781" style="mix-blend-mode:soft-light">
<path fill-rule="evenodd" clip-rule="evenodd" d="M12.946 27.3066C12.6844 27.5173 12.3593 27.6321 12.023 27.6321H7.5844C7.25122 27.6321 6.92872 27.5191 6.6675 27.3117C7.52257 27.2778 8.64289 27.2576 9.86939 27.2576C11.0368 27.2576 12.1082 27.2761 12.946 27.3066L12.946 27.3066Z" fill="#231F20"/>
</g>
</g>
<defs>
<linearGradient id="paint0_linear_2957_2920" x1="0.641429" y1="20.8655" x2="18.9784" y2="20.8655" gradientUnits="userSpaceOnUse">
<stop stop-color="#FFDE0B"/>
<stop offset="1" stop-color="#FFCE00"/>
</linearGradient>
<linearGradient id="paint1_linear_2957_2920" x1="15.1243" y1="20.9977" x2="15.1243" y2="10.3912" gradientUnits="userSpaceOnUse">
<stop offset="0.15" stop-color="#BA6C1A"/>
<stop offset="0.36" stop-color="#C67915"/>
<stop offset="0.74" stop-color="#E69B09"/>
<stop offset="1" stop-color="#FFB700"/>
</linearGradient>
</defs>
</svg>
