<svg width="89" height="88" viewBox="0 0 89 88" fill="none" xmlns="http://www.w3.org/2000/svg">
<g id="Error State">
<path id="Exclude" fill-rule="evenodd" clip-rule="evenodd" d="M5.31555 43.9907C5.31555 22.3405 22.867 4.78906 44.5179 4.78906C66.1689 4.78906 83.7203 22.3405 83.7203 43.9907C83.7203 65.6416 66.1689 83.1931 44.5179 83.1931C22.867 83.1931 5.31555 65.6416 5.31555 43.9907ZM44.5179 3.78906C22.3147 3.78906 4.31555 21.7882 4.31555 43.9907C4.31555 66.1939 22.3147 84.1931 44.5179 84.1931C66.7212 84.1931 84.7203 66.1939 84.7203 43.9907C84.7203 21.7882 66.7212 3.78906 44.5179 3.78906ZM81.4702 43.9907C81.4702 23.583 64.9256 7.03836 44.5179 7.03836C24.1094 7.03836 7.56548 23.583 7.56548 43.9907C7.56548 64.3992 24.1094 80.9431 44.5179 80.9431C64.9256 80.9431 81.4702 64.3992 81.4702 43.9907Z" fill="#FF453A"/>
<path id="Union" fill-rule="evenodd" clip-rule="evenodd" d="M40.7671 49.6101C40.7671 51.6815 42.4465 53.3609 44.5179 53.3609C46.5893 53.3609 48.2686 51.6815 48.2686 49.6101V26.5476C48.2686 24.4762 46.5893 22.7969 44.5179 22.7969C42.4465 22.7969 40.7671 24.4762 40.7671 26.5476V49.6101ZM40.3497 61.1354C40.3497 63.4375 42.2158 65.3036 44.5179 65.3036C46.82 65.3036 48.686 63.4375 48.686 61.1354C48.686 58.8341 46.82 56.968 44.5179 56.968C42.2158 56.968 40.3497 58.8341 40.3497 61.1354Z" fill="white"/>
</g>
</svg>
