<svg width="264" height="48" viewBox="0 0 264 48" fill="none" xmlns="http://www.w3.org/2000/svg">
<path d="M1.13778 20V6.90909H3.90554V17.718H9.51776V20H1.13778ZM15.5556 20.1918C14.5627 20.1918 13.7041 19.9808 12.9796 19.5589C12.2595 19.1328 11.7033 18.5405 11.3113 17.782C10.9193 17.0192 10.7232 16.1349 10.7232 15.1293C10.7232 14.1151 10.9193 13.2287 11.3113 12.4702C11.7033 11.7074 12.2595 11.1151 12.9796 10.6932C13.7041 10.267 14.5627 10.054 15.5556 10.054C16.5485 10.054 17.405 10.267 18.1252 10.6932C18.8497 11.1151 19.4079 11.7074 19.7999 12.4702C20.192 13.2287 20.388 14.1151 20.388 15.1293C20.388 16.1349 20.192 17.0192 19.7999 17.782C19.4079 18.5405 18.8497 19.1328 18.1252 19.5589C17.405 19.9808 16.5485 20.1918 15.5556 20.1918ZM15.5684 18.0824C16.0201 18.0824 16.3972 17.9545 16.6998 17.6989C17.0024 17.4389 17.2303 17.0852 17.3837 16.6378C17.5414 16.1903 17.6202 15.6811 17.6202 15.1101C17.6202 14.5391 17.5414 14.0298 17.3837 13.5824C17.2303 13.1349 17.0024 12.7812 16.6998 12.5213C16.3972 12.2614 16.0201 12.1314 15.5684 12.1314C15.1124 12.1314 14.7289 12.2614 14.4178 12.5213C14.111 12.7812 13.8788 13.1349 13.7211 13.5824C13.5677 14.0298 13.491 14.5391 13.491 15.1101C13.491 15.6811 13.5677 16.1903 13.7211 16.6378C13.8788 17.0852 14.111 17.4389 14.4178 17.6989C14.7289 17.9545 15.1124 18.0824 15.5684 18.0824ZM23.6693 20L20.9974 10.1818H23.7524L25.2737 16.7784H25.3632L26.9484 10.1818H29.6523L31.263 16.7401H31.3461L32.8419 10.1818H35.5905L32.925 20H30.0422L28.3547 13.8253H28.2332L26.5457 20H23.6693ZM41.0914 20.1918C40.0814 20.1918 39.2121 19.9872 38.4834 19.5781C37.759 19.1648 37.2008 18.581 36.8087 17.8267C36.4167 17.0682 36.2207 16.1712 36.2207 15.1357C36.2207 14.1257 36.4167 13.2393 36.8087 12.4766C37.2008 11.7138 37.7526 11.1193 38.4643 10.6932C39.1802 10.267 40.0197 10.054 40.9827 10.054C41.6305 10.054 42.2334 10.1584 42.7917 10.3672C43.3542 10.5717 43.8442 10.8807 44.2618 11.294C44.6837 11.7074 45.0118 12.2273 45.2462 12.8537C45.4806 13.4759 45.5978 14.2045 45.5978 15.0398V15.7876H37.3073V14.1001H43.0346C43.0346 13.7081 42.9493 13.3608 42.7789 13.0582C42.6084 12.7557 42.3719 12.5192 42.0694 12.3487C41.7711 12.174 41.4238 12.0866 41.0275 12.0866C40.6141 12.0866 40.2476 12.1825 39.928 12.3743C39.6127 12.5618 39.3655 12.8153 39.1866 13.1349C39.0076 13.4503 38.916 13.8018 38.9117 14.1896V15.794C38.9117 16.2798 39.0012 16.6996 39.1802 17.0533C39.3634 17.407 39.6212 17.6797 39.9536 17.8714C40.286 18.0632 40.6802 18.1591 41.1361 18.1591C41.4387 18.1591 41.7157 18.1165 41.9671 18.0312C42.2185 17.946 42.4337 17.8182 42.6127 17.6477C42.7917 17.4773 42.928 17.2685 43.0218 17.0213L45.5403 17.1875C45.4124 17.7926 45.1503 18.321 44.754 18.7727C44.362 19.2202 43.8549 19.5696 43.2327 19.821C42.6148 20.0682 41.9011 20.1918 41.0914 20.1918ZM47.1948 20V10.1818H49.8347V11.8949H49.937C50.1159 11.2855 50.4164 10.8253 50.8382 10.5142C51.2601 10.1989 51.7459 10.0412 52.2956 10.0412C52.432 10.0412 52.579 10.0497 52.7367 10.0668C52.8943 10.0838 53.0328 10.1072 53.1522 10.1371V12.5533C53.0243 12.5149 52.8475 12.4808 52.6216 12.451C52.3958 12.4212 52.1891 12.4062 52.0016 12.4062C51.601 12.4062 51.2431 12.4936 50.9277 12.6683C50.6166 12.8388 50.3695 13.0774 50.1862 13.3842C50.0073 13.6911 49.9178 14.0447 49.9178 14.4453V20H47.1948ZM58.366 20V10.1818H61.089V20H58.366ZM59.7339 8.91619C59.3291 8.91619 58.9818 8.78196 58.692 8.51349C58.4065 8.24077 58.2637 7.91477 58.2637 7.53551C58.2637 7.16051 58.4065 6.83878 58.692 6.57031C58.9818 6.29758 59.3291 6.16122 59.7339 6.16122C60.1387 6.16122 60.4839 6.29758 60.7694 6.57031C61.0592 6.83878 61.2041 7.16051 61.2041 7.53551C61.2041 7.91477 61.0592 8.24077 60.7694 8.51349C60.4839 8.78196 60.1387 8.91619 59.7339 8.91619ZM65.8133 14.3239V20H63.0903V10.1818H65.6855V11.9141H65.8005C66.0179 11.343 66.3822 10.8913 66.8936 10.5589C67.405 10.2223 68.025 10.054 68.7537 10.054C69.4355 10.054 70.03 10.2031 70.5371 10.5014C71.0442 10.7997 71.4383 11.2259 71.7196 11.7798C72.0008 12.3295 72.1415 12.9858 72.1415 13.7486V20H69.4184V14.2344C69.4227 13.6335 69.2693 13.1648 68.9582 12.8281C68.6471 12.4872 68.2189 12.3168 67.6734 12.3168C67.3069 12.3168 66.9831 12.3956 66.7018 12.5533C66.4248 12.7109 66.2075 12.9411 66.0498 13.2436C65.8964 13.5419 65.8176 13.902 65.8133 14.3239ZM79.3299 10.1818V12.2273H73.4172V10.1818H79.3299ZM74.7596 7.82955H77.4826V16.983C77.4826 17.2344 77.5209 17.4304 77.5976 17.571C77.6743 17.7074 77.7809 17.8033 77.9172 17.8587C78.0579 17.9141 78.2198 17.9418 78.403 17.9418C78.5309 17.9418 78.6587 17.9311 78.7866 17.9098C78.9144 17.8842 79.0124 17.8651 79.0806 17.8523L79.5089 19.8786C79.3725 19.9212 79.1807 19.9702 78.9336 20.0256C78.6864 20.0852 78.386 20.1214 78.0323 20.1342C77.376 20.1598 76.8008 20.0724 76.3064 19.8722C75.8164 19.6719 75.435 19.3608 75.1623 18.9389C74.8895 18.517 74.7553 17.9844 74.7596 17.3409V7.82955ZM85.2926 20.1918C84.2827 20.1918 83.4134 19.9872 82.6847 19.5781C81.9603 19.1648 81.402 18.581 81.01 17.8267C80.6179 17.0682 80.4219 16.1712 80.4219 15.1357C80.4219 14.1257 80.6179 13.2393 81.01 12.4766C81.402 11.7138 81.9539 11.1193 82.6655 10.6932C83.3814 10.267 84.2209 10.054 85.184 10.054C85.8317 10.054 86.4347 10.1584 86.9929 10.3672C87.5554 10.5717 88.0455 10.8807 88.4631 11.294C88.885 11.7074 89.2131 12.2273 89.4475 12.8537C89.6818 13.4759 89.799 14.2045 89.799 15.0398V15.7876H81.5085V14.1001H87.2358C87.2358 13.7081 87.1506 13.3608 86.9801 13.0582C86.8097 12.7557 86.5732 12.5192 86.2706 12.3487C85.9723 12.174 85.625 12.0866 85.2287 12.0866C84.8154 12.0866 84.4489 12.1825 84.1293 12.3743C83.8139 12.5618 83.5668 12.8153 83.3878 13.1349C83.2088 13.4503 83.1172 13.8018 83.113 14.1896V15.794C83.113 16.2798 83.2024 16.6996 83.3814 17.0533C83.5647 17.407 83.8225 17.6797 84.1549 17.8714C84.4872 18.0632 84.8814 18.1591 85.3374 18.1591C85.6399 18.1591 85.9169 18.1165 86.1683 18.0312C86.4198 17.946 86.635 17.8182 86.8139 17.6477C86.9929 17.4773 87.1293 17.2685 87.223 17.0213L89.7415 17.1875C89.6137 17.7926 89.3516 18.321 88.9553 18.7727C88.5632 19.2202 88.0561 19.5696 87.434 19.821C86.8161 20.0682 86.1023 20.1918 85.2926 20.1918ZM91.396 20V10.1818H94.0359V11.8949H94.1382C94.3172 11.2855 94.6176 10.8253 95.0395 10.5142C95.4614 10.1989 95.9472 10.0412 96.4969 10.0412C96.6332 10.0412 96.7803 10.0497 96.9379 10.0668C97.0956 10.0838 97.2341 10.1072 97.3534 10.1371V12.5533C97.2256 12.5149 97.0487 12.4808 96.8229 12.451C96.597 12.4212 96.3903 12.4062 96.2028 12.4062C95.8023 12.4062 95.4443 12.4936 95.129 12.6683C94.8179 12.8388 94.5707 13.0774 94.3875 13.3842C94.2085 13.6911 94.119 14.0447 94.119 14.4453V20H91.396ZM102.599 20.1918C101.589 20.1918 100.719 19.9872 99.9907 19.5781C99.2663 19.1648 98.708 18.581 98.316 17.8267C97.9239 17.0682 97.7279 16.1712 97.7279 15.1357C97.7279 14.1257 97.9239 13.2393 98.316 12.4766C98.708 11.7138 99.2599 11.1193 99.9715 10.6932C100.687 10.267 101.527 10.054 102.49 10.054C103.138 10.054 103.741 10.1584 104.299 10.3672C104.861 10.5717 105.351 10.8807 105.769 11.294C106.191 11.7074 106.519 12.2273 106.753 12.8537C106.988 13.4759 107.105 14.2045 107.105 15.0398V15.7876H98.8146V14.1001H104.542C104.542 13.7081 104.457 13.3608 104.286 13.0582C104.116 12.7557 103.879 12.5192 103.577 12.3487C103.278 12.174 102.931 12.0866 102.535 12.0866C102.121 12.0866 101.755 12.1825 101.435 12.3743C101.12 12.5618 100.873 12.8153 100.694 13.1349C100.515 13.4503 100.423 13.8018 100.419 14.1896V15.794C100.419 16.2798 100.508 16.6996 100.687 17.0533C100.871 17.407 101.128 17.6797 101.461 17.8714C101.793 18.0632 102.187 18.1591 102.643 18.1591C102.946 18.1591 103.223 18.1165 103.474 18.0312C103.726 17.946 103.941 17.8182 104.12 17.6477C104.299 17.4773 104.435 17.2685 104.529 17.0213L107.048 17.1875C106.92 17.7926 106.658 18.321 106.261 18.7727C105.869 19.2202 105.362 19.5696 104.74 19.821C104.122 20.0682 103.408 20.1918 102.599 20.1918ZM116.871 12.9815L114.378 13.1349C114.336 12.9219 114.244 12.7301 114.103 12.5597C113.963 12.3849 113.777 12.2464 113.547 12.1442C113.321 12.0376 113.051 11.9844 112.735 11.9844C112.314 11.9844 111.958 12.0739 111.668 12.2528C111.378 12.4276 111.233 12.6619 111.233 12.956C111.233 13.1903 111.327 13.3885 111.515 13.5504C111.702 13.7124 112.024 13.8423 112.48 13.9403L114.257 14.2983C115.211 14.4943 115.923 14.8097 116.392 15.2443C116.86 15.679 117.095 16.25 117.095 16.9574C117.095 17.6009 116.905 18.1655 116.526 18.6513C116.151 19.1371 115.635 19.5163 114.979 19.7891C114.327 20.0575 113.575 20.1918 112.723 20.1918C111.423 20.1918 110.387 19.9212 109.616 19.38C108.849 18.8345 108.399 18.093 108.267 17.1555L110.946 17.0149C111.027 17.4112 111.223 17.7138 111.534 17.9226C111.845 18.1271 112.243 18.2294 112.729 18.2294C113.206 18.2294 113.59 18.1378 113.88 17.9545C114.174 17.767 114.323 17.5263 114.327 17.2322C114.323 16.9851 114.218 16.7827 114.014 16.625C113.809 16.4631 113.494 16.3395 113.068 16.2543L111.368 15.9155C110.409 15.7237 109.695 15.3913 109.226 14.9183C108.762 14.4453 108.529 13.8423 108.529 13.1094C108.529 12.4787 108.7 11.9354 109.041 11.4794C109.386 11.0234 109.87 10.6719 110.492 10.4247C111.118 10.1776 111.851 10.054 112.691 10.054C113.931 10.054 114.907 10.3161 115.618 10.8402C116.334 11.3643 116.752 12.0781 116.871 12.9815ZM123.852 10.1818V12.2273H117.939V10.1818H123.852ZM119.281 7.82955H122.004V16.983C122.004 17.2344 122.043 17.4304 122.12 17.571C122.196 17.7074 122.303 17.8033 122.439 17.8587C122.58 17.9141 122.742 17.9418 122.925 17.9418C123.053 17.9418 123.181 17.9311 123.308 17.9098C123.436 17.8842 123.534 17.8651 123.602 17.8523L124.031 19.8786C123.894 19.9212 123.703 19.9702 123.455 20.0256C123.208 20.0852 122.908 20.1214 122.554 20.1342C121.898 20.1598 121.323 20.0724 120.828 19.8722C120.338 19.6719 119.957 19.3608 119.684 18.9389C119.411 18.517 119.277 17.9844 119.281 17.3409V7.82955ZM129.432 20V10.1818H132.071V11.8949H132.174C132.353 11.2855 132.653 10.8253 133.075 10.5142C133.497 10.1989 133.983 10.0412 134.532 10.0412C134.669 10.0412 134.816 10.0497 134.973 10.0668C135.131 10.0838 135.27 10.1072 135.389 10.1371V12.5533C135.261 12.5149 135.084 12.4808 134.858 12.451C134.633 12.4212 134.426 12.4062 134.238 12.4062C133.838 12.4062 133.48 12.4936 133.165 12.6683C132.853 12.8388 132.606 13.0774 132.423 13.3842C132.244 13.6911 132.155 14.0447 132.155 14.4453V20H129.432ZM139.135 20.1854C138.509 20.1854 137.951 20.0767 137.461 19.8594C136.97 19.6378 136.583 19.3118 136.297 18.8814C136.016 18.4467 135.875 17.9055 135.875 17.2578C135.875 16.7124 135.975 16.2543 136.176 15.8835C136.376 15.5128 136.649 15.2145 136.994 14.9886C137.339 14.7628 137.731 14.5923 138.17 14.4773C138.613 14.3622 139.078 14.2812 139.564 14.2344C140.135 14.1747 140.595 14.1193 140.944 14.0682C141.294 14.0128 141.547 13.9318 141.705 13.8253C141.863 13.7187 141.941 13.5611 141.941 13.3523V13.3139C141.941 12.9091 141.814 12.5959 141.558 12.3743C141.306 12.1527 140.948 12.0419 140.484 12.0419C139.994 12.0419 139.604 12.1506 139.314 12.3679C139.024 12.581 138.833 12.8494 138.739 13.1733L136.22 12.9688C136.348 12.3722 136.6 11.8565 136.975 11.4219C137.35 10.983 137.833 10.6463 138.426 10.4119C139.022 10.1733 139.713 10.054 140.497 10.054C141.042 10.054 141.564 10.1179 142.063 10.2457C142.566 10.3736 143.011 10.5717 143.399 10.8402C143.791 11.1087 144.1 11.4538 144.326 11.8757C144.551 12.2933 144.664 12.794 144.664 13.3778V20H142.082V18.6385H142.005C141.848 18.9453 141.637 19.2159 141.372 19.4503C141.108 19.6804 140.791 19.8615 140.42 19.9936C140.049 20.1214 139.621 20.1854 139.135 20.1854ZM139.915 18.3061C140.316 18.3061 140.669 18.2273 140.976 18.0696C141.283 17.9077 141.524 17.6903 141.698 17.4176C141.873 17.1449 141.961 16.8359 141.961 16.4908V15.4489C141.875 15.5043 141.758 15.5554 141.609 15.6023C141.464 15.6449 141.3 15.6854 141.117 15.7237C140.934 15.7578 140.75 15.7898 140.567 15.8196C140.384 15.8452 140.218 15.8686 140.069 15.8899C139.749 15.9368 139.47 16.0114 139.231 16.1136C138.993 16.2159 138.807 16.3544 138.675 16.5291C138.543 16.6996 138.477 16.9126 138.477 17.1683C138.477 17.5391 138.611 17.8224 138.88 18.0185C139.152 18.2102 139.497 18.3061 139.915 18.3061ZM151.819 10.1818V12.2273H145.907V10.1818H151.819ZM147.249 7.82955H149.972V16.983C149.972 17.2344 150.01 17.4304 150.087 17.571C150.164 17.7074 150.27 17.8033 150.407 17.8587C150.547 17.9141 150.709 17.9418 150.892 17.9418C151.02 17.9418 151.148 17.9311 151.276 17.9098C151.404 17.8842 151.502 17.8651 151.57 17.8523L151.998 19.8786C151.862 19.9212 151.67 19.9702 151.423 20.0256C151.176 20.0852 150.875 20.1214 150.522 20.1342C149.865 20.1598 149.29 20.0724 148.796 19.8722C148.306 19.6719 147.924 19.3608 147.652 18.9389C147.379 18.517 147.245 17.9844 147.249 17.3409V7.82955ZM157.782 20.1918C156.772 20.1918 155.903 19.9872 155.174 19.5781C154.45 19.1648 153.891 18.581 153.499 17.8267C153.107 17.0682 152.911 16.1712 152.911 15.1357C152.911 14.1257 153.107 13.2393 153.499 12.4766C153.891 11.7138 154.443 11.1193 155.155 10.6932C155.871 10.267 156.71 10.054 157.673 10.054C158.321 10.054 158.924 10.1584 159.482 10.3672C160.045 10.5717 160.535 10.8807 160.952 11.294C161.374 11.7074 161.702 12.2273 161.937 12.8537C162.171 13.4759 162.288 14.2045 162.288 15.0398V15.7876H153.998V14.1001H159.725C159.725 13.7081 159.64 13.3608 159.47 13.0582C159.299 12.7557 159.063 12.5192 158.76 12.3487C158.462 12.174 158.114 12.0866 157.718 12.0866C157.305 12.0866 156.938 12.1825 156.619 12.3743C156.303 12.5618 156.056 12.8153 155.877 13.1349C155.698 13.4503 155.607 13.8018 155.602 14.1896V15.794C155.602 16.2798 155.692 16.6996 155.871 17.0533C156.054 17.407 156.312 17.6797 156.644 17.8714C156.977 18.0632 157.371 18.1591 157.827 18.1591C158.129 18.1591 158.406 18.1165 158.658 18.0312C158.909 17.946 159.124 17.8182 159.303 17.6477C159.482 17.4773 159.619 17.2685 159.712 17.0213L162.231 17.1875C162.103 17.7926 161.841 18.321 161.445 18.7727C161.053 19.2202 160.546 19.5696 159.923 19.821C159.305 20.0682 158.592 20.1918 157.782 20.1918ZM172.054 12.9815L169.562 13.1349C169.519 12.9219 169.427 12.7301 169.287 12.5597C169.146 12.3849 168.961 12.2464 168.731 12.1442C168.505 12.0376 168.234 11.9844 167.919 11.9844C167.497 11.9844 167.141 12.0739 166.851 12.2528C166.562 12.4276 166.417 12.6619 166.417 12.956C166.417 13.1903 166.51 13.3885 166.698 13.5504C166.885 13.7124 167.207 13.8423 167.663 13.9403L169.44 14.2983C170.395 14.4943 171.106 14.8097 171.575 15.2443C172.044 15.679 172.278 16.25 172.278 16.9574C172.278 17.6009 172.089 18.1655 171.709 18.6513C171.334 19.1371 170.819 19.5163 170.162 19.7891C169.51 20.0575 168.758 20.1918 167.906 20.1918C166.606 20.1918 165.571 19.9212 164.799 19.38C164.032 18.8345 163.583 18.093 163.451 17.1555L166.129 17.0149C166.21 17.4112 166.406 17.7138 166.717 17.9226C167.028 18.1271 167.427 18.2294 167.912 18.2294C168.39 18.2294 168.773 18.1378 169.063 17.9545C169.357 17.767 169.506 17.5263 169.51 17.2322C169.506 16.9851 169.402 16.7827 169.197 16.625C168.993 16.4631 168.677 16.3395 168.251 16.2543L166.551 15.9155C165.592 15.7237 164.878 15.3913 164.41 14.9183C163.945 14.4453 163.713 13.8423 163.713 13.1094C163.713 12.4787 163.883 11.9354 164.224 11.4794C164.569 11.0234 165.053 10.6719 165.675 10.4247C166.302 10.1776 167.035 10.054 167.874 10.054C169.114 10.054 170.09 10.3161 170.802 10.8402C171.518 11.3643 171.935 12.0781 172.054 12.9815Z" fill="white"/>
<path d="M2.46591 32.8182V43H1.23295V32.8182H2.46591ZM8.09996 35.3636V36.358H4.14258V35.3636H8.09996ZM5.29599 33.5341H6.46928V40.8125C6.46928 41.1439 6.51734 41.3925 6.61346 41.5582C6.71289 41.7206 6.83884 41.83 6.9913 41.8864C7.14708 41.9394 7.31114 41.9659 7.48349 41.9659C7.61275 41.9659 7.71881 41.9593 7.80167 41.946C7.88453 41.9295 7.95082 41.9162 8.00053 41.9062L8.23917 42.9602C8.15962 42.9901 8.04859 43.0199 7.90607 43.0497C7.76355 43.0829 7.58292 43.0994 7.36417 43.0994C7.03273 43.0994 6.70792 43.0282 6.38974 42.8857C6.07487 42.7431 5.81303 42.526 5.60423 42.2344C5.39873 41.9427 5.29599 41.5748 5.29599 41.1307V33.5341ZM11.2955 32.8182V33.7131C11.2955 33.9848 11.2457 34.2749 11.1463 34.5831C11.0502 34.888 10.9077 35.1847 10.7188 35.473C10.5331 35.758 10.3078 36.0066 10.0426 36.2188L9.40625 35.7017C9.61506 35.4034 9.79569 35.0935 9.94815 34.772C10.1039 34.4472 10.1818 34.1009 10.1818 33.733V32.8182H11.2955ZM17.1744 37.0739L16.1204 37.3722C16.0541 37.1965 15.9563 37.0258 15.8271 36.8601C15.7011 36.6911 15.5288 36.5518 15.31 36.4425C15.0913 36.3331 14.8112 36.2784 14.4698 36.2784C14.0025 36.2784 13.613 36.3861 13.3015 36.6016C12.9933 36.8137 12.8391 37.0838 12.8391 37.4119C12.8391 37.7036 12.9452 37.9339 13.1573 38.103C13.3694 38.272 13.7009 38.4129 14.1516 38.5256L15.2852 38.804C15.9679 38.9697 16.4767 39.2232 16.8114 39.5646C17.1462 39.9027 17.3136 40.3385 17.3136 40.8722C17.3136 41.3097 17.1876 41.7008 16.9357 42.0455C16.6871 42.3902 16.3391 42.6619 15.8917 42.8608C15.4442 43.0597 14.9239 43.1591 14.3306 43.1591C13.5517 43.1591 12.9071 42.9901 12.3967 42.652C11.8862 42.3139 11.5631 41.8201 11.4272 41.1705L12.5408 40.892C12.6469 41.303 12.8474 41.6113 13.1424 41.8168C13.4407 42.0223 13.8301 42.125 14.3107 42.125C14.8576 42.125 15.2918 42.009 15.6133 41.777C15.9381 41.5417 16.1005 41.2599 16.1005 40.9318C16.1005 40.6667 16.0077 40.4446 15.8221 40.2656C15.6365 40.0833 15.3514 39.9474 14.967 39.858L13.6942 39.5597C12.9949 39.3939 12.4812 39.1371 12.1531 38.7891C11.8282 38.4377 11.6658 37.9986 11.6658 37.4716C11.6658 37.0407 11.7868 36.6596 12.0288 36.3281C12.274 35.9967 12.6071 35.7365 13.0281 35.5476C13.4523 35.3587 13.9329 35.2642 14.4698 35.2642C15.2255 35.2642 15.8188 35.4299 16.2496 35.7614C16.6838 36.0928 16.9921 36.5303 17.1744 37.0739ZM24.1905 32.8182V43H23.0172V32.8182H24.1905ZM29.4418 43.1591C28.7524 43.1591 28.1475 42.995 27.6271 42.6669C27.1101 42.3388 26.7057 41.8797 26.4141 41.2898C26.1257 40.6998 25.9815 40.0104 25.9815 39.2216C25.9815 38.4261 26.1257 37.7318 26.4141 37.1385C26.7057 36.5452 27.1101 36.0845 27.6271 35.7564C28.1475 35.4283 28.7524 35.2642 29.4418 35.2642C30.1312 35.2642 30.7344 35.4283 31.2514 35.7564C31.7718 36.0845 32.1761 36.5452 32.4645 37.1385C32.7562 37.7318 32.902 38.4261 32.902 39.2216C32.902 40.0104 32.7562 40.6998 32.4645 41.2898C32.1761 41.8797 31.7718 42.3388 31.2514 42.6669C30.7344 42.995 30.1312 43.1591 29.4418 43.1591ZM29.4418 42.1051C29.9654 42.1051 30.3963 41.9709 30.7344 41.7024C31.0724 41.4339 31.3227 41.081 31.4851 40.6435C31.6475 40.206 31.7287 39.732 31.7287 39.2216C31.7287 38.7112 31.6475 38.2356 31.4851 37.7947C31.3227 37.3539 31.0724 36.9976 30.7344 36.7259C30.3963 36.4541 29.9654 36.3182 29.4418 36.3182C28.9181 36.3182 28.4872 36.4541 28.1491 36.7259C27.8111 36.9976 27.5608 37.3539 27.3984 37.7947C27.236 38.2356 27.1548 38.7112 27.1548 39.2216C27.1548 39.732 27.236 40.206 27.3984 40.6435C27.5608 41.081 27.8111 41.4339 28.1491 41.7024C28.4872 41.9709 28.9181 42.1051 29.4418 42.1051ZM36.1634 43L33.8366 35.3636H35.0696L36.7202 41.2102H36.7997L38.4304 35.3636H39.6832L41.294 41.1903H41.3736L43.0241 35.3636H44.2571L41.9304 43H40.777L39.1065 37.1335H38.9872L37.3168 43H36.1634ZM48.7502 43.1591C48.0144 43.1591 47.3797 42.9967 46.8461 42.6719C46.3158 42.3438 45.9064 41.8864 45.6181 41.2997C45.333 40.7098 45.1905 40.0237 45.1905 39.2415C45.1905 38.4593 45.333 37.7699 45.6181 37.1733C45.9064 36.5734 46.3075 36.1061 46.8212 35.7713C47.3382 35.4332 47.9415 35.2642 48.6309 35.2642C49.0286 35.2642 49.4213 35.3305 49.8091 35.4631C50.1969 35.5956 50.5499 35.8111 50.8681 36.1094C51.1863 36.4044 51.4398 36.7955 51.6287 37.2827C51.8176 37.7699 51.9121 38.3698 51.9121 39.0824V39.5795H46.0257V38.5653H50.7189C50.7189 38.1345 50.6328 37.75 50.4604 37.4119C50.2914 37.0739 50.0494 36.8071 49.7346 36.6115C49.423 36.416 49.0551 36.3182 48.6309 36.3182C48.1635 36.3182 47.7592 36.4342 47.4178 36.6662C47.0797 36.8949 46.8195 37.1932 46.6373 37.5611C46.455 37.929 46.3638 38.3234 46.3638 38.7443V39.4205C46.3638 39.9972 46.4632 40.486 46.6621 40.8871C46.8643 41.2848 47.1444 41.5881 47.5023 41.7969C47.8603 42.0024 48.2762 42.1051 48.7502 42.1051C49.0584 42.1051 49.3368 42.062 49.5854 41.9759C49.8373 41.8864 50.0544 41.7538 50.2367 41.5781C50.419 41.3991 50.5598 41.1771 50.6593 40.9119L51.7928 41.2301C51.6735 41.6146 51.473 41.9527 51.1912 42.2443C50.9095 42.5327 50.5615 42.758 50.1472 42.9205C49.7329 43.0795 49.2672 43.1591 48.7502 43.1591ZM53.6969 43V35.3636H54.8304V36.517H54.91C55.0492 36.1392 55.3011 35.8326 55.6657 35.5973C56.0302 35.362 56.4412 35.2443 56.8986 35.2443C56.9848 35.2443 57.0925 35.246 57.2218 35.2493C57.351 35.2526 57.4488 35.2576 57.5151 35.2642V36.4574C57.4753 36.4474 57.3842 36.4325 57.2417 36.4126C57.1025 36.3894 56.955 36.3778 56.7992 36.3778C56.428 36.3778 56.0965 36.4557 55.8049 36.6115C55.5165 36.764 55.2878 36.9761 55.1188 37.2479C54.9531 37.5163 54.8702 37.8229 54.8702 38.1676V43H53.6969ZM66.1644 35.3636V36.358H62.207V35.3636H66.1644ZM63.3604 33.5341H64.5337V40.8125C64.5337 41.1439 64.5818 41.3925 64.6779 41.5582C64.7773 41.7206 64.9033 41.83 65.0558 41.8864C65.2115 41.9394 65.3756 41.9659 65.5479 41.9659C65.6772 41.9659 65.7833 41.9593 65.8661 41.946C65.949 41.9295 66.0153 41.9162 66.065 41.9062L66.3036 42.9602C66.2241 42.9901 66.113 43.0199 65.9705 43.0497C65.828 43.0829 65.6474 43.0994 65.4286 43.0994C65.0972 43.0994 64.7724 43.0282 64.4542 42.8857C64.1393 42.7431 63.8775 42.526 63.6687 42.2344C63.4632 41.9427 63.3604 41.5748 63.3604 41.1307V33.5341ZM69.2667 38.4062V43H68.0934V32.8182H69.2667V36.5568H69.3661C69.5451 36.1624 69.8136 35.8492 70.1715 35.6172C70.5328 35.3819 71.0134 35.2642 71.6133 35.2642C72.1336 35.2642 72.5894 35.3686 72.9805 35.5774C73.3716 35.7829 73.6748 36.0994 73.8903 36.527C74.109 36.9512 74.2184 37.4915 74.2184 38.1477V43H73.0451V38.2273C73.0451 37.6207 72.8877 37.1518 72.5728 36.8203C72.2612 36.4856 71.8287 36.3182 71.2752 36.3182C70.8907 36.3182 70.546 36.3994 70.2411 36.5618C69.9395 36.7242 69.7009 36.9612 69.5252 37.2727C69.3529 37.5843 69.2667 37.9621 69.2667 38.4062ZM78.612 43.179C78.1281 43.179 77.689 43.0878 77.2946 42.9055C76.9002 42.7199 76.5869 42.4531 76.3549 42.1051C76.1229 41.7538 76.0069 41.3295 76.0069 40.8324C76.0069 40.3949 76.0931 40.0402 76.2654 39.7685C76.4378 39.4934 76.6681 39.2779 76.9565 39.1222C77.2449 38.9664 77.563 38.8504 77.911 38.7741C78.2624 38.6946 78.6154 38.6316 78.97 38.5852C79.434 38.5256 79.8102 38.4808 80.0985 38.451C80.3902 38.4179 80.6023 38.3632 80.7349 38.2869C80.8708 38.2107 80.9387 38.0781 80.9387 37.8892V37.8494C80.9387 37.3589 80.8045 36.9777 80.536 36.706C80.2709 36.4342 79.8682 36.2983 79.3279 36.2983C78.7678 36.2983 78.3287 36.4209 78.0105 36.6662C77.6923 36.9115 77.4686 37.1733 77.3393 37.4517L76.2257 37.054C76.4245 36.59 76.6897 36.2287 77.0211 35.9702C77.3559 35.7083 77.7205 35.526 78.1149 35.4233C78.5126 35.3172 78.9037 35.2642 79.2882 35.2642C79.5334 35.2642 79.8152 35.294 80.1333 35.3537C80.4548 35.41 80.7647 35.5277 81.063 35.7067C81.3646 35.8857 81.6149 36.1558 81.8137 36.517C82.0126 36.8783 82.112 37.3622 82.112 37.9688V43H80.9387V41.9659H80.8791C80.7995 42.1316 80.667 42.3089 80.4814 42.4979C80.2958 42.6868 80.0488 42.8475 79.7406 42.9801C79.4324 43.1127 79.0562 43.179 78.612 43.179ZM78.791 42.125C79.255 42.125 79.6461 42.0339 79.9643 41.8516C80.2858 41.6693 80.5278 41.4339 80.6902 41.1456C80.8559 40.8572 80.9387 40.554 80.9387 40.2358V39.1619C80.889 39.2216 80.7797 39.2763 80.6106 39.326C80.4449 39.3724 80.2527 39.4138 80.0339 39.4503C79.8185 39.4834 79.608 39.5133 79.4025 39.5398C79.2003 39.563 79.0363 39.5829 78.9103 39.5994C78.6054 39.6392 78.3204 39.7038 78.0552 39.7933C77.7934 39.8795 77.5813 40.0104 77.4189 40.1861C77.2598 40.3584 77.1802 40.5937 77.1802 40.892C77.1802 41.2997 77.331 41.608 77.6326 41.8168C77.9376 42.0223 78.3237 42.125 78.791 42.125ZM87.5746 35.3636V36.358H83.6172V35.3636H87.5746ZM84.7706 33.5341H85.9439V40.8125C85.9439 41.1439 85.992 41.3925 86.0881 41.5582C86.1875 41.7206 86.3134 41.83 86.4659 41.8864C86.6217 41.9394 86.7857 41.9659 86.9581 41.9659C87.0874 41.9659 87.1934 41.9593 87.2763 41.946C87.3591 41.9295 87.4254 41.9162 87.4751 41.9062L87.7138 42.9602C87.6342 42.9901 87.5232 43.0199 87.3807 43.0497C87.2382 43.0829 87.0575 43.0994 86.8388 43.0994C86.5073 43.0994 86.1825 43.0282 85.8643 42.8857C85.5495 42.7431 85.2876 42.526 85.0788 42.2344C84.8733 41.9427 84.7706 41.5748 84.7706 41.1307V33.5341ZM95.0071 43L92.6804 35.3636H93.9134L95.5639 41.2102H95.6435L97.2741 35.3636H98.527L100.138 41.1903H100.217L101.868 35.3636H103.101L100.774 43H99.6207L97.9503 37.1335H97.831L96.1605 43H95.0071ZM105.825 38.4062V43H104.652V32.8182H105.825V36.5568H105.925C106.104 36.1624 106.372 35.8492 106.73 35.6172C107.091 35.3819 107.572 35.2642 108.172 35.2642C108.692 35.2642 109.148 35.3686 109.539 35.5774C109.93 35.7829 110.233 36.0994 110.449 36.527C110.668 36.9512 110.777 37.4915 110.777 38.1477V43H109.604V38.2273C109.604 37.6207 109.446 37.1518 109.131 36.8203C108.82 36.4856 108.387 36.3182 107.834 36.3182C107.449 36.3182 107.105 36.3994 106.8 36.5618C106.498 36.7242 106.259 36.9612 106.084 37.2727C105.911 37.5843 105.825 37.9621 105.825 38.4062ZM115.171 43.179C114.687 43.179 114.248 43.0878 113.853 42.9055C113.459 42.7199 113.146 42.4531 112.914 42.1051C112.682 41.7538 112.566 41.3295 112.566 40.8324C112.566 40.3949 112.652 40.0402 112.824 39.7685C112.996 39.4934 113.227 39.2779 113.515 39.1222C113.803 38.9664 114.122 38.8504 114.47 38.7741C114.821 38.6946 115.174 38.6316 115.529 38.5852C115.993 38.5256 116.369 38.4808 116.657 38.451C116.949 38.4179 117.161 38.3632 117.294 38.2869C117.429 38.2107 117.497 38.0781 117.497 37.8892V37.8494C117.497 37.3589 117.363 36.9777 117.095 36.706C116.829 36.4342 116.427 36.2983 115.887 36.2983C115.326 36.2983 114.887 36.4209 114.569 36.6662C114.251 36.9115 114.027 37.1733 113.898 37.4517L112.784 37.054C112.983 36.59 113.248 36.2287 113.58 35.9702C113.914 35.7083 114.279 35.526 114.673 35.4233C115.071 35.3172 115.462 35.2642 115.847 35.2642C116.092 35.2642 116.374 35.294 116.692 35.3537C117.013 35.41 117.323 35.5277 117.622 35.7067C117.923 35.8857 118.173 36.1558 118.372 36.517C118.571 36.8783 118.671 37.3622 118.671 37.9688V43H117.497V41.9659H117.438C117.358 42.1316 117.226 42.3089 117.04 42.4979C116.854 42.6868 116.607 42.8475 116.299 42.9801C115.991 43.1127 115.615 43.179 115.171 43.179ZM115.35 42.125C115.814 42.125 116.205 42.0339 116.523 41.8516C116.844 41.6693 117.086 41.4339 117.249 41.1456C117.414 40.8572 117.497 40.554 117.497 40.2358V39.1619C117.448 39.2216 117.338 39.2763 117.169 39.326C117.003 39.3724 116.811 39.4138 116.593 39.4503C116.377 39.4834 116.167 39.5133 115.961 39.5398C115.759 39.563 115.595 39.5829 115.469 39.5994C115.164 39.6392 114.879 39.7038 114.614 39.7933C114.352 39.8795 114.14 40.0104 113.977 40.1861C113.818 40.3584 113.739 40.5937 113.739 40.892C113.739 41.2997 113.89 41.608 114.191 41.8168C114.496 42.0223 114.882 42.125 115.35 42.125ZM124.133 35.3636V36.358H120.176V35.3636H124.133ZM121.329 33.5341H122.502V40.8125C122.502 41.1439 122.551 41.3925 122.647 41.5582C122.746 41.7206 122.872 41.83 123.025 41.8864C123.18 41.9394 123.344 41.9659 123.517 41.9659C123.646 41.9659 123.752 41.9593 123.835 41.946C123.918 41.9295 123.984 41.9162 124.034 41.9062L124.272 42.9602C124.193 42.9901 124.082 43.0199 123.939 43.0497C123.797 43.0829 123.616 43.0994 123.397 43.0994C123.066 43.0994 122.741 43.0282 122.423 42.8857C122.108 42.7431 121.846 42.526 121.637 42.2344C121.432 41.9427 121.329 41.5748 121.329 41.1307V33.5341ZM130.591 45.8636C130.392 45.8636 130.215 45.8471 130.059 45.8139C129.904 45.7841 129.796 45.7543 129.736 45.7244L130.034 44.6903C130.319 44.7633 130.571 44.7898 130.79 44.7699C131.009 44.75 131.203 44.6522 131.372 44.4766C131.544 44.3042 131.702 44.0241 131.844 43.6364L132.063 43.0398L129.239 35.3636H130.512L132.62 41.4489H132.699L134.807 35.3636H136.08L132.838 44.1136C132.693 44.508 132.512 44.8345 132.297 45.093C132.081 45.3549 131.831 45.5488 131.546 45.6747C131.264 45.8007 130.946 45.8636 130.591 45.8636ZM140.457 43.1591C139.768 43.1591 139.163 42.995 138.643 42.6669C138.126 42.3388 137.721 41.8797 137.43 41.2898C137.141 40.6998 136.997 40.0104 136.997 39.2216C136.997 38.4261 137.141 37.7318 137.43 37.1385C137.721 36.5452 138.126 36.0845 138.643 35.7564C139.163 35.4283 139.768 35.2642 140.457 35.2642C141.147 35.2642 141.75 35.4283 142.267 35.7564C142.787 36.0845 143.192 36.5452 143.48 37.1385C143.772 37.7318 143.918 38.4261 143.918 39.2216C143.918 40.0104 143.772 40.6998 143.48 41.2898C143.192 41.8797 142.787 42.3388 142.267 42.6669C141.75 42.995 141.147 43.1591 140.457 43.1591ZM140.457 42.1051C140.981 42.1051 141.412 41.9709 141.75 41.7024C142.088 41.4339 142.338 41.081 142.501 40.6435C142.663 40.206 142.744 39.732 142.744 39.2216C142.744 38.7112 142.663 38.2356 142.501 37.7947C142.338 37.3539 142.088 36.9976 141.75 36.7259C141.412 36.4541 140.981 36.3182 140.457 36.3182C139.934 36.3182 139.503 36.4541 139.165 36.7259C138.827 36.9976 138.576 37.3539 138.414 37.7947C138.252 38.2356 138.17 38.7112 138.17 39.2216C138.17 39.732 138.252 40.206 138.414 40.6435C138.576 41.081 138.827 41.4339 139.165 41.7024C139.503 41.9709 139.934 42.1051 140.457 42.1051ZM150.521 39.8778V35.3636H151.694V43H150.521V41.7074H150.442C150.263 42.0952 149.984 42.425 149.606 42.6967C149.229 42.9652 148.751 43.0994 148.175 43.0994C147.697 43.0994 147.273 42.995 146.902 42.7862C146.531 42.5741 146.239 42.2559 146.027 41.8317C145.815 41.4041 145.709 40.8655 145.709 40.2159V35.3636H146.882V40.1364C146.882 40.6932 147.038 41.1373 147.349 41.4688C147.664 41.8002 148.065 41.9659 148.552 41.9659C148.844 41.9659 149.141 41.8913 149.442 41.7422C149.747 41.593 150.002 41.3643 150.208 41.0561C150.417 40.7479 150.521 40.3551 150.521 39.8778ZM160.983 43.1591C160.247 43.1591 159.612 42.9967 159.078 42.6719C158.548 42.3438 158.139 41.8864 157.85 41.2997C157.565 40.7098 157.423 40.0237 157.423 39.2415C157.423 38.4593 157.565 37.7699 157.85 37.1733C158.139 36.5734 158.54 36.1061 159.054 35.7713C159.571 35.4332 160.174 35.2642 160.863 35.2642C161.261 35.2642 161.654 35.3305 162.042 35.4631C162.429 35.5956 162.782 35.8111 163.1 36.1094C163.419 36.4044 163.672 36.7955 163.861 37.2827C164.05 37.7699 164.145 38.3698 164.145 39.0824V39.5795H158.258V38.5653H162.951C162.951 38.1345 162.865 37.75 162.693 37.4119C162.524 37.0739 162.282 36.8071 161.967 36.6115C161.655 36.416 161.288 36.3182 160.863 36.3182C160.396 36.3182 159.992 36.4342 159.65 36.6662C159.312 36.8949 159.052 37.1932 158.87 37.5611C158.687 37.929 158.596 38.3234 158.596 38.7443V39.4205C158.596 39.9972 158.696 40.486 158.895 40.8871C159.097 41.2848 159.377 41.5881 159.735 41.7969C160.093 42.0024 160.509 42.1051 160.983 42.1051C161.291 42.1051 161.569 42.062 161.818 41.9759C162.07 41.8864 162.287 41.7538 162.469 41.5781C162.651 41.3991 162.792 41.1771 162.892 40.9119L164.025 41.2301C163.906 41.6146 163.705 41.9527 163.424 42.2443C163.142 42.5327 162.794 42.758 162.38 42.9205C161.965 43.0795 161.5 43.1591 160.983 43.1591ZM166.599 35.3636L168.429 38.4858L170.258 35.3636H171.611L169.145 39.1818L171.611 43H170.258L168.429 40.0369L166.599 43H165.247L167.673 39.1818L165.247 35.3636H166.599ZM173.285 45.8636V35.3636H174.418V36.5767H174.558C174.644 36.4441 174.763 36.2751 174.915 36.0696C175.071 35.8608 175.293 35.6752 175.582 35.5128C175.873 35.3471 176.268 35.2642 176.765 35.2642C177.408 35.2642 177.975 35.425 178.465 35.7464C178.956 36.0679 179.339 36.5237 179.614 37.1136C179.889 37.7036 180.026 38.3996 180.026 39.2017C180.026 40.0104 179.889 40.7114 179.614 41.3047C179.339 41.8946 178.957 42.352 178.47 42.6768C177.983 42.9983 177.421 43.1591 176.785 43.1591C176.294 43.1591 175.902 43.0779 175.607 42.9155C175.312 42.7498 175.085 42.5625 174.925 42.3537C174.766 42.1416 174.644 41.9659 174.558 41.8267H174.458V45.8636H173.285ZM174.438 39.1818C174.438 39.7585 174.523 40.2673 174.692 40.7081C174.861 41.1456 175.108 41.4886 175.433 41.7372C175.757 41.9825 176.155 42.1051 176.626 42.1051C177.116 42.1051 177.526 41.9759 177.854 41.7173C178.185 41.4555 178.434 41.1042 178.599 40.6634C178.768 40.2192 178.853 39.7254 178.853 39.1818C178.853 38.6449 178.77 38.161 178.604 37.7301C178.442 37.2959 178.195 36.9529 177.864 36.701C177.536 36.4458 177.123 36.3182 176.626 36.3182C176.148 36.3182 175.747 36.4392 175.423 36.6811C175.098 36.9197 174.853 37.2545 174.687 37.6854C174.521 38.1129 174.438 38.6117 174.438 39.1818ZM185.018 43.1591C184.282 43.1591 183.647 42.9967 183.114 42.6719C182.583 42.3438 182.174 41.8864 181.886 41.2997C181.601 40.7098 181.458 40.0237 181.458 39.2415C181.458 38.4593 181.601 37.7699 181.886 37.1733C182.174 36.5734 182.575 36.1061 183.089 35.7713C183.606 35.4332 184.209 35.2642 184.898 35.2642C185.296 35.2642 185.689 35.3305 186.077 35.4631C186.464 35.5956 186.817 35.8111 187.136 36.1094C187.454 36.4044 187.707 36.7955 187.896 37.2827C188.085 37.7699 188.18 38.3698 188.18 39.0824V39.5795H182.293V38.5653H186.987C186.987 38.1345 186.9 37.75 186.728 37.4119C186.559 37.0739 186.317 36.8071 186.002 36.6115C185.691 36.416 185.323 36.3182 184.898 36.3182C184.431 36.3182 184.027 36.4342 183.685 36.6662C183.347 36.8949 183.087 37.1932 182.905 37.5611C182.723 37.929 182.631 38.3234 182.631 38.7443V39.4205C182.631 39.9972 182.731 40.486 182.93 40.8871C183.132 41.2848 183.412 41.5881 183.77 41.7969C184.128 42.0024 184.544 42.1051 185.018 42.1051C185.326 42.1051 185.604 42.062 185.853 41.9759C186.105 41.8864 186.322 41.7538 186.504 41.5781C186.687 41.3991 186.827 41.1771 186.927 40.9119L188.06 41.2301C187.941 41.6146 187.741 41.9527 187.459 42.2443C187.177 42.5327 186.829 42.758 186.415 42.9205C186 43.0795 185.535 43.1591 185.018 43.1591ZM193.067 43.1591C192.351 43.1591 191.734 42.9901 191.217 42.652C190.7 42.3139 190.303 41.8482 190.024 41.255C189.746 40.6617 189.607 39.9839 189.607 39.2216C189.607 38.446 189.749 37.7616 190.034 37.1683C190.322 36.5717 190.723 36.1061 191.237 35.7713C191.754 35.4332 192.357 35.2642 193.047 35.2642C193.584 35.2642 194.068 35.3636 194.499 35.5625C194.929 35.7614 195.282 36.0398 195.558 36.3977C195.833 36.7557 196.003 37.1733 196.07 37.6506H194.896C194.807 37.3026 194.608 36.9943 194.3 36.7259C193.995 36.4541 193.584 36.3182 193.067 36.3182C192.609 36.3182 192.208 36.4375 191.864 36.6761C191.522 36.9115 191.255 37.2446 191.063 37.6754C190.874 38.103 190.78 38.6051 190.78 39.1818C190.78 39.7718 190.873 40.2855 191.058 40.723C191.247 41.1605 191.512 41.5002 191.854 41.7422C192.198 41.9841 192.603 42.1051 193.067 42.1051C193.372 42.1051 193.648 42.0521 193.897 41.946C194.146 41.84 194.356 41.6875 194.528 41.4886C194.701 41.2898 194.823 41.0511 194.896 40.7727H196.07C196.003 41.2235 195.839 41.6295 195.577 41.9908C195.319 42.3487 194.976 42.6338 194.548 42.8459C194.124 43.0547 193.63 43.1591 193.067 43.1591ZM201.106 35.3636V36.358H197.148V35.3636H201.106ZM198.302 33.5341H199.475V40.8125C199.475 41.1439 199.523 41.3925 199.619 41.5582C199.719 41.7206 199.845 41.83 199.997 41.8864C200.153 41.9394 200.317 41.9659 200.489 41.9659C200.619 41.9659 200.725 41.9593 200.808 41.946C200.89 41.9295 200.957 41.9162 201.006 41.9062L201.245 42.9602C201.165 42.9901 201.054 43.0199 200.912 43.0497C200.769 43.0829 200.589 43.0994 200.37 43.0994C200.039 43.0994 199.714 43.0282 199.396 42.8857C199.081 42.7431 198.819 42.526 198.61 42.2344C198.405 41.9427 198.302 41.5748 198.302 41.1307V33.5341Z" fill="#EEEAFF"/>
</svg>
