<svg width="48" height="48" viewBox="0 0 48 48" fill="none" xmlns="http://www.w3.org/2000/svg">
<rect width="48" height="48" rx="8" fill="#3C3357"/>
<path d="M22.5794 26.4629C21.568 26.4629 20.748 25.7705 20.748 24.9164V23.9243H24.3416V24.9164C24.3416 25.7705 23.5909 26.4629 22.5794 26.4629Z" fill="#114929"/>
<path d="M27.8777 9.6123H32.0095L17.2529 38.3876H13.1211L27.8777 9.6123Z" fill="#FF94E4"/>
<path d="M29.9031 9.6123H34.0349L19.2783 38.3876H15.1465L29.9031 9.6123Z" fill="#A372E3"/>
<path fill-rule="evenodd" clip-rule="evenodd" d="M14.2503 22.7457C17.5102 22.7457 20.1529 19.8056 20.1529 16.179C20.1529 12.5523 17.5102 9.6123 14.2503 9.6123C10.9904 9.6123 8.34766 12.5523 8.34766 16.179C8.34766 19.8056 10.9904 22.7457 14.2503 22.7457ZM14.2503 19.3516C15.7988 19.3516 17.054 17.9312 17.054 16.179C17.054 14.4268 15.7988 13.0063 14.2503 13.0063C12.7018 13.0063 11.4465 14.4268 11.4465 16.179C11.4465 17.9312 12.7018 19.3516 14.2503 19.3516Z" fill="#FF94E4"/>
<path fill-rule="evenodd" clip-rule="evenodd" d="M31.8518 38.3873C35.1118 38.3873 37.7545 35.4473 37.7545 31.8206C37.7545 28.1939 35.1118 25.2539 31.8518 25.2539C28.5919 25.2539 25.9492 28.1939 25.9492 31.8206C25.9492 35.4473 28.5919 38.3873 31.8518 38.3873ZM31.8518 34.9932C33.4003 34.9932 34.6556 33.5728 34.6556 31.8206C34.6556 30.0684 33.4003 28.6479 31.8518 28.6479C30.3034 28.6479 29.0481 30.0684 29.0481 31.8206C29.0481 33.5728 30.3034 34.9932 31.8518 34.9932Z" fill="#FF94E4"/>
<path d="M14.3301 9.6123H16.0395V9.89721H14.3301V9.6123Z" fill="#FF94E4"/>
<path d="M14.0449 22.4326H15.7543V22.7431H14.0449V22.4326Z" fill="#FF94E4"/>
<path d="M31.9941 25.2559H33.7036V25.5931H31.9941V25.2559Z" fill="#FF94E4"/>
<path d="M31.9941 37.8184H33.7036V38.3882H31.9941V37.8184Z" fill="#FF94E4"/>
<path fill-rule="evenodd" clip-rule="evenodd" d="M15.8636 22.7457C19.1235 22.7457 21.7662 19.8056 21.7662 16.179C21.7662 12.5523 19.1235 9.6123 15.8636 9.6123C12.6036 9.6123 9.96094 12.5523 9.96094 16.179C9.96094 19.8056 12.6036 22.7457 15.8636 22.7457ZM15.8636 19.3516C17.412 19.3516 18.6673 17.9312 18.6673 16.179C18.6673 14.4268 17.412 13.0063 15.8636 13.0063C14.3151 13.0063 13.0598 14.4268 13.0598 16.179C13.0598 17.9312 14.3151 19.3516 15.8636 19.3516Z" fill="#A372E3"/>
<path fill-rule="evenodd" clip-rule="evenodd" d="M33.7503 38.3873C37.0102 38.3873 39.6529 35.4473 39.6529 31.8206C39.6529 28.1939 37.0102 25.2539 33.7503 25.2539C30.4904 25.2539 27.8477 28.1939 27.8477 31.8206C27.8477 35.4473 30.4904 38.3873 33.7503 38.3873ZM33.7503 34.9932C35.2988 34.9932 36.554 33.5728 36.554 31.8206C36.554 30.0684 35.2988 28.6479 33.7503 28.6479C32.2018 28.6479 30.9465 30.0684 30.9465 31.8206C30.9465 33.5728 32.2018 34.9932 33.7503 34.9932Z" fill="#A372E3"/>
</svg>
