<svg width="41" height="49" viewBox="0 0 41 49" fill="none" xmlns="http://www.w3.org/2000/svg">
<rect width="23.7871" height="48.7941" rx="4.06618" fill="white"/>
<path d="M1.11768 5.2859C1.11768 3.04022 2.93816 1.21973 5.18385 1.21973H7.4368C7.65223 1.21973 7.82687 1.39437 7.82687 1.6098C7.82687 2.47153 8.52544 3.1701 9.38717 3.1701H12.267H14.8418C15.7035 3.1701 16.4021 2.47153 16.4021 1.6098C16.4021 1.39437 16.5767 1.21973 16.7921 1.21973H18.6022C20.8479 1.21973 22.6684 3.04022 22.6684 5.2859V43.7113C22.6684 45.957 20.8479 47.7775 18.6022 47.7775H5.18386C2.93817 47.7775 1.11768 45.957 1.11768 43.7113V5.2859Z" fill="#212121"/>
<path d="M4.69794 16.9446L2.92238 18.2389" stroke="#6A6969" stroke-width="0.275673" stroke-miterlimit="10"/>
<path d="M19.5723 6.10851L6.28881 15.7867" stroke="#6A6969" stroke-width="0.275673" stroke-miterlimit="10"/>
<path d="M17.3653 5.33628L11.9787 9.0618" stroke="#6A6969" stroke-width="0.275673" stroke-miterlimit="10"/>
<path d="M11.4587 18.4946C11.4587 16.8785 12.7689 15.5684 14.385 15.5684H38.074C39.6902 15.5684 41.0003 16.8785 41.0003 18.4946V30.2927C41.0003 31.9088 39.6902 33.219 38.074 33.219H17.1487L11.4587 38.6303V18.4946Z" fill="white"/>
<path d="M15.0088 24.7618V24.2328H15.5664L16.0811 24.3257L16.1168 24.2328L15.6879 23.9397L15.2947 23.5394L15.6664 23.1677L16.0668 23.5608L16.3599 23.9898L16.4528 23.954L16.3599 23.4393V22.8817H16.8888V23.4393L16.7959 23.954L16.8888 23.9898L17.1819 23.5608L17.5823 23.1677L17.954 23.5394L17.5608 23.9397L17.1319 24.2328L17.1676 24.3257L17.6823 24.2328H18.2399V24.7618H17.6823L17.1676 24.6689L17.1319 24.7618L17.5608 25.0549L17.954 25.4552L17.5823 25.8269L17.1819 25.4338L16.8888 25.0049L16.7959 25.0406L16.8888 25.5553V26.1129H16.3599V25.5553L16.4528 25.0406L16.3599 25.0049L16.0668 25.4338L15.6664 25.8269L15.2947 25.4552L15.6879 25.0549L16.1168 24.7618L16.0811 24.6689L15.5664 24.7618H15.0088ZM18.8693 24.7618V24.2328H19.4269L19.9416 24.3257L19.9773 24.2328L19.5484 23.9397L19.1552 23.5394L19.527 23.1677L19.9273 23.5608L20.2204 23.9898L20.3133 23.954L20.2204 23.4393V22.8817H20.7494V23.4393L20.6564 23.954L20.7494 23.9898L21.0425 23.5608L21.4428 23.1677L21.8145 23.5394L21.4213 23.9397L20.9924 24.2328L21.0282 24.3257L21.5429 24.2328H22.1004V24.7618H21.5429L21.0282 24.6689L20.9924 24.7618L21.4213 25.0549L21.8145 25.4552L21.4428 25.8269L21.0425 25.4338L20.7494 25.0049L20.6564 25.0406L20.7494 25.5553V26.1129H20.2204V25.5553L20.3133 25.0406L20.2204 25.0049L19.9273 25.4338L19.527 25.8269L19.1552 25.4552L19.5484 25.0549L19.9773 24.7618L19.9416 24.6689L19.4269 24.7618H18.8693ZM22.7298 24.7618V24.2328H23.2874L23.8021 24.3257L23.8378 24.2328L23.4089 23.9397L23.0157 23.5394L23.3875 23.1677L23.7878 23.5608L24.0809 23.9898L24.1738 23.954L24.0809 23.4393V22.8817H24.6099V23.4393L24.5169 23.954L24.6099 23.9898L24.903 23.5608L25.3033 23.1677L25.675 23.5394L25.2818 23.9397L24.8529 24.2328L24.8887 24.3257L25.4034 24.2328H25.961V24.7618H25.4034L24.8887 24.6689L24.8529 24.7618L25.2818 25.0549L25.675 25.4552L25.3033 25.8269L24.903 25.4338L24.6099 25.0049L24.5169 25.0406L24.6099 25.5553V26.1129H24.0809V25.5553L24.1738 25.0406L24.0809 25.0049L23.7878 25.4338L23.3875 25.8269L23.0157 25.4552L23.4089 25.0549L23.8378 24.7618L23.8021 24.6689L23.2874 24.7618H22.7298ZM26.5903 24.7618V24.2328H27.1479L27.6626 24.3257L27.6983 24.2328L27.2694 23.9397L26.8763 23.5394L27.248 23.1677L27.6483 23.5608L27.9414 23.9898L28.0343 23.954L27.9414 23.4393V22.8817H28.4704V23.4393L28.3775 23.954L28.4704 23.9898L28.7635 23.5608L29.1638 23.1677L29.5355 23.5394L29.1424 23.9397L28.7134 24.2328L28.7492 24.3257L29.2639 24.2328H29.8215V24.7618H29.2639L28.7492 24.6689L28.7134 24.7618L29.1424 25.0549L29.5355 25.4552L29.1638 25.8269L28.7635 25.4338L28.4704 25.0049L28.3775 25.0406L28.4704 25.5553V26.1129H27.9414V25.5553L28.0343 25.0406L27.9414 25.0049L27.6483 25.4338L27.248 25.8269L26.8763 25.4552L27.2694 25.0549L27.6983 24.7618L27.6626 24.6689L27.1479 24.7618H26.5903ZM30.4508 24.7618V24.2328H31.0084L31.5231 24.3257L31.5589 24.2328L31.1299 23.9397L30.7368 23.5394L31.1085 23.1677L31.5088 23.5608L31.8019 23.9898L31.8948 23.954L31.8019 23.4393V22.8817H32.3309V23.4393L32.238 23.954L32.3309 23.9898L32.624 23.5608L33.0243 23.1677L33.3961 23.5394L33.0029 23.9397L32.574 24.2328L32.6097 24.3257L33.1244 24.2328H33.682V24.7618H33.1244L32.6097 24.6689L32.574 24.7618L33.0029 25.0549L33.3961 25.4552L33.0243 25.8269L32.624 25.4338L32.3309 25.0049L32.238 25.0406L32.3309 25.5553V26.1129H31.8019V25.5553L31.8948 25.0406L31.8019 25.0049L31.5088 25.4338L31.1085 25.8269L30.7368 25.4552L31.1299 25.0549L31.5589 24.7618L31.5231 24.6689L31.0084 24.7618H30.4508ZM34.3113 24.7618V24.2328H34.8689L35.3836 24.3257L35.4194 24.2328L34.9905 23.9397L34.5973 23.5394L34.969 23.1677L35.3693 23.5608L35.6624 23.9898L35.7554 23.954L35.6624 23.4393V22.8817H36.1914V23.4393L36.0985 23.954L36.1914 23.9898L36.4845 23.5608L36.8848 23.1677L37.2566 23.5394L36.8634 23.9397L36.4345 24.2328L36.4702 24.3257L36.9849 24.2328H37.5425V24.7618H36.9849L36.4702 24.6689L36.4345 24.7618L36.8634 25.0549L37.2566 25.4552L36.8848 25.8269L36.4845 25.4338L36.1914 25.0049L36.0985 25.0406L36.1914 25.5553V26.1129H35.6624V25.5553L35.7554 25.0406L35.6624 25.0049L35.3693 25.4338L34.969 25.8269L34.5973 25.4552L34.9905 25.0549L35.4194 24.7618L35.3836 24.6689L34.8689 24.7618H34.3113Z" fill="black"/>
</svg>
