<svg width="104" height="28" viewBox="0 0 104 28" fill="none" xmlns="http://www.w3.org/2000/svg">
<g clip-path="url(#clip0_689_1219)">
<path d="M19.7535 15.1531L19.749 15.1906C18.6495 14.6426 18.5345 14.5696 18.3925 14.7826C18.294 14.9301 18.007 15.2646 17.9205 15.3636C17.833 15.4611 17.746 15.4686 17.5975 15.4011C17.4475 15.3261 16.966 15.1686 16.396 14.6586C15.952 14.2611 15.654 13.7736 15.566 13.6236C15.4195 13.3706 15.726 13.3346 16.005 12.8066C16.055 12.7016 16.0295 12.6191 15.9925 12.5446C15.955 12.4696 15.6565 11.7346 15.5315 11.4416C15.4115 11.1496 15.288 11.1866 15.1955 11.1866C14.9075 11.1616 14.697 11.1656 14.5115 11.3586C13.7045 12.2456 13.908 13.1606 14.5985 14.1336C15.9555 15.9096 16.6785 16.2366 18.0005 16.6906C18.3575 16.8041 18.683 16.7881 18.9405 16.7511C19.2275 16.7056 19.824 16.3906 19.9485 16.0381C20.076 15.6856 20.076 15.3931 20.0385 15.3256C20.0015 15.2581 19.9035 15.2206 19.7535 15.1531Z" fill="#EEEAFF"/>
<path d="M21.26 9.72472C17.4155 6.00822 11.053 8.70372 11.0505 13.9467C11.0505 14.9947 11.325 16.0167 11.848 16.9192L11 20.0002L14.1675 19.1742C18.12 21.3092 22.998 18.4742 23 13.9497C23 12.3617 22.38 10.8672 21.2525 9.74422L21.26 9.72472ZM22.001 13.9332C21.998 17.7497 17.8085 20.1332 14.495 18.1852L14.315 18.0782L12.44 18.5657L12.9425 16.7432L12.823 16.5557C10.761 13.2732 13.13 8.98322 17.036 8.98322C18.363 8.98322 19.6085 9.50072 20.5465 10.4382C21.484 11.3677 22.001 12.6132 22.001 13.9332Z" fill="#EEEAFF"/>
</g>
<path d="M37.0066 9.27273V18H35.9838L31.2282 11.1477H31.1429V18H30.0861V9.27273H31.1088L35.8816 16.142H35.9668V9.27273H37.0066ZM41.7292 18.1364C41.0985 18.1364 40.5545 17.9972 40.0971 17.7188C39.6426 17.4375 39.2917 17.0455 39.0446 16.5426C38.8002 16.0369 38.6781 15.4489 38.6781 14.7784C38.6781 14.108 38.8002 13.517 39.0446 13.0057C39.2917 12.4915 39.6355 12.0909 40.0758 11.804C40.519 11.5142 41.036 11.3693 41.627 11.3693C41.9679 11.3693 42.3045 11.4261 42.6369 11.5398C42.9693 11.6534 43.2718 11.8381 43.5446 12.0938C43.8173 12.3466 44.0346 12.6818 44.1966 13.0994C44.3585 13.517 44.4395 14.0312 44.4395 14.642V15.0682H39.394V14.1989H43.4167C43.4167 13.8295 43.3429 13.5 43.1951 13.2102C43.0502 12.9205 42.8429 12.6918 42.573 12.5241C42.3059 12.3565 41.9906 12.2727 41.627 12.2727C41.2264 12.2727 40.8798 12.3722 40.5872 12.571C40.2974 12.767 40.0744 13.0227 39.9181 13.3381C39.7619 13.6534 39.6838 13.9915 39.6838 14.3523V14.9318C39.6838 15.4261 39.769 15.8452 39.9395 16.1889C40.1127 16.5298 40.3528 16.7898 40.6596 16.9688C40.9664 17.1449 41.323 17.233 41.7292 17.233C41.9934 17.233 42.2321 17.196 42.4451 17.1222C42.661 17.0455 42.8471 16.9318 43.0034 16.7812C43.1596 16.6278 43.2804 16.4375 43.3656 16.2102L44.3372 16.483C44.2349 16.8125 44.063 17.1023 43.8216 17.3523C43.5801 17.5994 43.2818 17.7926 42.9267 17.9318C42.5716 18.0682 42.1724 18.1364 41.7292 18.1364ZM48.7136 18.1364C48.0829 18.1364 47.5389 17.9972 47.0815 17.7188C46.627 17.4375 46.2761 17.0455 46.0289 16.5426C45.7846 16.0369 45.6625 15.4489 45.6625 14.7784C45.6625 14.108 45.7846 13.517 46.0289 13.0057C46.2761 12.4915 46.6199 12.0909 47.0602 11.804C47.5034 11.5142 48.0204 11.3693 48.6113 11.3693C48.9522 11.3693 49.2889 11.4261 49.6213 11.5398C49.9537 11.6534 50.2562 11.8381 50.5289 12.0938C50.8017 12.3466 51.019 12.6818 51.1809 13.0994C51.3429 13.517 51.4238 14.0312 51.4238 14.642V15.0682H46.3784V14.1989H50.4011C50.4011 13.8295 50.3272 13.5 50.1795 13.2102C50.0346 12.9205 49.8272 12.6918 49.5574 12.5241C49.2903 12.3565 48.975 12.2727 48.6113 12.2727C48.2108 12.2727 47.8642 12.3722 47.5716 12.571C47.2818 12.767 47.0588 13.0227 46.9025 13.3381C46.7463 13.6534 46.6681 13.9915 46.6681 14.3523V14.9318C46.6681 15.4261 46.7534 15.8452 46.9238 16.1889C47.0971 16.5298 47.3372 16.7898 47.644 16.9688C47.9508 17.1449 48.3074 17.233 48.7136 17.233C48.9778 17.233 49.2164 17.196 49.4295 17.1222C49.6454 17.0455 49.8315 16.9318 49.9877 16.7812C50.144 16.6278 50.2647 16.4375 50.35 16.2102L51.3216 16.483C51.2193 16.8125 51.0474 17.1023 50.8059 17.3523C50.5645 17.5994 50.2662 17.7926 49.911 17.9318C49.5559 18.0682 49.1568 18.1364 48.7136 18.1364ZM55.4252 18.1364C54.8798 18.1364 54.3983 17.9986 53.9806 17.723C53.563 17.4446 53.2363 17.0526 53.0005 16.5469C52.7647 16.0384 52.6468 15.4375 52.6468 14.7443C52.6468 14.0568 52.7647 13.4602 53.0005 12.9545C53.2363 12.4489 53.5645 12.0582 53.9849 11.7827C54.4054 11.5071 54.8912 11.3693 55.4423 11.3693C55.8684 11.3693 56.2051 11.4403 56.4522 11.5824C56.7022 11.7216 56.8926 11.8807 57.0233 12.0597C57.1568 12.2358 57.2605 12.3807 57.3343 12.4943H57.4196V9.27273H58.4252V18H57.4537V16.9943H57.3343C57.2605 17.1136 57.1554 17.2642 57.019 17.446C56.8826 17.625 56.688 17.7855 56.4352 17.9276C56.1824 18.0668 55.8457 18.1364 55.4252 18.1364ZM55.5616 17.233C55.965 17.233 56.3059 17.1278 56.5843 16.9176C56.8627 16.7045 57.0744 16.4105 57.2193 16.0355C57.3642 15.6577 57.4366 15.2216 57.4366 14.7273C57.4366 14.2386 57.3656 13.8111 57.2235 13.4446C57.0815 13.0753 56.8713 12.7884 56.5929 12.5838C56.3145 12.3764 55.9707 12.2727 55.5616 12.2727C55.1355 12.2727 54.7804 12.3821 54.4963 12.6009C54.215 12.8168 54.0034 13.1108 53.8613 13.483C53.7221 13.8523 53.6525 14.267 53.6525 14.7273C53.6525 15.1932 53.7235 15.6165 53.8656 15.9972C54.0105 16.375 54.2235 16.6761 54.5048 16.9006C54.7889 17.1222 55.1412 17.233 55.5616 17.233ZM63.9181 18V9.27273H64.975V13.1591H69.6284V9.27273H70.6852V18H69.6284V14.0966H64.975V18H63.9181ZM75.4089 18.1364C74.7782 18.1364 74.2342 17.9972 73.7768 17.7188C73.3223 17.4375 72.9714 17.0455 72.7243 16.5426C72.4799 16.0369 72.3578 15.4489 72.3578 14.7784C72.3578 14.108 72.4799 13.517 72.7243 13.0057C72.9714 12.4915 73.3152 12.0909 73.7555 11.804C74.1987 11.5142 74.7157 11.3693 75.3066 11.3693C75.6475 11.3693 75.9842 11.4261 76.3166 11.5398C76.649 11.6534 76.9515 11.8381 77.2243 12.0938C77.497 12.3466 77.7143 12.6818 77.8762 13.0994C78.0382 13.517 78.1191 14.0312 78.1191 14.642V15.0682H73.0737V14.1989H77.0964C77.0964 13.8295 77.0225 13.5 76.8748 13.2102C76.7299 12.9205 76.5225 12.6918 76.2527 12.5241C75.9856 12.3565 75.6703 12.2727 75.3066 12.2727C74.9061 12.2727 74.5595 12.3722 74.2669 12.571C73.9771 12.767 73.7541 13.0227 73.5978 13.3381C73.4416 13.6534 73.3635 13.9915 73.3635 14.3523V14.9318C73.3635 15.4261 73.4487 15.8452 73.6191 16.1889C73.7924 16.5298 74.0325 16.7898 74.3393 16.9688C74.6461 17.1449 75.0027 17.233 75.4089 17.233C75.6731 17.233 75.9118 17.196 76.1248 17.1222C76.3407 17.0455 76.5268 16.9318 76.6831 16.7812C76.8393 16.6278 76.96 16.4375 77.0453 16.2102L78.0169 16.483C77.9146 16.8125 77.7427 17.1023 77.5012 17.3523C77.2598 17.5994 76.9615 17.7926 76.6064 17.9318C76.2512 18.0682 75.8521 18.1364 75.4089 18.1364ZM80.6547 9.27273V18H79.649V9.27273H80.6547ZM82.4966 20.4545V11.4545H83.4682V12.4943H83.5875C83.6614 12.3807 83.7637 12.2358 83.8944 12.0597C84.0279 11.8807 84.2182 11.7216 84.4654 11.5824C84.7154 11.4403 85.0534 11.3693 85.4796 11.3693C86.0307 11.3693 86.5165 11.5071 86.937 11.7827C87.3574 12.0582 87.6855 12.4489 87.9213 12.9545C88.1571 13.4602 88.275 14.0568 88.275 14.7443C88.275 15.4375 88.1571 16.0384 87.9213 16.5469C87.6855 17.0526 87.3588 17.4446 86.9412 17.723C86.5236 17.9986 86.0421 18.1364 85.4966 18.1364C85.0762 18.1364 84.7395 18.0668 84.4867 17.9276C84.2338 17.7855 84.0392 17.625 83.9029 17.446C83.7665 17.2642 83.6614 17.1136 83.5875 16.9943H83.5023V20.4545H82.4966ZM83.4853 14.7273C83.4853 15.2216 83.5577 15.6577 83.7026 16.0355C83.8475 16.4105 84.0591 16.7045 84.3375 16.9176C84.6159 17.1278 84.9569 17.233 85.3603 17.233C85.7807 17.233 86.1316 17.1222 86.4128 16.9006C86.6969 16.6761 86.91 16.375 87.052 15.9972C87.1969 15.6165 87.2694 15.1932 87.2694 14.7273C87.2694 14.267 87.1983 13.8523 87.0563 13.483C86.9171 13.1108 86.7054 12.8168 86.4213 12.6009C86.1401 12.3821 85.7864 12.2727 85.3603 12.2727C84.9512 12.2727 84.6074 12.3764 84.329 12.5838C84.0506 12.7884 83.8404 13.0753 83.6983 13.4446C83.5563 13.8111 83.4853 14.2386 83.4853 14.7273ZM91.1216 15.5455V15.4943C91.1273 14.9517 91.1841 14.5199 91.2921 14.1989C91.4 13.8778 91.5534 13.6179 91.7523 13.419C91.9512 13.2202 92.1898 13.0369 92.4682 12.8693C92.6358 12.767 92.7864 12.6463 92.9199 12.5071C93.0534 12.3651 93.1586 12.2017 93.2353 12.017C93.3148 11.8324 93.3546 11.6278 93.3546 11.4034C93.3546 11.125 93.2892 10.8835 93.1586 10.679C93.0279 10.4744 92.8532 10.3168 92.6344 10.206C92.4157 10.0952 92.1728 10.0398 91.9057 10.0398C91.6728 10.0398 91.4483 10.0881 91.2324 10.1847C91.0165 10.2812 90.8361 10.4332 90.6912 10.6406C90.5463 10.848 90.4625 11.1193 90.4398 11.4545H89.3659C89.3887 10.9716 89.5137 10.5582 89.7409 10.2145C89.9711 9.87074 90.2736 9.60795 90.6486 9.42614C91.0265 9.24432 91.4455 9.15341 91.9057 9.15341C92.4057 9.15341 92.8404 9.25284 93.2097 9.4517C93.5819 9.65057 93.8688 9.9233 94.0705 10.2699C94.275 10.6165 94.3773 11.0114 94.3773 11.4545C94.3773 11.767 94.329 12.0497 94.2324 12.3026C94.1387 12.5554 94.0023 12.7812 93.8233 12.9801C93.6472 13.179 93.4341 13.3551 93.1841 13.5085C92.9341 13.6648 92.7338 13.8295 92.5833 14.0028C92.4327 14.1733 92.3233 14.3764 92.2551 14.6122C92.187 14.848 92.15 15.142 92.1444 15.4943V15.5455H91.1216ZM91.6671 18.0682C91.4569 18.0682 91.2765 17.9929 91.1259 17.8423C90.9753 17.6918 90.9 17.5114 90.9 17.3011C90.9 17.0909 90.9753 16.9105 91.1259 16.7599C91.2765 16.6094 91.4569 16.5341 91.6671 16.5341C91.8773 16.5341 92.0577 16.6094 92.2083 16.7599C92.3588 16.9105 92.4341 17.0909 92.4341 17.3011C92.4341 17.4403 92.3986 17.5682 92.3276 17.6847C92.2594 17.8011 92.1671 17.8949 92.0506 17.9659C91.937 18.0341 91.8091 18.0682 91.6671 18.0682Z" fill="#EEEAFF"/>
<rect x="0.5" y="0.5" width="103" height="27" rx="3.5" stroke="#776E94"/>
<defs>
<clipPath id="clip0_689_1219">
<rect width="12" height="12" fill="white" transform="translate(11 8)"/>
</clipPath>
</defs>
</svg>
