<svg width="322" height="219" viewBox="0 0 322 219" fill="none" xmlns="http://www.w3.org/2000/svg">
<path d="M294.315 214.97H6.61771C6.03007 214.97 5.55371 214.494 5.55371 213.906V212.165C5.55371 211.577 6.03007 211.101 6.61771 211.101H294.315C294.902 211.101 295.379 211.577 295.379 212.165V213.906C295.379 214.494 294.902 214.97 294.315 214.97Z" fill="#9169FF"/>
<path d="M260.566 111.186C259.672 112.312 253.554 120.328 256.793 131.189C260.031 142.051 270.028 147.044 271.463 147.733C272.357 146.607 278.475 138.591 275.237 127.73C271.998 116.868 262.001 111.875 260.566 111.186Z" fill="#1EA787"/>
<path d="M271.432 147.584L269.707 142.975L263.76 127.062L264.174 126.907L271.846 147.43L271.432 147.584Z" fill="#864BC5"/>
<path d="M269.466 143.395L272.349 136.517L272.757 136.688L269.874 143.566L269.466 143.395Z" fill="#864BC5"/>
<path d="M265.398 131.004L268.281 124.126L268.689 124.296L265.806 131.175L265.398 131.004Z" fill="#864BC5"/>
<path d="M259.477 134.792L259.645 134.383L267.812 137.754L267.644 138.162L259.477 134.792Z" fill="#864BC5"/>
<path d="M309.044 158.325C307.943 159.248 300.094 165.579 289.149 162.633C278.205 159.687 272.945 149.828 272.217 148.412C273.319 147.488 281.168 141.157 292.113 144.103C303.057 147.049 308.317 156.909 309.044 158.325Z" fill="#1EA787"/>
<path d="M271.022 147.978L271.166 147.56L293.231 155.14L293.088 155.558L271.022 147.978Z" fill="#864BC5"/>
<path d="M276.608 150.292L276.427 149.889L283.225 146.822L283.406 147.226L276.608 150.292Z" fill="#864BC5"/>
<path d="M289.104 154.026L288.922 153.623L295.72 150.556L295.902 150.959L289.104 154.026Z" fill="#864BC5"/>
<path d="M285.476 160.047L281.888 151.973L282.292 151.793L285.88 159.868L285.476 160.047Z" fill="#864BC5"/>
<path d="M276.648 104.689C275.903 105.633 270.799 112.35 273.528 121.43C276.257 130.51 284.63 134.669 285.831 135.243C286.577 134.299 291.681 127.582 288.952 118.502C286.223 109.421 277.85 105.263 276.648 104.689Z" fill="#1EA787"/>
<path d="M285.766 135.127L285.717 134.987L279.318 117.976L279.732 117.82L286.184 134.982L285.766 135.127Z" fill="#864BC5"/>
<path d="M284.119 131.603L286.518 125.844L286.927 126.014L284.527 131.773L284.119 131.603Z" fill="#864BC5"/>
<path d="M280.694 121.245L283.092 115.486L283.501 115.656L281.102 121.415L280.694 121.245Z" fill="#864BC5"/>
<path d="M275.767 124.472L275.934 124.063L282.773 126.867L282.605 127.276L275.767 124.472Z" fill="#864BC5"/>
<path d="M317.564 142.905C316.671 143.711 310.303 149.244 301.063 147.116C291.823 144.988 287.125 136.906 286.473 135.745C287.366 134.939 293.734 129.406 302.974 131.534C312.214 133.662 316.912 141.743 317.564 142.905Z" fill="#1EA787"/>
<path d="M285.448 135.452L285.578 135.029L290.658 136.567L304.258 140.688L304.13 141.111L285.448 135.452Z" fill="#864BC5"/>
<path d="M290.217 137.214L290.021 136.818L295.611 134.047L295.807 134.443L290.217 137.214Z" fill="#864BC5"/>
<path d="M300.778 139.954L300.581 139.557L306.171 136.786L306.367 137.182L300.778 139.954Z" fill="#864BC5"/>
<path d="M297.881 145.082L294.634 138.442L295.031 138.248L298.278 144.887L297.881 145.082Z" fill="#864BC5"/>
<path d="M315.636 104.468C315.893 105.643 317.541 113.916 311.112 120.885C304.683 127.854 295.335 127.928 294.003 127.918C293.746 126.743 292.098 118.469 298.527 111.501C304.956 104.532 314.304 104.458 315.636 104.468Z" fill="#1EA787"/>
<path d="M289.519 131.575L307.115 114.925L307.419 115.246L289.823 131.897L289.519 131.575Z" fill="#864BC5"/>
<path d="M296.694 125.37L297.058 119.141L297.5 119.167L297.136 125.395L296.694 125.37Z" fill="#864BC5"/>
<path d="M304.309 117.557L304.674 111.329L305.115 111.354L304.751 117.583L304.309 117.557Z" fill="#864BC5"/>
<path d="M300.392 122.168L300.42 121.727L307.796 122.199L307.768 122.64L300.392 122.168Z" fill="#864BC5"/>
<path d="M2.34121 164.608C2.3237 165.25 2.27927 169.765 5.9876 173.104C9.69592 176.443 14.1817 175.926 14.8191 175.842C14.8365 175.199 14.8809 170.684 11.1726 167.345C7.46427 164.007 2.97845 164.523 2.34121 164.608Z" fill="#1EA787"/>
<path d="M1.31824 184.149C1.81863 184.552 5.3817 187.326 10.2855 186.403C15.1892 185.48 17.4993 181.6 17.8186 181.042C17.3182 180.639 13.7553 177.865 8.85167 178.788C3.94787 179.711 1.63757 183.591 1.31824 184.149Z" fill="#1EA787"/>
<path d="M23.3728 162.823C22.8032 163.121 18.8387 165.283 17.7311 170.148C16.6234 175.013 19.2609 178.678 19.6454 179.193C20.215 178.895 24.1795 176.733 25.2871 171.868C26.3948 167.003 23.7573 163.338 23.3728 162.823Z" fill="#1EA787"/>
<path d="M11.3674 195.608C11.6744 195.043 13.8984 191.113 18.7803 190.082C23.6623 189.05 27.2858 191.745 27.7951 192.137C27.4881 192.702 25.2641 196.632 20.3822 197.664C15.5002 198.695 11.8767 196 11.3674 195.608Z" fill="#1EA787"/>
<path d="M34.325 173.607C33.7623 173.918 29.8487 176.17 28.8527 181.059C27.8568 185.948 30.5774 189.552 30.9736 190.058C31.5363 189.747 35.45 187.495 36.446 182.606C37.442 177.717 34.7212 174.113 34.325 173.607Z" fill="#1EA787"/>
<path d="M21.116 205.112C21.4229 204.547 23.6469 200.617 28.5289 199.586C33.4108 198.554 37.0341 201.249 37.5434 201.642C37.2365 202.206 35.0127 206.136 30.1307 207.168C25.2487 208.199 21.6253 205.504 21.116 205.112Z" fill="#1EA787"/>
<path d="M44.0687 183.11C43.5061 183.421 39.5929 185.674 38.5982 190.564C37.6035 195.454 40.3254 199.056 40.7217 199.563C41.2843 199.252 45.1974 196.998 46.1921 192.109C47.1868 187.219 44.4651 183.617 44.0687 183.11Z" fill="#1EA787"/>
<path d="M19.3707 180.529L7.30781 183.317L7.39377 183.69L19.7083 180.844L19.3707 180.529Z" fill="#864BC5"/>
<path d="M11.2798 184.833L11.001 184.57L13.4355 181.994L13.7143 182.257L11.2798 184.833Z" fill="#864BC5"/>
<path d="M15.2271 181.898L12.3906 180.606L12.5496 180.258L15.3859 181.55L15.2271 181.898Z" fill="#864BC5"/>
<path d="M10.6677 182.785L7.83149 181.493L7.99036 181.145L10.8264 182.437L10.6677 182.785Z" fill="#864BC5"/>
<path d="M19.7972 180.817L21.7892 168.484L21.4103 168.423L19.4597 180.502L19.7972 180.817Z" fill="#864BC5"/>
<path d="M20.6462 175.537L20.374 175.266L22.8723 172.753L23.1444 173.023L20.6462 175.537Z" fill="#864BC5"/>
<path d="M20.3636 176.834L20.0196 177.004L18.6394 174.209L18.9834 174.039L20.3636 176.834Z" fill="#864BC5"/>
<path d="M21.0753 172.311L20.7312 172.481L19.3509 169.686L19.695 169.516L21.0753 172.311Z" fill="#864BC5"/>
<path d="M23.488 195.211L23.206 194.952L25.4978 192.461L25.7797 192.721L23.488 195.211Z" fill="#864BC5"/>
<path d="M18.0173 196.004L17.7352 195.744L20.0271 193.253L20.3092 193.513L18.0173 196.004Z" fill="#864BC5"/>
<path d="M23.1288 193.06L20.4529 190.713L20.7058 190.425L23.3816 192.772L23.1288 193.06Z" fill="#864BC5"/>
<path d="M30.6239 191.638L30.9288 191.98L18.2841 193.811L18.2292 193.431L30.6239 191.638Z" fill="#864BC5"/>
<path d="M30.9387 191.979L34.312 177.222L33.9385 177.136L30.6237 191.638L30.9387 191.979Z" fill="#864BC5"/>
<path d="M31.8704 187.832L31.6417 187.524L34.3594 185.507L34.5879 185.814L31.8704 187.832Z" fill="#864BC5"/>
<path d="M33.2535 181.729L33.0248 181.421L35.7425 179.404L35.9712 179.712L33.2535 181.729Z" fill="#864BC5"/>
<path d="M32.7438 184.045L32.4308 184.266L30.3777 181.358L30.6909 181.137L32.7438 184.045Z" fill="#864BC5"/>
<path d="M40.583 201.541L28.0328 203.315L27.9777 202.935L40.3002 201.23L40.583 201.541Z" fill="#864BC5"/>
<path d="M33.2566 204.701L32.9746 204.441L35.2663 201.951L35.5483 202.21L33.2566 204.701Z" fill="#864BC5"/>
<path d="M27.7657 205.508L27.4837 205.248L29.7756 202.757L30.0576 203.017L27.7657 205.508Z" fill="#864BC5"/>
<path d="M32.8441 202.583L30.1684 200.236L30.4211 199.948L33.0969 202.295L32.8441 202.583Z" fill="#864BC5"/>
<path d="M40.5871 201.525L44.0568 186.725L43.6832 186.639L40.3033 201.216L40.5871 201.525Z" fill="#864BC5"/>
<path d="M41.6179 197.335L41.3893 197.027L44.1064 195.009L44.3351 195.317L41.6179 197.335Z" fill="#864BC5"/>
<path d="M42.9992 191.233L42.7704 190.925L45.4876 188.907L45.7164 189.214L42.9992 191.233Z" fill="#864BC5"/>
<path d="M42.4907 193.548L42.1776 193.769L40.1237 190.862L40.4367 190.641L42.4907 193.548Z" fill="#864BC5"/>
<path d="M45.1841 206.479L6.41754 167.891L6.68831 167.62L45.4552 206.207L45.1841 206.479Z" fill="#864BC5"/>
<path d="M9.17631 170.593L6.60003 170.064L6.67725 169.689L9.25353 170.218L9.17631 170.593Z" fill="#864BC5"/>
<path d="M11.7158 172.674L11.3377 172.738L10.6476 168.677L11.0257 168.612L11.7158 172.674Z" fill="#864BC5"/>
<path d="M110.792 214.622H49.0571V138.578H110.792V214.622Z" fill="#9169FF"/>
<path d="M189.915 215.011H128.181V124.298H189.915V215.011Z" fill="#9169FF"/>
<path d="M270.053 215.162H208.319V118.737H270.053V215.162Z" fill="#9169FF"/>
<path d="M242.241 112.136L238.475 112.152L238.399 94.2669L242.165 94.251L242.241 112.136Z" fill="#F8D11D"/>
<path d="M242.799 95.8172L237.779 95.8387L237.761 91.7596L242.782 91.7383L242.799 95.8172Z" fill="#F9A71F"/>
<path d="M245.865 115.886L234.883 115.933L234.867 112.168L245.849 112.121L245.865 115.886Z" fill="#F9A71F"/>
<path d="M246.588 93.448L233.969 93.5017C231.215 93.5134 228.973 91.2901 228.962 88.5361L228.864 65.5967L251.456 65.501L251.553 88.4404C251.565 91.1944 249.342 93.4363 246.588 93.448Z" fill="#F8D11D"/>
<path d="M230.044 87.5261C224.2 86.8035 219.799 84.5195 216.963 80.7369C212.45 74.7178 213.198 66.464 213.73 63.1949C213.968 61.7268 215.258 60.6564 216.795 60.65L221.26 60.6309C222.978 60.6236 224.381 61.968 224.388 63.6283C224.391 64.2751 224.966 64.7987 225.671 64.7958L228.495 64.7838L228.503 66.6212L225.679 66.6332C223.961 66.6405 222.558 65.2959 222.551 63.636C222.548 62.9892 221.972 62.4654 221.268 62.4683L216.803 62.4871C216.167 62.4898 215.637 62.9112 215.543 63.4895C215.049 66.5268 214.343 74.18 218.432 79.6346C220.957 83.0022 224.94 85.0439 230.269 85.7025L230.044 87.5261Z" fill="#F8D11D"/>
<path d="M250.039 87.4413C255.877 86.6693 260.259 84.348 263.062 80.5415C267.524 74.4845 266.706 66.2371 266.147 62.9727C265.896 61.5066 264.597 60.4472 263.06 60.4536L258.595 60.4727C256.877 60.48 255.485 61.8362 255.492 63.4965C255.495 64.1433 254.924 64.672 254.219 64.6748L251.395 64.6868L251.403 66.5242L254.227 66.512C255.945 66.5047 257.337 65.1485 257.33 63.4887C257.327 62.8419 257.898 62.3128 258.602 62.3099L263.068 62.291C263.704 62.2884 264.237 62.7053 264.336 63.2828C264.855 66.3156 265.626 73.9625 261.583 79.4516C259.087 82.8404 255.122 84.9161 249.799 85.6199L250.039 87.4413Z" fill="#F8D11D"/>
<path d="M253.345 67.0617L226.988 67.1735L226.975 64.0356L253.332 63.9238L253.345 67.0617Z" fill="#F9A71F"/>
<path d="M252.468 118.996L228.307 119.099L228.291 115.334L252.452 115.231L252.468 118.996Z" fill="#F8D11D"/>
<path d="M37.6873 87.7879L36.9445 87.9883L34.9904 88.5156C34.9904 88.5156 32.8484 84.205 33.1329 81.7026C33.1711 81.3686 33.2522 81.0667 33.3874 80.8116L36.088 81.5983C36.088 81.5983 35.4511 84.9655 37.6873 87.7879Z" fill="#F8D11D"/>
<path d="M37.6874 87.7888L36.9446 87.9891C35.4544 85.7861 34.0081 83.2756 33.1329 81.7031C33.171 81.3692 33.252 81.0673 33.3872 80.8122L36.0877 81.599C36.0877 81.599 35.4511 84.9662 37.6874 87.7888Z" fill="#F9A71F"/>
<path d="M88.3249 63.1991L88.7179 62.5379L89.7527 60.7982C89.7527 60.7982 94.292 62.3996 95.831 64.3932C96.0364 64.6596 96.1884 64.9326 96.269 65.2096L93.7837 66.5265C93.7837 66.5265 91.8954 63.6666 88.3249 63.1991Z" fill="#F8D11D"/>
<path d="M88.3249 63.199L88.7179 62.5378C91.3212 63.0805 94.1078 63.8743 95.831 64.393C96.0364 64.6593 96.1884 64.9323 96.269 65.2094L93.7837 66.5263C93.7837 66.5263 91.8954 63.6664 88.3249 63.199Z" fill="#F9A71F"/>
<path d="M160.626 18.315L156.967 15.1793C156.967 15.1793 165.275 10.659 162.887 6.89504L163.962 7.11767L166.998 7.74673C166.998 7.74673 169.153 13.1513 160.864 18.1724C160.786 18.22 160.706 18.2676 160.626 18.315Z" fill="#F44D5F"/>
<path d="M160.865 18.1726C163.259 12.443 163.976 9.08393 163.962 7.11791L166.998 7.74702C166.998 7.74702 169.154 13.1516 160.865 18.1726Z" fill="#E74857"/>
<path d="M55.8259 39.5665L55.351 42.4366C55.351 42.4366 50.4188 39.5596 49.222 41.9697L49.001 41.345L48.3762 39.5802C48.3762 39.5802 50.493 36.7777 55.6778 39.4882C55.7268 39.5139 55.7763 39.54 55.8259 39.5665Z" fill="#F44D5F"/>
<path d="M55.6779 39.4885C51.9706 40.0434 50.012 40.7233 49.0011 41.3451L48.3762 39.5802C48.3762 39.5802 50.493 36.7777 55.6779 39.4885Z" fill="#E74857"/>
<path d="M82.1754 9.7633C81.7689 9.78641 81.367 9.79719 80.9717 9.79672C76.3147 9.79276 72.5515 8.28502 72.5515 8.28502L72.4175 5.34716L72.3873 4.68533C77.2264 6.55981 82.9749 6.48553 83.5505 6.9731L82.1754 9.7633Z" fill="#A167FA"/>
<path d="M80.9717 9.79663C76.3147 9.79266 72.5515 8.2849 72.5515 8.2849L72.4175 5.34703C75.1239 6.8814 78.6955 8.67632 80.9717 9.79663Z" fill="#864BC5"/>
<path d="M158.676 105.38C158.365 108.039 156.419 109.517 155.958 109.848C155.955 109.851 155.951 109.852 155.949 109.855C155.932 109.85 155.914 109.847 155.897 109.842C155.896 109.842 155.895 109.842 155.895 109.842C150.088 108.525 140.912 106.763 129.581 106.038C126.217 105.823 123.262 105.737 120.523 105.73C111.67 105.706 105.086 106.504 94.3126 106.394C86.3669 106.314 74.5648 105.725 59.9043 103.169C60.5385 99.5357 61.1723 95.9005 61.8062 92.2669C61.8061 92.2656 61.8067 92.2649 61.8066 92.2636C81.0206 98.0702 95.9514 98.9127 106.254 98.5339C114.892 98.2164 126.387 96.8149 143.559 98.6682C149.421 99.301 154.226 100.127 157.421 100.74C157.785 101.255 158.949 103.039 158.676 105.38Z" fill="#EB6A6E"/>
<path d="M51.423 210.94H43.3628L43.4475 205.995L43.5401 200.502L43.6006 197.041L44.842 125.014L44.9588 118.292L44.979 117.115L45.112 109.381H49.6701L49.8071 117.115L49.8392 119.05L49.9481 125.478L51.1934 197.734L51.2619 201.708L51.3386 205.995L51.423 210.94Z" fill="#F8D11D"/>
<path d="M51.3384 210.831H43.4473L43.5399 205.338L43.6004 201.876L51.1932 202.57L51.2617 206.543L51.3384 210.831Z" fill="#F9A71F"/>
<path d="M49.9479 117.82L44.8418 117.357L44.9586 110.634L44.9788 109.458H49.8069L49.839 111.392L49.9479 117.82Z" fill="#F9A71F"/>
<path d="M52.7395 107.474C52.7395 110.427 50.3454 112.821 47.3922 112.821C44.4389 112.821 42.0449 110.427 42.0449 107.474C42.0449 104.521 44.4389 102.127 47.3922 102.127C50.3454 102.127 52.7395 104.521 52.7395 107.474Z" fill="#F8D11D"/>
<path d="M53.3103 187.378H41.4739C41.2095 187.378 40.9951 187.164 40.9951 186.9V186.03C40.9951 185.765 41.2095 185.551 41.4739 185.551H53.3103C53.5747 185.551 53.7891 185.765 53.7891 186.03V186.9C53.7891 187.164 53.5747 187.378 53.3103 187.378Z" fill="#F9A71F"/>
<path d="M53.3103 191.005H41.4739C41.2095 191.005 40.9951 190.791 40.9951 190.527V189.657C40.9951 189.392 41.2095 189.178 41.4739 189.178H53.3103C53.5747 189.178 53.7891 189.392 53.7891 189.657V190.527C53.7891 190.791 53.5747 191.005 53.3103 191.005Z" fill="#F9A71F"/>
<path d="M56.4485 214.618H38.3359C38.3359 210.583 41.6064 207.313 45.6405 207.313H49.144C53.1783 207.313 56.4485 210.583 56.4485 214.618Z" fill="#F8D11D"/>
<path d="M91.3325 156.503L89.4055 165.243C88.7497 165.205 88.0901 165.166 87.4343 165.129C86.8717 165.097 86.3092 165.065 85.7466 165.032C84.4226 164.955 83.0971 164.879 81.7738 164.803C80.522 164.729 79.27 164.658 78.0182 164.585C76.9727 164.526 75.9272 164.465 74.8811 164.404C74.8083 164.4 74.7346 164.395 74.6617 164.391C74.1326 164.36 73.6041 164.329 73.0757 164.298C72.3714 164.257 71.6671 164.216 70.9629 164.175C70.4465 164.146 69.9305 164.116 69.4141 164.086C68.1078 164.748 66.7315 164.088 66.4693 163.213C66.2459 162.466 66.7786 161.393 67.8828 160.963L70.8186 160.403L72.658 160.053L73.6737 159.86L77.931 159.052L80.9473 158.479L85.0045 157.707L85.3982 157.632L91.3325 156.503Z" fill="#F3AF9F"/>
<path d="M74.6214 164.388C72.8847 164.288 71.151 164.188 69.4143 164.088C68.1076 164.749 66.7318 164.089 66.4696 163.214C66.246 162.467 66.779 161.394 67.8834 160.963L72.6584 160.053L73.6743 159.86L74.8813 164.405C74.7958 164.4 74.7074 164.396 74.6214 164.388Z" fill="#F8F8F8"/>
<path d="M74.8813 164.404C74.7958 164.4 74.7074 164.396 74.6214 164.388L72.6584 160.053L73.6743 159.86L74.8813 164.404Z" fill="#E6DCE2"/>
<path d="M85.3982 157.632L85.7467 165.032C84.4227 164.956 83.0971 164.879 81.7738 164.803C80.5219 164.73 79.2699 164.658 78.018 164.586L77.9309 159.052L85.3982 157.632Z" fill="#F4948B"/>
<path d="M59.9883 174.785L62.4385 155.795L69.6735 160.33L69.6438 160.532C68.1423 160.488 66.9574 161.106 66.6954 161.979C66.6702 162.064 66.4789 162.69 66.8245 163.126C67.3163 163.751 68.4555 163.432 68.8361 164.064C68.9647 164.28 68.9522 164.517 68.9297 164.663C68.3216 165.491 67.7955 166.29 67.3368 167.035C67.2422 167.19 67.1481 167.341 67.0574 167.493C66.8541 167.829 66.6666 168.153 66.4847 168.46C66.4333 168.557 66.3786 168.649 66.3238 168.742C66.1124 169.112 65.9153 169.457 65.7322 169.774C65.6284 169.946 65.5324 170.111 65.4337 170.269C65.3655 170.385 65.2982 170.493 65.2312 170.598C63.605 173.147 61.9977 175.549 61.6532 175.657C60.9128 175.885 59.9883 174.785 59.9883 174.785Z" fill="#C5ACA9"/>
<path d="M63.8367 155.976C62.8617 162.616 61.8866 169.256 60.9116 175.895C60.8811 175.925 60.5976 176.193 60.1693 176.138C60.1256 176.132 59.7278 176.074 59.5129 175.715C60.3715 169.06 61.2299 162.405 62.0885 155.751C62.1517 155.707 62.6112 155.402 63.1803 155.553C63.5463 155.651 63.7608 155.885 63.8367 155.976Z" fill="#3D3936"/>
<path d="M148.262 129.709L138.125 140.678L135.914 143.072L135.197 143.847L132.243 147.044L120.906 159.312C120.043 160.246 118.888 160.859 117.631 161.052C112.207 161.881 106.784 162.71 101.36 163.539C95.0602 164.502 88.7607 165.465 82.461 166.428C82.1515 166.476 81.8416 166.523 81.5321 166.57C80.51 163.878 79.4877 161.186 78.4656 158.494C79.4819 158.109 80.4981 157.723 81.5142 157.338C90.2495 154.025 98.9851 150.713 107.72 147.4C108.429 147.131 109.138 146.862 109.846 146.594C109.967 146.548 110.087 146.502 110.207 146.457C110.207 146.457 113.015 141.636 116.994 135.32C119.158 131.885 121.667 128.009 124.261 124.224C124.915 123.269 125.575 122.321 126.235 121.387C128.066 118.795 129.906 116.315 131.665 114.13C132.31 113.328 132.944 112.566 133.564 111.853C138.585 113.276 144.524 116.556 147.532 118.329C147.775 122.123 148.019 125.915 148.262 129.709Z" fill="#3D3936"/>
<path d="M140.702 115.706L138.125 140.677L135.196 143.846L132.242 147.042L116.994 135.319C119.703 131.019 122.955 126.024 126.235 121.386C128.066 118.794 129.906 116.314 131.665 114.129L140.702 115.706Z" fill="#22201F"/>
<path d="M135.913 143.07L135.196 143.846L132.242 147.043L120.905 159.311C120.042 160.245 118.887 160.858 117.63 161.051C112.206 161.88 106.783 162.709 101.359 163.539C106.741 161.794 113.623 159.4 115.738 157.929C119.372 155.404 129.518 140.475 129.518 140.475L135.913 143.07Z" fill="#22201F"/>
<path d="M109.845 146.593L108.268 152.549L107.719 147.399C108.428 147.13 109.137 146.862 109.845 146.593Z" fill="#22201F"/>
<path d="M82.4593 166.428C82.1498 166.476 81.8399 166.523 81.5304 166.571C80.5084 163.879 79.4861 161.186 78.4641 158.495C79.4805 158.109 80.4967 157.723 81.5128 157.338C81.5274 160.351 81.9815 163.84 82.4593 166.428Z" fill="#22201F"/>
<path d="M80.2789 163.077L80.1859 162.749C80.4844 162.664 110.076 154.278 113.05 152.346C116.022 150.417 130.85 130.753 130.999 130.554L131.272 130.759C130.66 131.571 116.258 150.67 113.236 152.632C110.218 154.592 81.5 162.731 80.2789 163.077Z" fill="#22201F"/>
<path d="M148.592 208.969C147.83 209.14 146.797 208.534 146.444 207.403L145.745 201.549L145.391 198.57L144.87 194.198L144.382 190.107L144.381 190.097L143.618 183.701L152.204 186.229C152.121 186.881 152.036 187.535 151.954 188.187C151.952 188.199 151.951 188.211 151.95 188.223C151.712 190.084 151.474 191.95 151.236 193.811C151.116 194.751 150.996 195.692 150.875 196.633C150.705 197.975 150.534 199.317 150.362 200.659C150.128 202.471 149.898 204.28 149.667 206.091C150.237 207.441 149.483 208.767 148.592 208.969Z" fill="#F3AF9F"/>
<path d="M150.328 200.918C150.107 202.643 149.887 204.366 149.667 206.091C150.237 207.441 149.482 208.768 148.592 208.969C147.831 209.14 146.797 208.534 146.444 207.403L145.867 202.576L145.745 201.549L150.362 200.66C150.352 200.745 150.341 200.833 150.328 200.918Z" fill="#F8F8F8"/>
<path d="M150.362 200.66C150.351 200.745 150.341 200.833 150.328 200.918L145.867 202.576L145.745 201.549L150.362 200.66Z" fill="#E6DCE2"/>
<path d="M150.875 196.633L145.39 198.571L144.87 194.198L144.382 190.107L151.949 188.223C151.712 190.085 151.474 191.95 151.236 193.811C151.116 194.751 150.995 195.692 150.875 196.633Z" fill="#F4948B"/>
<path d="M161.62 212.131L142.474 212.084L146.064 204.337L146.269 204.341C146.413 205.836 147.175 206.934 148.074 207.084C148.162 207.099 148.807 207.21 149.196 206.812C149.754 206.246 149.295 205.155 149.874 204.698C150.072 204.544 150.308 204.527 150.456 204.531C151.354 205.03 152.213 205.452 153.009 205.813C153.175 205.888 153.337 205.962 153.499 206.033C153.858 206.192 154.203 206.338 154.53 206.48C154.632 206.519 154.731 206.561 154.83 206.604C155.224 206.767 155.591 206.92 155.929 207.061C156.112 207.143 156.288 207.217 156.457 207.295C156.58 207.348 156.696 207.402 156.809 207.455C159.542 208.748 162.126 210.041 162.277 210.37C162.596 211.076 161.62 212.131 161.62 212.131Z" fill="#C5ACA9"/>
<path d="M142.477 210.674C149.187 210.808 155.896 210.941 162.606 211.075C162.639 211.102 162.941 211.35 162.94 211.781C162.939 211.825 162.932 212.227 162.602 212.486C155.893 212.469 149.183 212.453 142.473 212.436C142.422 212.379 142.062 211.962 142.14 211.378C142.191 211.002 142.396 210.76 142.477 210.674Z" fill="#3D3936"/>
<path d="M151.941 57.5008C151.938 57.5763 151.932 57.6516 151.932 57.7241C151.931 57.7489 151.93 57.7744 151.929 57.7963C151.873 60.1303 151.78 61.3001 151.738 62.0273C151.707 62.5374 151.661 63.1643 151.584 63.8975C151.559 64.1275 151.532 64.3696 151.501 64.6215C151.459 64.9745 151.409 65.3478 151.352 65.7396C150.541 66.2121 148.705 67.1407 146.192 67.1681C146.049 67.1697 145.908 67.1684 145.77 67.164L141.381 65.5391C141.609 64.5305 141.799 63.7075 141.933 63.1343C142.047 62.6478 142.146 62.2323 142.265 61.7358C142.363 61.326 142.474 60.8611 142.619 60.2562C142.726 59.8209 142.851 59.3122 142.999 58.6981C143.196 57.8921 143.39 57.089 143.581 56.2829C145.809 56.6064 148.035 56.9334 150.256 57.2575C150.713 57.324 151.174 57.3932 151.634 57.456C151.736 57.4717 151.838 57.488 151.941 57.5008Z" fill="#F8928C"/>
<path d="M151.929 57.796C151.873 60.1302 151.78 61.2998 151.737 62.0269C151.706 62.5367 151.661 63.1639 151.583 63.8971L142.619 60.2566C142.726 59.8215 142.851 59.3124 142.999 58.6983C143.196 57.8921 143.39 57.0889 143.581 56.2832C145.809 56.6068 148.034 56.9333 150.256 57.2575C150.713 57.3236 151.174 57.3927 151.634 57.4555L151.929 57.796Z" fill="#E6817A"/>
<path d="M197.057 28.654C195.156 29.4061 193.254 30.1582 191.354 30.9111C190.816 31.3312 190.279 31.7522 189.743 32.1739L188.532 33.1245C187.663 33.8083 186.793 34.4922 185.923 35.1745C185.845 35.2378 185.763 35.2993 185.685 35.3626C185.634 35.4019 185.585 35.4404 185.534 35.4797C184.545 35.0452 184.254 34.9182 183.42 34.5516C183.317 34.5056 183.202 34.4573 183.08 34.4027L182.784 30.6227L182.783 30.615L182.784 30.6131L182.778 30.5374L182.711 29.6839C183.376 28.4565 184.041 27.2316 184.702 26.0011C184.713 25.9826 184.723 25.9627 184.734 25.9443L184.735 25.9436C184.735 25.943 184.735 25.9415 184.736 25.9408C184.796 25.8298 184.856 25.7182 184.916 25.6065C184.955 25.5353 184.993 25.4637 185.031 25.3925C185.205 25.0695 185.379 24.7464 185.554 24.4235C185.766 24.0298 185.979 23.6358 186.193 23.2416C186.358 22.9354 186.524 22.6282 186.69 22.3221L186.69 22.3208C188.075 19.7561 189.459 17.1911 190.844 14.6265C190.936 14.4537 191.147 14.3769 191.328 14.4518C191.431 14.4949 191.533 14.5379 191.636 14.5775C191.831 14.6589 191.928 14.8774 191.853 15.0753C190.715 18.052 189.578 21.0336 188.443 24.0129L188.443 24.0135C188.443 24.0141 188.442 24.015 188.442 24.0156L190.85 21.2007L194.667 16.738C194.813 16.5632 195.086 16.5869 195.204 16.782C195.271 16.8948 195.34 17.0078 195.406 17.1182C195.472 17.2247 195.469 17.359 195.404 17.4667C193.471 20.5648 191.542 23.6698 189.609 26.7714C189.609 26.7721 189.609 26.772 189.608 26.7726C189.607 26.7731 189.607 26.774 189.606 26.7746L189.606 26.7752C189.685 26.7306 189.764 26.6858 189.842 26.6411C189.863 26.6286 189.884 26.6172 189.906 26.6048C189.963 26.5726 190.02 26.5401 190.077 26.5078C190.234 26.4198 190.392 26.33 190.549 26.2414C190.863 26.0628 191.178 25.884 191.491 25.7044C193.021 24.8478 194.545 23.9841 196.072 23.12C196.268 23.0096 196.519 23.073 196.637 23.268C196.685 23.3506 196.736 23.4358 196.787 23.5181C196.893 23.6951 196.854 23.9218 196.698 24.0553C194.706 25.7219 192.721 27.3908 190.733 29.0573C191.071 28.9814 191.411 28.9052 191.751 28.8304C191.92 28.7922 192.09 28.7548 192.26 28.7173C192.43 28.6798 192.599 28.6431 192.767 28.6054L192.769 28.6049L192.778 28.6041C194.122 28.304 195.46 28.0058 196.804 27.7023C197.045 27.6481 197.283 27.8218 197.302 28.0728L197.315 28.241C197.33 28.4225 197.225 28.59 197.057 28.654Z" fill="#F5AE9F"/>
<path d="M186.524 29.8621L186.69 22.3205C186.027 23.5495 185.362 24.7737 184.704 26.0024L186.524 29.8621Z" fill="#F4948B"/>
<path d="M188.987 24.923L190.851 21.1985L188.441 24.0161L188.987 24.923Z" fill="#F4948B"/>
<path d="M190.151 27.6801L191.493 25.7056C190.865 26.063 190.233 26.4206 189.606 26.7733L190.151 27.6801Z" fill="#F4948B"/>
<path d="M190.807 30.0025L192.768 28.6064C192.091 28.754 191.41 28.9066 190.733 29.059L190.807 30.0025Z" fill="#F4948B"/>
<path d="M188.532 33.1243C187.663 33.8081 186.793 34.492 185.922 35.1743C185.845 35.2376 185.763 35.2991 185.685 35.3624C185.634 35.4017 185.585 35.4402 185.534 35.4795C184.545 35.045 184.254 34.9181 183.42 34.5514C183.317 34.5054 183.202 34.4571 183.08 34.4026L182.784 30.6225L182.783 30.6149C182.776 30.5864 182.768 30.5578 182.76 30.5293L182.778 30.5372L185.383 31.7082L188.532 33.1243Z" fill="#F4948B"/>
<path d="M185.383 31.7086C184.781 32.9298 183.987 33.8575 183.987 33.8575C183.987 33.8575 183.417 32.9094 182.783 30.6152C182.776 30.5868 182.768 30.5582 182.76 30.5297C182.524 29.6664 182.282 28.6177 182.057 27.3624C181.216 22.681 180.199 21.811 180.199 21.811C180.199 21.811 181.106 21.2661 181.615 21.7006C181.963 21.9982 183.554 23.9792 184.734 25.9438L184.734 25.9444L184.735 25.9445C185.278 26.8499 185.734 27.7512 185.941 28.4835C185.967 28.5743 185.987 28.6662 186.003 28.7591C186.172 29.7311 185.83 30.8006 185.383 31.7086Z" fill="#F5AE9F"/>
<path d="M187.192 35.3076L187.043 36.8589L186.849 38.8851C186.756 39.8553 186.444 40.7919 185.939 41.6256C182.173 47.8451 177.794 54.4694 172.714 61.3181C169.883 65.1337 167.055 68.7202 164.266 72.0833C163.578 72.9123 162.892 73.7285 162.21 74.5312C160.481 76.5649 158.769 78.5119 157.084 80.3729L150.372 74.2139L144.493 68.8197C145.513 67.8173 146.532 66.8143 147.552 65.812C150.115 63.2901 152.679 60.7689 155.243 58.2471C158.003 55.5321 160.763 52.8172 163.524 50.1022C168.081 44.2904 172.637 38.4783 177.194 32.6658C178.808 30.6076 181.834 30.3642 183.756 32.1382L187.192 35.3076Z" fill="#EDEBEB"/>
<path d="M164.267 72.0836C161.836 75.0153 159.435 77.7775 157.085 80.373L150.372 74.2139L147.551 65.8121C150.115 63.2903 152.679 60.7692 155.242 58.2474L164.267 72.0836Z" fill="#DBD2D8"/>
<path d="M187.043 36.8588L186.849 38.8849C186.756 39.8552 186.444 40.7917 185.939 41.6255C182.173 47.845 177.794 54.4693 172.713 61.3179C169.882 65.1335 167.055 68.7201 164.266 72.0831C163.578 72.9121 162.892 73.7283 162.21 74.531L159.823 69.9441L182.182 43.7786L187.043 36.8588Z" fill="#DBD2D8"/>
<path d="M160.202 80.2642C160.161 80.4513 160.118 80.6377 160.077 80.8249C159.148 84.9943 158.219 89.1648 157.289 93.3342C156.378 97.4248 155.466 101.515 154.555 105.606C154.357 106.493 154.159 107.379 153.962 108.266C144.683 106.796 136.34 107.352 127.062 105.882C127.256 104.113 126.517 100.317 126.711 98.5485C127.785 88.7691 128.86 78.9896 129.934 69.2102C135.459 63.8718 143.189 61.8301 150.059 64.0063C150.275 64.0756 150.489 64.1475 150.699 64.2223C157.267 66.5758 161.167 73.3545 160.202 80.2642Z" fill="#EDEBEB"/>
<path d="M137.846 63.6086L151.223 68.5918L135.005 66.3237L137.846 63.6086Z" fill="#DBD2D8"/>
<path d="M152.122 64.8154L151.277 69.203L145.769 67.1639L141.381 65.5391L139.176 64.7236L141.352 61.4511L142.264 61.7357L151.501 64.6209L152.122 64.8154Z" fill="#EDEBEB"/>
<path d="M154.563 106.496C154.362 107.086 152.691 110.959 152.491 111.549C150.615 116.499 142.654 116.359 138.621 115.303C133.957 114.082 128.488 108.236 127.015 105.946C127.21 104.177 126.515 100.317 126.709 98.5479C131.232 99.5929 135.945 100.798 140.821 102.191C145.637 103.567 150.22 105.014 154.563 106.496Z" fill="#DBD2D8"/>
<path d="M160.078 80.8243C159.149 84.9936 158.22 89.1639 157.291 93.3332L152.877 73.374L155.933 73.1048L160.078 80.8243Z" fill="#DBD2D8"/>
<path d="M153.722 68.987L152.877 73.3742C154.411 74.4712 155.945 75.5684 157.48 76.6655C157.761 75.2031 158.043 73.7407 158.325 72.2783C157.642 71.5171 156.958 70.7555 156.275 69.9943C155.424 69.6585 154.573 69.3229 153.722 68.987Z" fill="#3D3936"/>
<path d="M131.313 104.92L130.706 104.828L134.214 81.7233L134.82 81.8156L131.313 104.92Z" fill="#DBD2D8"/>
<path d="M151.239 107.533L150.661 107.326C154.042 97.8956 155.556 80.0068 155.571 79.827L156.183 79.8778C156.168 80.058 154.647 98.0268 151.239 107.533Z" fill="#DBD2D8"/>
<path d="M154.244 193.951C153.786 194.216 153.262 194.497 152.675 194.775C151.585 195.289 150.276 195.789 148.763 196.157C145.384 196.978 142.496 196.769 140.698 196.49C140.645 195.944 140.592 195.397 140.54 194.851C139.499 184.061 138.453 173.271 137.419 162.48C137.375 162.021 137.33 161.561 137.287 161.102C136.664 158.993 136.048 157.006 135.448 155.151C133.856 150.217 132.389 146.22 131.294 143.359C127.681 133.924 124.615 127.751 123.011 122.478C121.822 118.568 121.437 115.154 122.229 111.273C122.636 109.273 123.286 107.501 124.006 105.981C124.759 104.406 125.02 102.672 125.741 101.659C125.9 101.436 126.444 99.9812 126.592 99.7872C130.933 101.471 137.381 104.329 143.368 106.76C146.943 108.211 150.213 109.75 153.177 111.297C152.26 113.277 151.343 115.26 150.429 117.24C150.12 117.907 149.812 118.572 149.504 119.238C149.216 119.86 148.928 120.482 148.64 121.106L149.235 125.536L154.269 163.003L154.244 193.951Z" fill="#3D3936"/>
<path d="M143.228 168.366L137.419 162.48C137.375 162.021 137.33 161.561 137.287 161.102C136.664 158.993 136.048 157.006 135.448 155.151L143.228 168.366Z" fill="#22201F"/>
<path d="M149.235 125.536L144.765 110.488L149.504 119.238C149.216 119.86 148.928 120.482 148.64 121.106L149.235 125.536Z" fill="#22201F"/>
<path d="M152.557 112.595C151.991 113.973 151.425 115.35 150.859 116.728C141.908 113.146 132.957 109.563 124.006 105.98C124.595 104.38 125.056 102.927 125.687 101.716C134.437 105.218 143.807 109.093 152.557 112.595Z" fill="#9F7968"/>
<path d="M130.131 103.292L127.145 107.898L128.297 108.645L131.351 103.429L130.131 103.292Z" fill="#3D3936"/>
<path d="M145.373 109.467L143.066 114.448L144.311 115.025L146.6 109.431L145.373 109.467Z" fill="#3D3936"/>
<path d="M152.675 194.776C151.585 195.29 150.276 195.79 148.763 196.158C145.384 196.978 142.496 196.768 140.698 196.489C140.645 195.943 140.592 195.397 140.539 194.851C144.536 195.306 149.526 195.037 152.675 194.776Z" fill="#22201F"/>
<path d="M145.475 196.433C145.463 196.154 144.294 168.496 143.095 162.881C141.894 157.255 130.08 109.373 129.961 108.89L130.292 108.809C130.411 109.292 142.227 157.179 143.429 162.81C144.633 168.453 145.804 196.14 145.815 196.419L145.475 196.433Z" fill="#22201F"/>
<path d="M128.993 2.80051C128.455 5.66505 127.917 8.53 127.378 11.393C127.378 11.3936 127.378 11.3936 127.378 11.3943C127.313 11.7373 127.25 12.0794 127.186 12.4224C127.103 12.8629 127.021 13.3035 126.938 13.7432C126.862 14.145 126.787 14.5468 126.71 14.9492C126.703 14.9871 126.696 15.0258 126.689 15.0637C126.665 15.1877 126.642 15.3124 126.618 15.4371C126.618 15.4378 126.618 15.4391 126.618 15.4397C126.618 15.4397 126.618 15.4399 126.618 15.4406C126.615 15.4616 126.61 15.484 126.607 15.505C126.346 16.877 126.092 18.2473 125.836 19.6197L125.195 20.2966L125.189 20.3032L124.992 20.5108L122.58 23.0545C122.45 23.0204 122.33 22.9851 122.222 22.9565C121.342 22.7164 121.037 22.632 119.995 22.3461C119.979 22.2841 119.967 22.2238 119.951 22.1604C119.93 22.0627 119.906 21.9635 119.885 21.8658C119.594 20.5953 119.305 19.3235 119.016 18.0523C118.945 17.744 118.875 17.4364 118.805 17.1288C118.653 16.4632 118.501 15.7986 118.348 15.1336C117.345 13.3528 116.34 11.5706 115.336 9.7904C115.247 9.63491 115.271 9.4386 115.395 9.3068L115.512 9.18404C115.685 9.00149 115.979 9.01596 116.133 9.21067C116.986 10.2918 117.838 11.3657 118.693 12.4449L118.7 12.4512L118.7 12.4527C118.916 12.7234 119.133 12.9948 119.349 13.2677C119.566 13.5397 119.782 13.8128 119.996 14.0841C119.5 11.538 119.009 8.99137 118.51 6.44252C118.473 6.2404 118.585 6.04006 118.779 5.96943C118.871 5.93733 118.964 5.90331 119.053 5.86982C119.267 5.7917 119.503 5.90094 119.585 6.11007C120.228 7.74241 120.868 9.37244 121.518 11.0015C121.649 11.338 121.781 11.6747 121.913 12.0112C121.979 12.1796 122.045 12.3476 122.111 12.516C122.177 12.6837 122.243 12.8511 122.309 13.0189L122.309 13.0162C122.76 9.38825 123.215 5.76177 123.663 2.1366C123.679 2.01233 123.763 1.9063 123.881 1.865C124.001 1.82112 124.126 1.77674 124.249 1.73073C124.463 1.65331 124.69 1.80727 124.694 2.03455L124.851 7.90553L124.851 7.9062L124.95 11.6076C124.951 11.6076 124.951 11.607 124.951 11.6063L124.951 11.605C125.945 8.57599 126.938 5.54295 127.926 2.51371C127.994 2.31348 128.206 2.20404 128.409 2.26414C128.514 2.29733 128.62 2.32814 128.727 2.36006C128.915 2.41542 129.031 2.60805 128.993 2.80051Z" fill="#F5AE9F"/>
<path d="M122.761 17.3581L127.378 11.3935C127.121 12.7663 126.866 14.1353 126.605 15.5048L122.761 17.3581Z" fill="#F4948B"/>
<path d="M123.956 11.9703L124.851 7.90264L124.951 11.609L123.956 11.9703Z" fill="#F4948B"/>
<path d="M121.316 13.3799L121.517 11.0012C121.779 11.6738 122.045 12.3494 122.31 13.0185L121.316 13.3799Z" fill="#F4948B"/>
<path d="M119.345 14.7718L118.7 12.4526C119.133 12.9933 119.566 13.5407 119.996 14.0849L119.345 14.7718Z" fill="#F4948B"/>
<path d="M124.992 20.511L122.58 23.0543C122.45 23.0202 122.33 22.9849 122.222 22.9563C121.342 22.7161 121.036 22.6317 119.995 22.3458C119.979 22.2838 119.966 22.2234 119.951 22.1601C119.93 22.0624 119.906 21.9632 119.885 21.8655C119.593 20.595 119.304 19.3233 119.015 18.0522C120.077 18.4418 121.317 18.9432 122.502 19.4411C123.37 19.8057 124.21 20.1686 124.93 20.484C124.951 20.493 124.972 20.502 124.992 20.511Z" fill="#F4948B"/>
<path d="M122.218 22.0599C122.218 22.0599 124.207 21.3372 127.806 18.2281C131.405 15.1189 132.743 15.0829 132.743 15.0829C132.743 15.0829 132.382 14.0883 131.713 14.1062C131.044 14.1242 126.053 15.2621 124.082 16.6539C122.11 18.0457 122.218 22.0599 122.218 22.0599Z" fill="#F5AE9F"/>
<path d="M143.951 68.2836C143.432 70.4057 141.251 78.3062 134.503 81.4521C134.415 81.4922 134.328 81.5325 134.24 81.5714C133.387 81.946 132.397 82.2755 131.259 82.489C127.039 72.5391 122.819 62.5889 118.599 52.639C118.037 48.7556 117.475 44.8719 116.912 40.9883C116.393 37.3995 115.873 33.8104 115.354 30.2215C115.175 28.9876 115.355 27.7288 115.869 26.593L117.765 22.4147L118.237 21.3725L125.067 21.1149L127.385 25.3438L128.195 26.8212C128.556 27.4797 128.8 28.1961 128.918 28.9375C129.839 34.7652 130.76 40.5918 131.681 46.4188C131.773 46.9955 131.864 47.5726 131.955 48.1492C132.309 48.7432 132.663 49.3379 133.017 49.9319C136.662 56.0493 140.306 62.1662 143.951 68.2836Z" fill="#EDEBEB"/>
<path d="M133.017 49.9314L131.899 52.1792L131.681 46.4185C131.773 46.9951 131.863 47.5722 131.955 48.1488C132.309 48.7428 132.663 49.3374 133.017 49.9314Z" fill="#DBD2D8"/>
<path d="M138.437 78.9556C137.988 79.9109 136.254 83.3639 133.694 83.4339C132.502 83.4665 131.424 82.8821 131.257 82.4887C127.038 72.5388 122.818 62.5887 118.598 52.6389C118.035 48.7555 117.474 44.8719 116.912 40.9883L121.496 53.1859C127.143 61.7757 132.79 70.3658 138.437 78.9556Z" fill="#DBD2D8"/>
<path d="M127.386 25.344L117.765 22.4151L118.238 21.3728L125.068 21.115L127.386 25.344Z" fill="#DBD2D8"/>
<path d="M156.035 59.4824C155.473 60.0859 154.523 60.1738 152.858 60.0862C151.071 59.8006 146.059 58.9292 145.455 57.9578C145.34 57.7718 145.226 57.5233 145.117 57.2327C144.604 55.8744 144.172 53.5836 144.007 52.3226C143.98 52.134 143.962 51.9698 143.949 51.8332C143.912 51.4297 143.544 51.3879 143.067 51.5108C143.079 51.1589 143.102 50.8027 143.131 50.4399C143.211 49.4736 143.332 48.545 143.488 47.6633C143.827 45.7225 144.321 43.9908 144.863 42.4912C145.08 41.8898 145.304 41.3257 145.53 40.8001C146.349 40.4482 147.981 39.9064 149.881 40.3979C150.671 40.6029 151.371 40.9477 151.99 41.3763C152.769 41.9156 153.419 42.5885 153.953 43.2856C155.24 44.9628 155.858 46.7792 155.994 47.2022C156.305 48.1662 156.392 49.8431 156.552 53.1673C156.552 53.2082 156.556 53.248 156.558 53.2922C156.651 55.2535 156.65 56.5634 156.589 57.4585C156.5 58.8694 156.259 59.2362 156.035 59.4824Z" fill="#FABCB1"/>
<path d="M156.111 47.8901C156.272 48.2383 156.526 48.7646 156.876 49.3854C157.836 51.0905 158.581 51.8511 158.292 52.3556C158.224 52.4742 157.983 52.5752 157.503 52.7728C156.634 53.1304 156.199 53.3092 155.979 53.2268C155.58 53.0776 155.354 51.9924 156.111 47.8901Z" fill="#FABCB1"/>
<path d="M156.608 53.7758C156.61 53.8288 156.615 53.8817 156.617 53.9378C156.766 56.4955 156.802 58.2024 156.766 59.3678C156.75 59.9393 156.719 60.3807 156.672 60.7263C156.573 61.484 156.415 61.7745 156.266 61.9917C156.153 62.1526 156.021 62.2836 155.867 62.3855C155.291 62.7864 154.419 62.8139 153.099 62.6885C151.3 62.266 146.249 60.9913 145.616 59.7061C145.354 59.1697 145.087 58.2484 144.849 57.2023C144.669 56.4047 144.501 55.5369 144.362 54.7134C144.287 54.2787 144.22 53.8559 144.162 53.4634L143.781 53.4142L143.815 51.9138C143.815 51.9138 144.471 52.0005 145.5 52.1152C145.8 52.1499 146.132 52.1851 146.49 52.2242L146.547 52.8422C148.345 53.0111 150.142 53.1769 151.939 53.3428C153.497 53.487 155.051 53.6315 156.608 53.7758Z" fill="#74584D"/>
<path d="M156.01 55.8459C154.716 55.6663 152.533 54.125 152.533 54.125C154.592 54.819 155.772 54.5803 156.122 54.4755L156.01 55.8459Z" fill="white"/>
<path d="M142.518 50.3712C143.502 50.0225 144.485 49.6741 145.468 49.3254C145.412 50.3672 145.355 51.4085 145.299 52.4503C146.168 52.7384 147.036 53.0263 147.904 53.3144C147.958 50.826 148.012 48.3379 148.066 45.8495L148.498 44.5469C149.148 44.7324 150.272 44.9547 151.622 44.716C152.224 44.6097 153.793 44.3098 155.091 42.975C155.466 42.5899 156.425 41.6036 156.562 40.282C156.759 38.3916 155.222 36.3264 152.735 35.2534C152.188 36.5001 151.227 38.0973 149.53 38.8167C147.433 39.7057 146.195 38.414 143.976 38.9987C141.068 39.765 138.051 43.3389 138.867 46.5576C139.47 48.9352 141.907 50.0993 142.518 50.3712Z" fill="#74584D"/>
<path d="M156.67 60.7101C156.569 61.4751 156.407 61.7685 156.255 61.988C156.139 62.1505 156.005 62.2829 155.848 62.3859C155.26 62.7911 154.371 62.8195 153.025 62.6943C151.191 62.2694 146.043 60.9874 145.399 59.6905C145.132 59.1492 144.86 58.2195 144.619 57.1636C142.867 56.9398 141.117 56.1085 139.813 54.5786C137.929 52.3688 137.747 49.6096 137.725 49.1596C137.591 46.7184 138.443 44.7772 139.245 43.5079C140.359 45.4378 142.438 48.7427 145.287 52.027C146.509 53.438 147.876 54.8484 149.372 56.1393C151.548 58.025 154 59.6638 156.67 60.7101Z" fill="#644D43"/>
<path d="M146.274 48.7337C146.274 48.7337 144.778 47.2837 143.499 47.6454C143.392 47.6755 143.014 47.8041 142.679 48.1568C141.926 48.9497 141.93 50.3271 142.521 51.2621C142.604 51.3932 143.132 52.1999 144.165 52.4153C144.333 52.4502 145.019 52.5932 145.57 52.2931C146.432 51.823 146.817 50.345 146.274 48.7337Z" fill="#FABCB1"/>
<path d="M144.255 51.7166C143.725 51.6664 143.232 51.376 142.937 50.9396C142.619 50.4682 142.547 49.8584 142.736 49.2226C142.841 48.8665 143.051 48.6142 143.36 48.4736C144.116 48.1283 145.199 48.6128 145.245 48.6338L145.069 49.0209C145.06 49.0164 144.115 48.5948 143.536 48.8606C143.342 48.9493 143.213 49.1075 143.143 49.3436C142.949 49.9995 143.115 50.444 143.289 50.7016C143.514 51.0336 143.89 51.2551 144.295 51.2933L144.255 51.7166Z" fill="#F8A399"/>
<path d="M156.01 55.8454C154.715 55.6658 152.532 54.1245 152.532 54.1245C154.591 54.8185 155.771 54.5798 156.121 54.4748L156.01 55.8454Z" fill="white"/>
<path d="M155.317 50.7826L152.453 51.0471C152.387 51.0533 152.328 51.0041 152.322 50.9376L152.286 50.5578C152.28 50.4913 152.329 50.4322 152.396 50.4259L155.26 50.1614C155.326 50.1552 155.385 50.2046 155.392 50.2712L155.427 50.6507C155.433 50.7172 155.384 50.7763 155.317 50.7826Z" fill="#F6AFA7"/>
<path d="M154.984 49.2482C155.01 49.5375 154.798 49.7937 154.508 49.8205C154.219 49.8473 153.963 49.6344 153.936 49.3451C153.909 49.0558 154.122 48.7995 154.411 48.7727C154.701 48.7459 154.957 48.9589 154.984 49.2482Z" fill="#3E3A35"/>
<path d="M155.975 47.5931L153.638 48.3154C153.424 48.3817 153.195 48.2604 153.128 48.0462C153.062 47.832 153.183 47.6026 153.397 47.5363L155.734 46.8139C155.948 46.7476 156.178 46.8688 156.244 47.083C156.311 47.2972 156.189 47.5268 155.975 47.5931Z" fill="#74584D"/>
<path d="M159.899 94.1484C157.224 87.6902 155.531 73.5923 155.531 73.5923L156.75 73.7342L165.006 92.5053L165.055 92.6189C165.055 92.6189 166.06 95.6889 164.951 96.3353C163.3 97.2972 160.628 95.9081 159.899 94.1484Z" fill="#3D3936"/>
<path d="M174.769 106.515C174.769 106.515 172.296 106.816 170.483 106.918C169.563 106.97 168.813 106.971 168.641 106.856C168.13 106.516 161.906 99.0957 160.05 94.1919C159.52 92.7934 160.736 91.0372 162.598 90.8962C163.968 90.7923 165.583 93.6261 165.583 93.6261L165.576 93.75L167.086 95.4522L167.091 95.458L173.577 102.771L174.769 106.515Z" fill="#3D3936"/>
<path d="M174.769 106.515C174.769 106.515 172.295 106.816 170.483 106.918L171.705 104.473L165.917 95.4521L167.086 95.4522L167.091 95.458L173.577 102.771L174.769 106.515Z" fill="#22201F"/>
<path d="M167.091 95.4582C164.997 95.0591 162.904 94.6601 160.81 94.2611C162.401 94.0495 163.992 93.8378 165.583 93.6262L165.576 93.7501L167.091 95.4582Z" fill="#22201F"/>
<path d="M157.773 110.444C157.166 113.818 143.446 108.718 122.359 111.965C106.658 114.383 99.6315 117.867 84.3494 121.341C75.7414 123.299 62.8233 125.751 46.265 127.036L45.258 116.006C67.6497 116.699 84.0191 113.69 95.0446 110.685C104.29 108.166 116.317 103.867 135.392 101.261C141.903 100.371 153.18 101.482 156.804 101.256C156.532 102.311 156.278 103.806 156.445 105.561C156.558 106.745 156.82 107.61 157.084 108.283C157.48 109.291 157.876 109.869 157.773 110.444Z" fill="#EB6A6E"/>
</svg>
