<svg width="72" height="72" viewBox="0 0 72 72" fill="none" xmlns="http://www.w3.org/2000/svg">
<rect width="72" height="72" fill="#C7C7C7"/>
<g id="OTP Verified" clip-path="url(#clip0_0_1)">
<rect width="360" height="800" transform="translate(-144 -259)" fill="#272239"/>
<g id="Frame 1000007517">
<g id="Frame 1000007495">
<g id="warning 1" clip-path="url(#clip1_0_1)">
<path id="Vector" d="M70.5538 54.0731L45.0765 7.20078C43.1339 3.99143 39.7558 2.04883 35.9974 2.04883C32.2391 2.04883 28.861 3.99143 26.9184 7.20078C26.9184 7.24268 26.8765 7.24268 26.8765 7.28515L1.4835 53.9888C-0.458821 57.3248 -0.501009 61.2943 1.39912 64.6303C3.29925 67.9661 6.71954 69.951 10.5624 69.951H61.4323C65.2752 69.951 68.6956 67.9662 70.5956 64.6303C72.496 61.2941 72.4538 57.3247 70.5538 54.0731Z" fill="#FEA832"/>
<path id="Vector_2" d="M10.5614 65.728C8.22327 65.728 6.2233 64.565 5.06862 62.5404C3.91395 60.5136 3.93448 58.1692 5.13458 56.1115L30.3353 9.76419L31.1188 8.96221L31.1228 8.55594C32.3352 7.11045 34.092 6.27148 35.9972 6.27148C38.2404 6.27148 40.286 7.43642 41.4654 9.38704L66.8397 56.0826C68.0603 58.1735 68.0644 60.5426 66.9263 62.5404C65.7716 64.5653 63.7717 65.728 61.4335 65.728H10.5614Z" fill="#FEDB41"/>
<path id="Vector_3" d="M70.5956 64.6299C68.6955 67.9657 65.2752 69.9506 61.4323 69.9506H35.9973V2.04883C39.7555 2.04883 43.1338 3.99143 45.0764 7.20078L70.5537 54.073C72.4537 57.3245 72.4959 61.294 70.5956 64.6299Z" fill="#FEA832"/>
<path id="Vector_4" d="M61.4335 65.7283C63.7717 65.7283 65.7716 64.5653 66.9263 62.5407C68.0645 60.5429 68.0604 58.1737 66.8397 56.0829L41.4655 9.38704C40.2861 7.43656 38.2407 6.27148 35.9973 6.27148V65.7281L61.4335 65.7283Z" fill="#FEDB41"/>
<path id="Vector_5" d="M40.2203 23.5005V40.3916C40.2203 42.7142 38.32 44.6143 35.9976 44.6143C33.6752 44.6143 31.7749 42.714 31.7749 40.3916V23.5005C31.7749 21.178 33.6752 19.2778 35.9976 19.2778C38.32 19.2778 40.2203 21.178 40.2203 23.5005Z" fill="#495A79"/>
<path id="Vector_6" d="M40.2203 23.5005V40.3916C40.2203 42.7142 38.32 44.6143 35.9976 44.6143V19.2778C38.3198 19.2778 40.2203 21.178 40.2203 23.5005Z" fill="#42516D"/>
<path id="Vector_7" d="M35.9975 48.8369C32.4924 48.8369 29.6633 51.666 29.6633 55.1711C29.6633 58.6759 32.4924 61.5053 35.9975 61.5053C39.5026 61.5053 42.3317 58.6759 42.3317 55.1711C42.3317 51.6662 39.5025 48.8369 35.9975 48.8369Z" fill="#495A79"/>
<path id="Vector_8" d="M42.3315 55.1714C42.3315 58.6762 39.5024 61.5056 35.9973 61.5056V48.8374C39.5023 48.8373 42.3315 51.6665 42.3315 55.1714Z" fill="#42516D"/>
</g>
</g>
</g>
</g>
<defs>
<clipPath id="clip0_0_1">
<rect width="360" height="800" fill="white" transform="translate(-144 -259)"/>
</clipPath>
<clipPath id="clip1_0_1">
<rect width="72" height="72" fill="white"/>
</clipPath>
</defs>
</svg>
