<svg width="16" height="16" viewBox="0 0 16 16" fill="none" xmlns="http://www.w3.org/2000/svg">
<g clip-path="url(#clip0_300_1044)">
<path d="M10.7535 9.1531L10.749 9.1906C9.64951 8.6426 9.53451 8.5696 9.39251 8.7826C9.29401 8.9301 9.00701 9.2646 8.92051 9.3636C8.83301 9.4611 8.74601 9.4686 8.59751 9.4011C8.44751 9.3261 7.96601 9.1686 7.39601 8.6586C6.95201 8.2611 6.65401 7.7736 6.56601 7.6236C6.41951 7.3706 6.72601 7.3346 7.00501 6.8066C7.05501 6.7016 7.02951 6.6191 6.99251 6.5446C6.95501 6.4696 6.65651 5.7346 6.53151 5.4416C6.41151 5.1496 6.28801 5.1866 6.19551 5.1866C5.90751 5.1616 5.69701 5.1656 5.51151 5.3586C4.70451 6.2456 4.90801 7.1606 5.59851 8.1336C6.95551 9.9096 7.67851 10.2366 9.00051 10.6906C9.35751 10.8041 9.68301 10.7881 9.94051 10.7511C10.2275 10.7056 10.824 10.3906 10.9485 10.0381C11.076 9.6856 11.076 9.3931 11.0385 9.3256C11.0015 9.2581 10.9035 9.2206 10.7535 9.1531Z" fill="#EEEAFF"/>
<path d="M12.26 3.72472C8.4155 0.0082159 2.053 2.70372 2.0505 7.94672C2.0505 8.99472 2.325 10.0167 2.848 10.9192L2 14.0002L5.1675 13.1742C9.12 15.3092 13.998 12.4742 14 7.94972C14 6.36172 13.38 4.86722 12.2525 3.74422L12.26 3.72472ZM13.001 7.93322C12.998 11.7497 8.8085 14.1332 5.495 12.1852L5.315 12.0782L3.44 12.5657L3.9425 10.7432L3.823 10.5557C1.761 7.27322 4.13 2.98322 8.036 2.98322C9.363 2.98322 10.6085 3.50072 11.5465 4.43822C12.484 5.36772 13.001 6.61322 13.001 7.93322Z" fill="#EEEAFF"/>
</g>
<defs>
<clipPath id="clip0_300_1044">
<rect width="12" height="12" fill="white" transform="translate(2 2)"/>
</clipPath>
</defs>
</svg>
